<svg version="1.1" xmlns="http://www.w3.org/2000/svg" style="display: block;" viewBox="0 0 2048 2048" width="1024" height="1024" preserveAspectRatio="none">
<defs>
	<linearGradient id="Gradient1" gradientUnits="userSpaceOnUse" x1="822.911" y1="1678.72" x2="872.465" y2="1720.35">
		<stop class="stop0" offset="0" stop-opacity="1" stop-color="rgb(33,28,31)"/>
		<stop class="stop1" offset="1" stop-opacity="1" stop-color="rgb(20,47,33)"/>
	</linearGradient>
	<linearGradient id="Gradient2" gradientUnits="userSpaceOnUse" x1="1306.1" y1="1899.75" x2="1314.06" y2="1829.93">
		<stop class="stop0" offset="0" stop-opacity="1" stop-color="rgb(23,43,30)"/>
		<stop class="stop1" offset="1" stop-opacity="1" stop-color="rgb(35,29,32)"/>
	</linearGradient>
	<linearGradient id="Gradient3" gradientUnits="userSpaceOnUse" x1="642.214" y1="1870.5" x2="700.6" y2="1856.71">
		<stop class="stop0" offset="0" stop-opacity="1" stop-color="rgb(31,26,28)"/>
		<stop class="stop1" offset="1" stop-opacity="1" stop-color="rgb(17,46,34)"/>
	</linearGradient>
	<linearGradient id="Gradient4" gradientUnits="userSpaceOnUse" x1="828.634" y1="1990.09" x2="842.601" y2="2045.85">
		<stop class="stop0" offset="0" stop-opacity="1" stop-color="rgb(33,27,30)"/>
		<stop class="stop1" offset="1" stop-opacity="1" stop-color="rgb(21,41,31)"/>
	</linearGradient>
</defs>
<path transform="translate(0,0)" fill="rgb(255,255,255)" d="M 0 0 L 2048 0 L 2048 2048 L 1502.32 2048 L 1441.99 2048 L 1427.13 2048 L 1424.12 2048 L 1392.55 2048 L 1386.03 2048 L 1344.99 2048 L 1311.99 2048 L 1280.61 2048 L 1239.01 2048 L 1232.97 2048 L 1191.14 2048 L 1157.79 2048 L 1138.49 2048 L 1074.64 2048 L 994.936 2048 L 935.219 2048 L 885.081 2048 L 852.182 2048 L 819.495 2048 L 778 2048 L 771.541 2048 L 729.993 2048 L 665.997 2048 L 637.808 2048 L 612.05 2048 L 594.251 2048 L 534.101 2048 L 0 2048 L 0 0 z"/>
<path transform="translate(0,0)" fill="rgb(0,0,0)" d="M 840.25 801.362 C 868.05 786.993 890.551 760.816 914.854 741.22 C 908.783 772.945 901.984 804.38 905.225 836.925 C 921.517 830.633 913.587 856.183 917.952 857.379 C 934.277 861.855 922.727 881.064 935.82 882.274 L 936.476 880.285 C 938.293 885.982 940.961 896.102 944.35 900.481 C 979.822 891.623 987.324 891.725 1020.2 871.251 C 1034.92 874.143 1044.53 873.347 1059.22 871.158 C 1087.6 887.669 1100.9 892.834 1132.96 899.134 C 1133.55 899.093 1135.85 898.54 1135.87 898.36 C 1136.41 893.979 1140.47 885.215 1142.51 881.813 C 1145.63 880.94 1148.99 879.996 1150.71 877.505 C 1146.19 861.948 1155.92 864.802 1160.21 856.823 C 1165.31 847.34 1156.87 842.479 1171.19 832.654 C 1173.19 809.804 1164.53 770.111 1159.36 747.53 C 1185.95 769.174 1207.7 790.294 1238.79 806.308 C 1247.26 809.236 1258.1 812.656 1266.15 816.181 C 1267.89 820.143 1271.81 824.088 1275.91 825.494 C 1317.68 839.837 1358.71 856.243 1400.82 869.587 C 1407.15 871.594 1415.31 874.078 1421.91 874.78 C 1442.89 885.064 1464.37 892.545 1471.8 917.075 C 1479.06 941.07 1482.16 971.206 1485.29 996.178 L 1498.11 1101.21 C 1508.19 1186.33 1519.34 1273.34 1527.21 1358.58 C 1531.35 1404.42 1534.58 1450.33 1536.9 1496.29 C 1540.33 1552.99 1544.49 1609.03 1541.94 1665.85 C 1539.75 1714.43 1538.76 1763.34 1535.14 1811.84 C 1532.54 1846.49 1533.43 1882.7 1529.8 1917.07 C 1525.5 1917.43 1520.67 1918.49 1517.14 1916.43 C 1516.06 1914.94 1512.46 1909.93 1510.93 1909.43 C 1475.72 1897.87 1430.24 1888.55 1394.09 1896.24 L 1393.74 1897 L 1393.94 1901.46 C 1395.84 1909.44 1399.45 1923.4 1400.17 1931.15 L 1401.22 1941.21 L 1402.43 1947.33 C 1405.43 1959.51 1410.03 1977.73 1411.56 1989.95 C 1415.6 2008.71 1419.62 2029.51 1424.12 2048 L 1392.55 2048 L 1386.03 2048 L 1344.99 2048 L 1311.99 2048 L 1280.61 2048 L 1239.01 2048 L 1232.97 2048 L 1191.14 2048 L 1157.79 2048 L 1138.49 2048 L 1074.64 2048 L 994.936 2048 L 935.219 2048 L 885.081 2048 L 852.182 2048 L 819.495 2048 L 778 2048 L 771.541 2048 L 729.993 2048 L 665.997 2048 L 637.808 2048 C 638.588 2040.3 639.501 2032.61 640.549 2024.94 C 642.58 2012.86 644.052 2002.35 644.981 1990.14 C 638.191 1989.77 631.396 1989.5 624.599 1989.32 C 627.838 1978.7 631.459 1959.76 634.568 1947.7 L 636.489 1941.02 L 638.68 1930.6 C 639.07 1926.41 644.699 1903.27 645.941 1897.54 L 644.257 1896.74 C 633.916 1893.7 632.389 1893.6 621.985 1892.88 C 605.32 1891.72 528.044 1902.35 518.473 1911.41 C 518.209 1914.1 518.391 1915.2 516.934 1917.44 C 512.014 1918.32 504.225 1917.23 498.997 1916.77 C 499.133 1892.42 497.704 1865.77 497.191 1841.11 C 495.221 1746.41 491.327 1652 493.516 1557.26 C 496.32 1435.96 519.079 1317.83 537.871 1198.3 C 552.082 1110.34 566.446 1022.29 584.349 934.998 C 585.477 927.821 588.349 920.043 589.732 913.078 C 595.387 884.61 620.329 883.285 640.956 869.999 L 642.237 869.166 C 644.471 871.014 644.331 871.165 647.096 871.803 C 654.246 870.153 661.237 867.869 668.184 865.493 C 707.986 851.882 748.134 839.041 787.647 824.645 C 789.962 823.801 797.159 816.601 799.272 814.573 C 812.898 810.068 826.558 805.664 840.25 801.362 z"/>
<path transform="translate(0,0)" fill="rgb(31,31,31)" d="M 963.437 1678.4 C 971.903 1678.42 999.295 1677.77 1005.78 1678.86 C 1005.46 1695.37 1005.74 1711.53 1005.65 1727.98 C 1018.96 1727.85 1033.91 1727.99 1047.05 1727.19 C 1047.21 1719.54 1047.06 1683.03 1049.09 1678.91 L 1052.18 1677.45 C 1055.1 1682 1054.91 1719.82 1055.15 1727.91 L 1096.07 1728.17 C 1096.22 1711.58 1096.22 1694.98 1096.07 1678.38 C 1127.72 1678.84 1159.59 1678.57 1191.29 1678.78 C 1191.47 1699.23 1192.35 1722.19 1191.77 1742.4 L 1191.27 1742.63 C 1191.1 1751.27 1191.06 1759.91 1191.14 1768.54 C 1187.13 1771.28 1179.02 1776.44 1176.12 1779.9 L 1179.1 1792.52 C 1180.17 1802.15 1181.38 1826.75 1188.5 1832.48 C 1189.09 1832.95 1189.68 1833.41 1190.29 1833.86 C 1192.69 1843.82 1193.11 1858.17 1194.63 1868.72 C 1196.26 1879.96 1198.44 1889.8 1200.9 1900.84 C 1201.7 1912.25 1202.02 1920.14 1201.88 1931.64 C 1201.16 1937.1 1200.52 1942.58 1199.95 1948.05 C 1197.75 1960.64 1194.02 1972.65 1190.33 1984.88 C 1188.91 1994.95 1193.42 2017.55 1191.2 2032.25 L 1191.14 2048 L 1157.79 2048 L 1138.49 2048 L 1074.64 2048 L 994.936 2048 L 935.219 2048 L 885.081 2048 L 852.182 2048 L 819.495 2048 L 778 2048 L 771.541 2048 L 729.993 2048 C 729.843 2028.62 729.8 2009.25 729.864 1989.87 C 743.514 1989.94 757.829 1990.2 771.414 1989.84 C 772.925 1989.81 776.708 1989.63 778.016 1989.75 C 788.954 1990.62 808.366 1990.02 819.918 1990.02 L 819.985 1948.66 L 820.233 1948.14 L 819.944 1941.52 C 835.71 1940.85 853.819 1941.21 869.76 1941.16 C 868.736 1927.47 868.865 1913.71 870.148 1900.04 L 853.17 1899.95 L 851.674 1898.76 L 851.604 1896.24 C 849.189 1889.78 852.496 1839.51 854.029 1832.01 C 861.466 1832.03 871.836 1831.75 879.042 1832.23 L 882.504 1831.81 C 885.162 1829.56 885.678 1825.66 886.625 1822.13 C 889.763 1812.73 891.153 1801.2 892.359 1791.39 L 895.675 1778.31 L 903.661 1742.99 L 905.437 1730.99 C 915.3 1730.41 925.173 1730.03 935.051 1729.85 L 935.044 1714.03 C 935.094 1702.17 935.066 1690.32 934.96 1678.46 C 942.747 1677.93 955.3 1678.37 963.437 1678.4 z"/>
<path transform="translate(0,0)" fill="rgb(136,136,135)" d="M 909.616 1825.74 C 937.905 1835.99 966.371 1845.74 995 1855 C 1006.79 1858.84 1024.78 1864.95 1036.57 1867.9 C 1075.02 1855.25 1122.95 1837.91 1161.19 1827.09 C 1174.03 1884.7 1192.77 1937.54 1157.62 1994.16 C 1144.66 2015.03 1123.06 2030.81 1100.2 2039.24 C 1094.71 2041.27 1078.74 2045.93 1074.64 2048 L 994.936 2048 C 985.473 2043.87 976.055 2040.66 966.678 2036.4 C 937.378 2023.11 912.805 2002.6 900.891 1971.91 C 882.849 1925.45 899.044 1871.98 909.616 1825.74 z"/>
<path transform="translate(0,0)" fill="rgb(120,44,35)" d="M 820.233 1948.14 L 870.47 1948.04 C 874.071 1964.04 877.984 1974.7 882.285 1989.98 L 852.601 1989.95 C 852.1 2001.3 852.533 2012.9 851.922 2024.02 L 852.182 2048 L 819.495 2048 L 778 2048 L 771.541 2048 L 729.993 2048 C 729.843 2028.62 729.8 2009.25 729.864 1989.87 C 743.514 1989.94 757.829 1990.2 771.414 1989.84 C 772.925 1989.81 776.708 1989.63 778.016 1989.75 C 788.954 1990.62 808.366 1990.02 819.918 1990.02 L 819.985 1948.66 L 820.233 1948.14 z"/>
<path transform="translate(0,0)" fill="url(#Gradient4)" d="M 819.936 1990.06 L 852.601 1989.95 C 852.1 2001.3 852.533 2012.9 851.922 2024.02 L 852.182 2048 L 819.495 2048 C 819.374 2028.87 819.773 2009.22 819.936 1990.06 z"/>
<path transform="translate(0,0)" fill="rgb(24,41,32)" d="M 771.541 2048 C 771.534 2040.26 770.114 1995.92 772.871 1991.57 C 776.117 1991.17 775.092 1990.83 777.836 1991.83 C 779.008 2003.49 778.151 2035.57 778 2048 L 771.541 2048 z"/>
<path transform="translate(0,0)" fill="rgb(24,41,32)" d="M 934.96 1678.46 C 942.747 1677.93 955.3 1678.37 963.437 1678.4 C 966.14 1678.8 968.836 1679.23 971.524 1679.72 C 972.53 1685.6 973.807 1721.65 973.246 1727.42 L 972.122 1728.81 C 959.419 1729.63 947.768 1730.31 935.051 1729.85 L 935.044 1714.03 C 935.094 1702.17 935.066 1690.32 934.96 1678.46 z"/>
<path transform="translate(0,0)" fill="rgb(19,54,36)" d="M 935.044 1714.03 C 939.956 1709.83 962.968 1711.61 971.809 1711.06 L 972.122 1728.81 C 959.419 1729.63 947.768 1730.31 935.051 1729.85 L 935.044 1714.03 z"/>
<path transform="translate(0,0)" fill="rgb(24,41,32)" d="M 852.601 1989.95 L 882.285 1989.98 C 886.411 1996.79 881.786 2004.62 884.663 2008.76 L 884.957 2026.15 L 885.081 2048 L 852.182 2048 L 851.922 2024.02 C 852.533 2012.9 852.1 2001.3 852.601 1989.95 z"/>
<path transform="translate(0,0)" fill="rgb(19,54,36)" d="M 851.922 2024.02 C 857.731 2023.28 881.434 2021.9 884.957 2026.15 L 885.081 2048 L 852.182 2048 L 851.922 2024.02 z"/>
<path transform="translate(0,0)" fill="rgb(24,41,32)" d="M 854.029 1832.01 C 861.466 1832.03 871.836 1831.75 879.042 1832.23 C 880.676 1832.74 882.08 1832.73 882.413 1833.97 C 884.129 1840.36 878.456 1857.79 876.631 1864.46 C 873.849 1876.07 872.972 1889.57 870.148 1900.04 L 853.17 1899.95 L 851.674 1898.76 L 851.604 1896.24 C 849.189 1889.78 852.496 1839.51 854.029 1832.01 z"/>
<path transform="translate(0,0)" fill="rgb(19,54,36)" d="M 852.83 1864.5 C 861.666 1864.05 867.766 1864.09 876.631 1864.46 C 873.849 1876.07 872.972 1889.57 870.148 1900.04 L 853.17 1899.95 L 851.674 1898.76 L 851.604 1896.24 C 852.375 1892.33 852.597 1869.89 852.83 1864.5 z"/>
<path transform="translate(0,0)" fill="rgb(120,44,35)" d="M 884.908 1994.36 C 901.705 2021.5 909.215 2028.95 935.219 2048 L 885.081 2048 L 884.957 2026.15 L 884.663 2008.76 L 884.908 1994.36 z"/>
<path transform="translate(0,0)" fill="rgb(24,41,32)" d="M 1155.74 2032.96 C 1163.45 2024.01 1178.29 2020.44 1189.39 2023.43 C 1191.37 2026.12 1190.84 2028.29 1191.2 2032.25 L 1191.14 2048 L 1157.79 2048 C 1157.75 2043.19 1158.13 2036.86 1155.74 2032.96 z"/>
<path transform="translate(0,0)" fill="rgb(120,44,35)" d="M 1168.07 1743.12 L 1191.27 1742.63 C 1191.1 1751.27 1191.06 1759.91 1191.14 1768.54 C 1187.13 1771.28 1179.02 1776.44 1176.12 1779.9 C 1174.68 1769.04 1170.75 1754.01 1168.07 1743.12 z"/>
<path transform="translate(0,0)" fill="rgb(19,54,36)" d="M 1155.74 2032.96 C 1158.13 2036.86 1157.75 2043.19 1157.79 2048 L 1138.49 2048 C 1144.07 2042.8 1149.94 2037.9 1155.74 2032.96 z"/>
<path transform="translate(0,0)" fill="rgb(193,191,192)" d="M 1034.81 1800.71 C 1038 1801.19 1046.12 1806.22 1047.83 1809.07 C 1055.15 1821.34 1044.95 1828.89 1036.59 1834.41 C 1033.01 1834.46 1024.19 1826.18 1021.05 1823.51 C 1021.15 1819.3 1021.47 1814.74 1021.68 1810.5 L 1034.81 1800.71 z"/>
<path transform="translate(0,0)" fill="rgb(19,54,36)" d="M 1130.09 1711.28 C 1151.29 1711.94 1163.83 1703.85 1159.79 1731.94 C 1149.36 1732.05 1138.88 1731.96 1128.51 1730.79 C 1128.45 1722.96 1128.06 1718.91 1130.09 1711.28 z"/>
<path transform="translate(0,0)" fill="rgb(31,31,31)" d="M 1159.36 747.53 C 1185.95 769.174 1207.7 790.294 1238.79 806.308 C 1239.48 812.017 1247.1 822.749 1250.83 827.166 C 1270.06 849.953 1287.33 876.882 1306.29 899.585 C 1290.35 911.986 1271.18 926.119 1256.08 939.108 C 1276.47 957.417 1297.1 975.452 1317.97 993.209 C 1304.71 1050.92 1280.22 1117.99 1258.15 1173.13 C 1230.62 1242.15 1200.19 1309.97 1166.92 1376.41 C 1151.41 1407.36 1134.09 1437.4 1118.9 1467.84 C 1119.19 1428.13 1122.35 1382.23 1124.88 1342.7 C 1132.95 1232.04 1142.82 1121.51 1154.48 1011.17 C 1158.22 972.53 1162.3 933.748 1165.52 895.055 C 1166.02 889.139 1166.45 884.527 1162.99 879.596 C 1163.14 878.334 1164.21 874.363 1164.56 872.911 C 1167.59 865.024 1168.87 860.13 1169.55 851.876 L 1170.75 846.469 C 1171.09 842.696 1171.07 836.618 1171.19 832.654 C 1173.19 809.804 1164.53 770.111 1159.36 747.53 z"/>
<path transform="translate(0,0)" fill="rgb(31,31,31)" d="M 840.25 801.362 C 868.05 786.993 890.551 760.816 914.854 741.22 C 908.783 772.945 901.984 804.38 905.225 836.925 L 905.473 839.941 L 907.18 851.113 C 907.261 853.788 907.172 853.623 908.431 855.967 C 910.001 861.006 912.735 869.036 913.651 873.987 C 909.002 876.98 910.077 879.28 910.46 884.403 C 914.18 934.204 921.105 983.647 926.251 1033.31 L 949.952 1286.13 C 954.869 1341.5 961.046 1410.97 961.067 1466.32 C 955.514 1454.34 945.069 1436.89 938.477 1424.75 C 927.406 1403.91 916.648 1382.9 906.205 1361.73 C 851.22 1250.05 793.632 1115.38 763.032 994.738 C 783.783 975.93 804.227 956.784 824.353 937.308 C 807.263 924.219 789.783 911.444 773.082 897.882 C 782.475 887.243 839.174 812.322 840.25 801.362 z"/>
<path transform="translate(0,0)" fill="rgb(120,44,35)" d="M 713.319 1645.1 C 716.892 1646.59 725.326 1654.83 728.706 1657.91 C 738.504 1665.97 746.946 1672.61 757.204 1680.08 C 761.992 1680.02 767.269 1679.19 772.065 1678.59 L 771.971 1691.53 C 774.169 1693.47 775.872 1695.19 778.458 1696.59 C 791.898 1707.06 805.648 1717.12 819.69 1726.77 C 826.43 1731.58 835.844 1738.73 842.849 1742.62 C 856.412 1753.12 870.132 1761.76 884.609 1770.9 L 895.675 1778.31 L 892.359 1791.39 C 891.153 1801.2 889.763 1812.73 886.625 1822.13 C 885.678 1825.66 885.162 1829.56 882.504 1831.81 L 879.042 1832.23 C 871.836 1831.75 861.466 1832.03 854.029 1832.01 C 852.496 1839.51 849.189 1889.78 851.604 1896.24 L 851.674 1898.76 L 853.17 1899.95 L 870.148 1900.04 C 868.865 1913.71 868.736 1927.47 869.76 1941.16 C 853.819 1941.21 835.71 1940.85 819.944 1941.52 L 820.233 1948.14 L 819.985 1948.66 L 819.918 1990.02 C 808.366 1990.02 788.954 1990.62 778.016 1989.75 C 776.708 1989.63 772.925 1989.81 771.414 1989.84 C 757.829 1990.2 743.514 1989.94 729.864 1989.87 C 729.8 2009.25 729.843 2028.62 729.993 2048 L 665.997 2048 L 637.808 2048 C 638.588 2040.3 639.501 2032.61 640.549 2024.94 C 642.58 2012.86 644.052 2002.35 644.981 1990.14 C 638.191 1989.77 631.396 1989.5 624.599 1989.32 C 627.838 1978.7 631.459 1959.76 634.568 1947.7 L 636.489 1941.02 L 638.68 1930.6 C 639.07 1926.41 644.699 1903.27 645.941 1897.54 L 644.257 1896.74 C 649.994 1893.49 646.829 1886.04 649.924 1879.37 C 653.941 1873.73 661.312 1840.86 663.4 1831.85 C 667.227 1818.57 671.528 1803.38 674.473 1789.98 L 676.322 1784 C 680.498 1769.75 683.875 1754.77 687.333 1740.28 C 690.287 1742.41 698.381 1741.35 702.397 1741.03 L 729.051 1741.66 L 728.951 1712 L 729.207 1709.61 L 728.318 1679.87 L 703.768 1679.89 C 705.427 1671.7 707.012 1665.29 709.261 1657.23 L 713.319 1645.1 z"/>
<path transform="translate(0,0)" fill="rgb(24,41,32)" d="M 636.489 1941.02 C 656.788 1941.38 677.091 1941.51 697.393 1941.41 C 705.306 1941.39 721.639 1940.81 728.712 1941.55 L 728.446 1948.24 L 729.414 1949.24 C 730.142 1962.39 729.879 1976.6 729.864 1989.87 C 729.8 2009.25 729.843 2028.62 729.993 2048 L 665.997 2048 L 637.808 2048 C 638.588 2040.3 639.501 2032.61 640.549 2024.94 C 642.58 2012.86 644.052 2002.35 644.981 1990.14 C 638.191 1989.77 631.396 1989.5 624.599 1989.32 C 627.838 1978.7 631.459 1959.76 634.568 1947.7 L 636.489 1941.02 z"/>
<path transform="translate(0,0)" fill="rgb(120,44,35)" d="M 636.489 1941.02 C 656.788 1941.38 677.091 1941.51 697.393 1941.41 C 705.306 1941.39 721.639 1940.81 728.712 1941.55 L 728.446 1948.24 L 729.414 1949.24 C 730.142 1962.39 729.879 1976.6 729.864 1989.87 C 715.66 1989.96 682.615 1991.27 667.855 1988.57 C 666.932 1988.4 666.476 1985.31 666.119 1983.94 L 666.027 1967.75 C 660.115 1966.22 654.248 1964.84 648.486 1962.82 C 646.712 1971.04 644.509 1981.73 644.981 1990.14 C 638.191 1989.77 631.396 1989.5 624.599 1989.32 C 627.838 1978.7 631.459 1959.76 634.568 1947.7 L 636.489 1941.02 z"/>
<path transform="translate(0,0)" fill="rgb(31,31,31)" d="M 636.489 1941.02 C 656.788 1941.38 677.091 1941.51 697.393 1941.41 C 705.306 1941.39 721.639 1940.81 728.712 1941.55 L 728.446 1948.24 C 722.454 1947.42 709.962 1948.17 703.326 1948 C 682.055 1947.45 655.433 1949.7 634.568 1947.7 L 636.489 1941.02 z"/>
<path transform="translate(0,0)" fill="rgb(0,0,0)" d="M 648.486 1962.82 C 654.248 1964.84 660.115 1966.22 666.027 1967.75 L 666.119 1983.94 L 665.997 2048 L 637.808 2048 C 638.588 2040.3 639.501 2032.61 640.549 2024.94 C 642.58 2012.86 644.052 2002.35 644.981 1990.14 C 644.509 1981.73 646.712 1971.04 648.486 1962.82 z"/>
<path transform="translate(0,0)" fill="rgb(193,191,192)" d="M 713.319 1645.1 C 716.892 1646.59 725.326 1654.83 728.706 1657.91 C 738.504 1665.97 746.946 1672.61 757.204 1680.08 C 761.992 1680.02 767.269 1679.19 772.065 1678.59 L 771.971 1691.53 C 774.169 1693.47 775.872 1695.19 778.458 1696.59 C 791.898 1707.06 805.648 1717.12 819.69 1726.77 C 826.43 1731.58 835.844 1738.73 842.849 1742.62 C 856.412 1753.12 870.132 1761.76 884.609 1770.9 L 895.675 1778.31 L 892.359 1791.39 L 886.732 1787.78 L 886.212 1787.37 C 884.194 1786.01 881.365 1784.53 879.193 1783.3 C 866.152 1785.32 827.111 1782.51 820.035 1784.67 L 819.788 1784.15 C 805.934 1784.06 792.079 1784.08 778.225 1784.22 C 777.343 1771.99 777.93 1755.2 778.056 1742.78 L 780.353 1741.65 C 779.758 1736.41 778.78 1719.04 781.191 1715.17 L 777.98 1712.58 C 776.583 1711.23 773.945 1709.41 772.299 1708.18 C 749.467 1691 730.204 1676.5 709.261 1657.23 L 713.319 1645.1 z"/>
<path transform="translate(0,0)" fill="rgb(204,51,46)" d="M 816.991 1740.81 L 820.194 1743.13 C 820.145 1755.78 820.504 1771.79 819.788 1784.15 C 805.934 1784.06 792.079 1784.08 778.225 1784.22 C 777.343 1771.99 777.93 1755.2 778.056 1742.78 L 780.353 1741.65 C 788.621 1742.64 808.009 1741.26 816.991 1740.81 z"/>
<path transform="translate(0,0)" fill="rgb(120,44,35)" d="M 820.194 1743.13 C 839.961 1756.37 859.627 1769.76 879.193 1783.3 C 866.152 1785.32 827.111 1782.51 820.035 1784.67 L 819.788 1784.15 C 820.504 1771.79 820.145 1755.78 820.194 1743.13 z"/>
<path transform="translate(0,0)" fill="rgb(120,44,35)" d="M 780.353 1741.65 C 779.758 1736.41 778.78 1719.04 781.191 1715.17 C 792.293 1722.67 806.521 1732.55 816.991 1740.81 C 808.009 1741.26 788.621 1742.64 780.353 1741.65 z"/>
<path transform="translate(0,0)" fill="rgb(120,44,35)" d="M 757.204 1680.08 C 761.992 1680.02 767.269 1679.19 772.065 1678.59 L 771.971 1691.53 C 766.864 1688.29 761.904 1683.95 757.204 1680.08 z"/>
<path transform="translate(0,0)" fill="rgb(204,51,46)" d="M 728.712 1941.55 C 729.307 1931.61 727.833 1917.24 729.34 1907.82 C 730.308 1918.11 729.722 1930.89 729.881 1941.41 C 743.904 1941.96 757.531 1941.93 771.562 1941.92 C 771.762 1946.62 770.898 1944.82 773.178 1947.98 L 775.479 1948.49 C 778.712 1946.21 778.741 1945.51 778.483 1941.26 C 791.627 1941.59 806.693 1941.33 819.796 1940.82 L 819.944 1941.52 L 820.233 1948.14 L 819.985 1948.66 L 819.918 1990.02 C 808.366 1990.02 788.954 1990.62 778.016 1989.75 C 776.708 1989.63 772.925 1989.81 771.414 1989.84 C 757.829 1990.2 743.514 1989.94 729.864 1989.87 C 729.879 1976.6 730.142 1962.39 729.414 1949.24 L 728.446 1948.24 L 728.712 1941.55 z"/>
<path transform="translate(0,0)" fill="rgb(204,51,46)" d="M 778.059 1948.11 C 786.698 1947.95 812.543 1947.19 819.985 1948.66 L 819.918 1990.02 C 808.366 1990.02 788.954 1990.62 778.016 1989.75 L 778.059 1948.11 z"/>
<path transform="translate(0,0)" fill="rgb(123,42,37)" d="M 728.712 1941.55 C 729.307 1931.61 727.833 1917.24 729.34 1907.82 C 730.308 1918.11 729.722 1930.89 729.881 1941.41 C 743.904 1941.96 757.531 1941.93 771.562 1941.92 C 771.762 1946.62 770.898 1944.82 773.178 1947.98 L 775.479 1948.49 C 778.712 1946.21 778.741 1945.51 778.483 1941.26 C 791.627 1941.59 806.693 1941.33 819.796 1940.82 L 819.944 1941.52 L 820.233 1948.14 L 819.985 1948.66 C 812.543 1947.19 786.698 1947.95 778.059 1948.11 L 778.016 1989.75 C 776.708 1989.63 772.925 1989.81 771.414 1989.84 L 771.223 1948.02 C 763.231 1947.91 735.661 1946.98 729.414 1949.24 L 728.446 1948.24 L 728.712 1941.55 z"/>
<path transform="translate(0,0)" fill="url(#Gradient3)" d="M 663.4 1831.85 L 696.525 1831.95 L 697.252 1838.5 C 696.278 1846.31 696.126 1856.97 697.013 1864.77 C 697.487 1876.5 697.761 1888.23 697.836 1899.96 L 666.904 1899.97 C 659.838 1899.96 652.36 1900.45 645.941 1897.54 L 644.257 1896.74 C 649.994 1893.49 646.829 1886.04 649.924 1879.37 C 653.941 1873.73 661.312 1840.86 663.4 1831.85 z"/>
<path transform="translate(0,0)" fill="rgb(19,54,36)" d="M 667.372 1864.28 C 677.071 1864.69 687.269 1864.66 697.013 1864.77 C 697.487 1876.5 697.761 1888.23 697.836 1899.96 L 666.904 1899.97 C 666.998 1888.07 667.155 1876.18 667.372 1864.28 z"/>
<path transform="translate(0,0)" fill="rgb(31,31,31)" d="M 819.929 1831.98 L 854.029 1832.01 C 852.496 1839.51 849.189 1889.78 851.604 1896.24 L 851.674 1898.76 L 853.17 1899.95 L 820.068 1899.88 L 819.929 1831.98 z"/>
<path transform="translate(0,0)" fill="rgb(204,51,46)" d="M 778.225 1784.22 C 792.079 1784.08 805.934 1784.06 819.788 1784.15 L 820.035 1784.67 L 819.993 1790.38 L 819.798 1790.95 C 820.015 1804.6 820.056 1818.25 819.919 1831.9 C 806.429 1831.93 791.686 1831.67 778.302 1832.12 C 777.437 1822.52 777.973 1808.31 778.145 1798.44 L 777.444 1791.12 C 776.288 1788.75 777.325 1787.6 778.225 1784.22 z"/>
<path transform="translate(0,0)" fill="rgb(123,42,37)" d="M 778.225 1784.22 C 792.079 1784.08 805.934 1784.06 819.788 1784.15 L 820.035 1784.67 L 819.993 1790.38 L 819.798 1790.95 C 808.128 1789.87 789.077 1789.31 777.444 1791.12 C 776.288 1788.75 777.325 1787.6 778.225 1784.22 z"/>
<path transform="translate(0,0)" fill="rgb(204,51,46)" d="M 729.34 1907.82 C 729.553 1905 729.785 1903.66 730.286 1900.94 L 731.466 1900.19 C 738.55 1899.7 766.045 1899.15 771.868 1900.69 C 771.872 1912.8 772.36 1930.11 771.562 1941.92 C 757.531 1941.93 743.904 1941.96 729.881 1941.41 C 729.722 1930.89 730.308 1918.11 729.34 1907.82 z"/>
<path transform="translate(0,0)" fill="rgb(204,51,46)" d="M 778.305 1900.05 L 819.998 1899.9 L 819.796 1940.82 C 806.693 1941.33 791.627 1941.59 778.483 1941.26 C 777.484 1932.37 777.903 1909.28 778.305 1900.05 z"/>
<path transform="translate(0,0)" fill="rgb(24,41,32)" d="M 697.252 1838.5 C 698.184 1845.6 697.888 1857.07 697.918 1864.55 C 707.658 1864.35 718.721 1864.23 728.501 1864.6 C 728.702 1868.49 728.75 1873.95 729.739 1877.57 L 729.845 1899.81 L 697.836 1899.96 C 697.761 1888.23 697.487 1876.5 697.013 1864.77 C 696.126 1856.97 696.278 1846.31 697.252 1838.5 z"/>
<path transform="translate(0,0)" fill="rgb(31,31,31)" d="M 696.525 1831.95 L 729.742 1831.99 C 729.855 1847.18 729.854 1862.38 729.739 1877.57 C 728.75 1873.95 728.702 1868.49 728.501 1864.6 C 718.721 1864.23 707.658 1864.35 697.918 1864.55 C 697.888 1857.07 698.184 1845.6 697.252 1838.5 L 696.525 1831.95 z"/>
<path transform="translate(0,0)" fill="rgb(24,41,32)" d="M 879.193 1783.3 C 881.365 1784.53 884.194 1786.01 886.212 1787.37 C 880.451 1792.06 859.444 1791.4 851.503 1791.16 C 842.972 1790.89 827.467 1792.1 819.993 1790.38 L 820.035 1784.67 C 827.111 1782.51 866.152 1785.32 879.193 1783.3 z"/>
<path transform="translate(0,0)" fill="rgb(24,41,32)" d="M 676.322 1784 C 693.54 1784.05 711.402 1784.35 728.567 1784.05 C 728.834 1786.39 729.132 1788.51 729.207 1790.86 C 717.224 1791.01 684.448 1791.99 674.473 1789.98 L 676.322 1784 z"/>
<path transform="translate(0,0)" fill="rgb(31,31,31)" d="M 772.299 1708.18 C 773.945 1709.41 776.583 1711.23 777.98 1712.58 L 781.191 1715.17 C 778.78 1719.04 779.758 1736.41 780.353 1741.65 L 778.056 1742.78 L 777.777 1742.19 L 771.842 1742.26 C 771.765 1731.27 771.382 1719.03 772.299 1708.18 z"/>
<path transform="translate(0,0)" fill="rgb(123,42,37)" d="M 777.98 1712.58 L 781.191 1715.17 C 778.78 1719.04 779.758 1736.41 780.353 1741.65 L 778.056 1742.78 L 777.777 1742.19 C 778.044 1732.67 777.919 1722.17 777.98 1712.58 z"/>
<path transform="translate(0,0)" fill="rgb(204,51,46)" d="M 886.732 1787.78 L 892.359 1791.39 C 891.153 1801.2 889.763 1812.73 886.625 1822.13 C 883.23 1816.71 883.893 1792.21 886.732 1787.78 z"/>
<path transform="translate(0,0)" fill="rgb(204,51,46)" d="M 729.794 1742.24 C 738.883 1742.65 764.395 1741.05 771.663 1742.73 C 771.899 1756.55 771.898 1770.37 771.66 1784.19 C 760.605 1784.12 739.439 1784.67 729.208 1783.78 C 729.519 1769.94 729.715 1756.09 729.794 1742.24 z"/>
<path transform="translate(0,0)" fill="rgb(204,51,46)" d="M 729.879 1791.1 C 737.135 1790.83 767.473 1788.85 771.463 1792.39 C 771.707 1795.15 771.895 1797.92 772.026 1800.69 C 771.314 1809.73 771.491 1821.99 771.607 1831.24 C 766.803 1832.85 736.435 1832 729.791 1831.91 L 729.879 1791.1 z"/>
<path transform="translate(0,0)" fill="rgb(31,31,31)" d="M 771.89 1832.09 L 778.043 1832.73 C 778.011 1853.73 777.362 1878.77 778.084 1899.44 L 772.172 1900.16 C 770.312 1882.57 771.613 1850.58 771.89 1832.09 z"/>
<path transform="translate(0,0)" fill="rgb(120,44,35)" d="M 1359.81 1741.14 L 1369.14 1783.82 L 1370.53 1790.96 C 1373.55 1804.59 1376.47 1818.25 1379.3 1831.92 C 1380.42 1837.72 1381.71 1847.43 1384.94 1852.12 C 1385.35 1856.95 1385.9 1862.12 1386.15 1866.93 C 1387.74 1874.31 1391.11 1889.72 1394.09 1896.24 L 1393.74 1897 L 1393.94 1901.46 C 1395.84 1909.44 1399.45 1923.4 1400.17 1931.15 L 1401.22 1941.21 L 1402.43 1947.33 C 1405.43 1959.51 1410.03 1977.73 1411.56 1989.95 C 1415.6 2008.71 1419.62 2029.51 1424.12 2048 L 1392.55 2048 L 1386.03 2048 L 1344.99 2048 L 1311.99 2048 L 1280.61 2048 L 1239.01 2048 L 1232.97 2048 L 1191.14 2048 L 1191.2 2032.25 C 1193.42 2017.55 1188.91 1994.95 1190.33 1984.88 C 1194.02 1972.65 1197.75 1960.64 1199.95 1948.05 C 1200.52 1942.58 1201.16 1937.1 1201.88 1931.64 C 1202.02 1920.14 1201.7 1912.25 1200.9 1900.84 C 1198.44 1889.8 1196.26 1879.96 1194.63 1868.72 C 1193.11 1858.17 1192.69 1843.82 1190.29 1833.86 C 1189.68 1833.41 1189.09 1832.95 1188.5 1832.48 C 1181.38 1826.75 1180.17 1802.15 1179.1 1792.52 C 1183.77 1789.54 1188.53 1786.24 1193.14 1783.13 C 1204.87 1774.35 1219.93 1764.55 1232.24 1756.14 L 1239.63 1750.8 C 1242.77 1748.07 1248.88 1743.98 1252.51 1741.39 C 1258.88 1743.27 1273.35 1742.91 1280.8 1743 L 1280.96 1742.26 C 1302.19 1742.7 1323.38 1742.09 1344.51 1742.44 C 1349.82 1742.33 1354.71 1742.54 1359.81 1741.14 z"/>
<path transform="translate(0,0)" fill="rgb(123,42,37)" d="M 1232.8 1900.24 L 1233.45 1900.06 L 1239.34 1899.93 L 1239.94 1900.17 C 1239.63 1914.08 1239.58 1928 1239.79 1941.92 C 1252.92 1941.82 1267.8 1941.4 1280.79 1941.82 L 1280.71 1942.78 L 1281.45 1947.11 C 1286.15 1949.14 1336.57 1948.45 1344.29 1947.96 L 1344.84 1948.22 L 1385.2 1948 C 1385.38 1956.68 1386.38 1983.18 1385.3 1989.87 L 1385.98 1990.09 C 1385.89 2009.39 1385.91 2028.7 1386.03 2048 L 1344.99 2048 L 1311.99 2048 L 1280.61 2048 L 1239.01 2048 L 1232.97 2048 L 1191.14 2048 L 1191.2 2032.25 C 1193.42 2017.55 1188.91 1994.95 1190.33 1984.88 C 1194.02 1972.65 1197.75 1960.64 1199.95 1948.05 C 1200.52 1942.58 1201.16 1937.1 1201.88 1931.64 C 1202.02 1920.14 1201.7 1912.25 1200.9 1900.84 C 1210.56 1899.48 1222.91 1899.95 1232.8 1900.24 z"/>
<path transform="translate(0,0)" fill="rgb(31,31,31)" d="M 1280.97 1990.05 C 1302.07 1989.81 1323.17 1989.8 1344.27 1990.03 L 1344.77 2025.48 L 1344.99 2048 L 1311.99 2048 L 1280.61 2048 C 1280.54 2028.03 1280.26 2010.11 1280.97 1990.05 z"/>
<path transform="translate(0,0)" fill="rgb(19,54,36)" d="M 1312.92 2023.75 C 1320.61 2023.8 1340.42 2019.32 1344.77 2025.48 L 1344.99 2048 L 1311.99 2048 C 1312.13 2039.91 1312.44 2031.83 1312.92 2023.75 z"/>
<path transform="translate(0,0)" fill="rgb(204,51,46)" d="M 1239.8 1947.99 C 1253.4 1948.02 1267.48 1947.86 1281.03 1948.14 L 1280.97 1990.05 L 1239.68 1990.04 C 1239.71 1976.09 1239.61 1961.92 1239.8 1947.99 z"/>
<path transform="translate(0,0)" fill="rgb(204,51,46)" d="M 1344.84 1948.22 L 1385.2 1948 C 1385.38 1956.68 1386.38 1983.18 1385.3 1989.87 C 1372.19 1990.37 1357.54 1990.06 1344.31 1990.02 C 1344.21 1980.42 1343.59 1956.9 1344.84 1948.22 z"/>
<path transform="translate(0,0)" fill="rgb(204,51,46)" d="M 1199.95 1948.05 C 1210.61 1948.1 1221.55 1948.27 1232.18 1947.99 L 1232.52 1989.99 C 1224.21 1990.12 1197.26 1991.58 1191.48 1988.76 C 1191.06 1987.44 1190.63 1986.23 1190.33 1984.88 C 1194.02 1972.65 1197.75 1960.64 1199.95 1948.05 z"/>
<path transform="translate(0,0)" fill="rgb(204,51,46)" d="M 1200.9 1900.84 C 1210.56 1899.48 1222.91 1899.95 1232.8 1900.24 C 1232.92 1913.88 1232.84 1927.51 1232.56 1941.15 C 1227.56 1941.22 1205.25 1942.31 1202.38 1940.05 C 1202.16 1937.17 1201.97 1934.55 1201.88 1931.64 C 1202.02 1920.14 1201.7 1912.25 1200.9 1900.84 z"/>
<path transform="translate(0,0)" fill="rgb(31,31,31)" d="M 1232.97 2048 C 1232.81 2036.79 1231.21 2000.71 1234.44 1992.28 L 1236.02 1990.82 L 1238.09 1991.37 C 1239.89 1996.51 1239.08 2039.52 1239.01 2048 L 1232.97 2048 z"/>
<path transform="translate(0,0)" fill="rgb(204,51,46)" d="M 1239.94 1900.17 C 1253.58 1899.93 1267.22 1899.87 1280.86 1899.98 C 1280.95 1913.55 1281.31 1928.37 1280.79 1941.82 C 1267.8 1941.4 1252.92 1941.82 1239.79 1941.92 C 1239.58 1928 1239.63 1914.08 1239.94 1900.17 z"/>
<path transform="translate(0,0)" fill="rgb(204,51,46)" d="M 1239.63 1750.8 C 1242.77 1748.07 1248.88 1743.98 1252.51 1741.39 C 1258.88 1743.27 1273.35 1742.91 1280.8 1743 C 1281.17 1756.52 1280.8 1770.72 1281.38 1783.98 L 1239.66 1783.96 C 1239.75 1776.64 1240.37 1757.08 1239.63 1750.8 z"/>
<path transform="translate(0,0)" fill="rgb(204,51,46)" d="M 1344.71 1791.02 L 1370.53 1790.96 C 1373.55 1804.59 1376.47 1818.25 1379.3 1831.92 L 1344.56 1831.88 C 1344.4 1821.98 1343.64 1799.93 1344.71 1791.02 z"/>
<path transform="translate(0,0)" fill="rgb(204,51,46)" d="M 1359.81 1741.14 L 1369.14 1783.82 L 1344.65 1783.95 C 1343.27 1778.77 1344.31 1749.09 1344.51 1742.44 C 1349.82 1742.33 1354.71 1742.54 1359.81 1741.14 z"/>
<path transform="translate(0,0)" fill="rgb(204,51,46)" d="M 1392.01 1989.95 C 1391.9 1980.37 1391.07 1957.42 1392.29 1949.12 C 1395.08 1947.46 1398.89 1947.64 1402.43 1947.33 C 1405.43 1959.51 1410.03 1977.73 1411.56 1989.95 L 1392.01 1989.95 z"/>
<path transform="translate(0,0)" fill="rgb(204,51,46)" d="M 1193.14 1783.13 C 1204.87 1774.35 1219.93 1764.55 1232.24 1756.14 C 1232.18 1765.38 1232.17 1774.62 1232.23 1783.86 C 1223.78 1783.9 1200.47 1784.49 1193.14 1783.13 z"/>
<path transform="translate(0,0)" fill="rgb(31,31,31)" d="M 1233.45 1900.06 C 1232.28 1889 1232.19 1844.27 1233.53 1833.38 L 1234.67 1832.13 C 1238.07 1832.03 1236.57 1831.55 1239.29 1833.67 C 1240.42 1837.57 1240.11 1896.23 1239.34 1899.93 L 1233.45 1900.06 z"/>
<path transform="translate(0,0)" fill="rgb(31,31,31)" d="M 1280.71 1942.78 C 1287.42 1941.15 1339.39 1939.89 1343.75 1942.54 C 1344.3 1945.17 1344.4 1945.31 1344.29 1947.96 C 1336.57 1948.45 1286.15 1949.14 1281.45 1947.11 L 1280.71 1942.78 z"/>
<path transform="translate(0,0)" fill="rgb(31,31,31)" d="M 1385.98 1990.09 C 1389.97 1990.3 1389.8 1989.57 1391.77 1991.72 C 1393.59 2006.07 1391.96 2032.37 1392.55 2048 L 1386.03 2048 C 1385.91 2028.7 1385.89 2009.39 1385.98 1990.09 z"/>
<path transform="translate(0,0)" fill="rgb(204,51,46)" d="M 1401.22 1941.21 C 1398.2 1941.15 1394.25 1941.63 1392.3 1939.54 C 1391.6 1933.35 1390.86 1905.92 1393.94 1901.46 C 1395.84 1909.44 1399.45 1923.4 1400.17 1931.15 L 1401.22 1941.21 z"/>
<path transform="translate(0,0)" fill="rgb(24,41,32)" d="M 1386.15 1866.93 C 1387.74 1874.31 1391.11 1889.72 1394.09 1896.24 L 1393.74 1897 C 1391.68 1899.16 1390.29 1900.17 1387.46 1899.23 C 1384.28 1893.42 1386.08 1874.92 1386.15 1866.93 z"/>
<path transform="translate(0,0)" fill="url(#Gradient2)" d="M 1280.96 1832.03 L 1344.65 1831.93 C 1344.69 1839.08 1345.19 1887.66 1344.23 1891.66 C 1344.41 1894.49 1345.04 1897.26 1343.66 1899.53 C 1335.62 1900.55 1320.48 1900 1311.87 1899.94 L 1280.82 1899.97 C 1279.51 1879.4 1280.62 1853 1280.96 1832.03 z"/>
<path transform="translate(0,0)" fill="rgb(19,54,36)" d="M 1313.26 1865.15 C 1323.12 1865.32 1333.83 1864.91 1343.75 1864.72 C 1343.72 1872.41 1343.31 1884.37 1344.23 1891.66 C 1344.41 1894.49 1345.04 1897.26 1343.66 1899.53 C 1335.62 1900.55 1320.48 1900 1311.87 1899.94 C 1312.63 1895.34 1312.64 1872.87 1313.26 1865.15 z"/>
<path transform="translate(0,0)" fill="rgb(204,51,46)" d="M 1239.97 1790.64 C 1253.55 1790.67 1267.69 1790.52 1281.21 1790.89 L 1280.96 1832.03 L 1239.89 1832 C 1239.67 1818.22 1239.69 1804.43 1239.97 1790.64 z"/>
<path transform="translate(0,0)" fill="rgb(204,51,46)" d="M 1192.59 1791.46 C 1205.75 1790.94 1219.32 1791.21 1232.52 1791.29 C 1232.7 1804.86 1232.73 1818.42 1232.6 1831.99 C 1218.74 1832.16 1204.89 1832.14 1191.04 1831.94 C 1190.89 1825.46 1189.86 1794.81 1192.59 1791.46 z"/>
<path transform="translate(0,0)" fill="rgb(204,51,46)" d="M 1344.57 1900.11 L 1385.76 1899.94 C 1385.69 1913.69 1385.45 1927.45 1385.04 1941.2 C 1371.52 1941.46 1358.01 1941.59 1344.5 1941.62 C 1344.22 1928.12 1344.51 1913.68 1344.57 1900.11 z"/>
<path transform="translate(0,0)" fill="rgb(31,31,31)" d="M 1344.16 1790.75 C 1335.19 1791.58 1286.54 1792.88 1281.87 1787.78 L 1282.83 1786.12 C 1292.37 1782.27 1331.91 1783.72 1344.08 1784.18 L 1344.16 1790.75 z"/>
<path transform="translate(0,0)" fill="rgb(120,44,35)" d="M 732.268 1569.41 C 741.32 1575.88 750.725 1581.76 759.913 1588.43 L 771.657 1595.85 C 773.27 1596.83 778.998 1600.17 780.146 1601.25 C 792.086 1608.47 810.582 1619.1 821.189 1627.81 C 826.039 1630.65 829.965 1632.67 834.151 1636.46 C 846.41 1643.68 857.625 1651.31 869.428 1659.25 C 873.492 1652.04 878.911 1641.66 883.242 1634.93 L 886.366 1629.16 C 892.462 1630.89 905.206 1630.1 911.266 1628.39 C 916.07 1630.69 922.675 1633.64 927.167 1636.17 C 929.467 1637.07 932.002 1638 934.24 1639 C 942.938 1643.05 950.32 1646.81 958.772 1651.37 L 973.449 1636.15 C 975.987 1633.36 977.283 1632.23 980.192 1629.79 C 988.672 1621.53 997.018 1613.14 1005.23 1604.61 C 1010.03 1599.27 1015.3 1594.07 1020.36 1588.94 C 1026.56 1583.08 1032.9 1576.41 1038.92 1570.3 C 1043.8 1574.36 1049.82 1581.27 1054.29 1586.12 C 1062.74 1593.56 1092.76 1621.09 1097.08 1629.9 L 1097.29 1634.51 C 1099.54 1636.37 1098.29 1635.46 1101.03 1636.42 C 1109.83 1639.5 1114.72 1644.67 1120.39 1651.76 C 1131.35 1646.16 1141.7 1640.82 1152.98 1635.85 C 1161.51 1638.01 1184.8 1637.58 1193.26 1635.57 L 1195.82 1634.92 C 1200.66 1643.05 1205.64 1651.17 1209.97 1659.57 C 1216.94 1655.07 1225.27 1649.99 1231.95 1645.28 C 1232.96 1644.35 1238.04 1640.88 1239.43 1639.9 L 1244.2 1636.9 C 1251.13 1636.89 1275.32 1636.52 1280.99 1637.48 L 1281.13 1636.85 L 1281.16 1630.79 C 1291.79 1628.42 1326.73 1633.01 1333.68 1629.26 L 1335.46 1635.82 C 1336.49 1641.38 1339.59 1652.33 1340.11 1656.07 C 1341.37 1660.36 1343.07 1666.88 1344.6 1670.88 C 1328.94 1681.06 1297.82 1708.17 1281.06 1721.12 L 1280.96 1742.26 L 1280.8 1743 C 1273.35 1742.91 1258.88 1743.27 1252.51 1741.39 C 1248.88 1743.98 1242.77 1748.07 1239.63 1750.8 L 1232.24 1756.14 C 1219.93 1764.55 1204.87 1774.35 1193.14 1783.13 C 1188.53 1786.24 1183.77 1789.54 1179.1 1792.52 L 1176.12 1779.9 C 1179.02 1776.44 1187.13 1771.28 1191.14 1768.54 C 1191.06 1759.91 1191.1 1751.27 1191.27 1742.63 L 1191.77 1742.4 C 1192.35 1722.19 1191.47 1699.23 1191.29 1678.78 C 1159.59 1678.57 1127.72 1678.84 1096.07 1678.38 C 1096.22 1694.98 1096.22 1711.58 1096.07 1728.17 L 1055.15 1727.91 C 1054.91 1719.82 1055.1 1682 1052.18 1677.45 L 1049.09 1678.91 C 1047.06 1683.03 1047.21 1719.54 1047.05 1727.19 C 1033.91 1727.99 1018.96 1727.85 1005.65 1727.98 C 1005.74 1711.53 1005.46 1695.37 1005.78 1678.86 C 999.295 1677.77 971.903 1678.42 963.437 1678.4 C 955.3 1678.37 942.747 1677.93 934.96 1678.46 C 935.066 1690.32 935.094 1702.17 935.044 1714.03 L 935.051 1729.85 C 925.173 1730.03 915.3 1730.41 905.437 1730.99 L 903.661 1742.99 L 895.675 1778.31 L 884.609 1770.9 C 870.132 1761.76 856.412 1753.12 842.849 1742.62 C 835.844 1738.73 826.43 1731.58 819.69 1726.77 C 805.648 1717.12 791.898 1707.06 778.458 1696.59 C 775.872 1695.19 774.169 1693.47 771.971 1691.53 L 772.065 1678.59 C 767.269 1679.19 761.992 1680.02 757.204 1680.08 C 746.946 1672.61 738.504 1665.97 728.706 1657.91 C 725.326 1654.83 716.892 1646.59 713.319 1645.1 L 714.4 1636.24 L 716.455 1629.97 C 721.955 1616.58 729.321 1583.3 732.268 1569.41 z"/>
<path transform="translate(0,0)" fill="url(#Gradient1)" d="M 819.964 1678.63 L 884.251 1678.71 L 884.643 1712.84 C 884.811 1722.43 885.191 1732.62 884.696 1742.16 L 853.464 1742.08 C 850.491 1742.14 845.565 1742.1 842.849 1742.62 C 835.844 1738.73 826.43 1731.58 819.69 1726.77 L 819.964 1678.63 z"/>
<path transform="translate(0,0)" fill="rgb(19,54,36)" d="M 852.109 1711.12 C 860.23 1711.18 877.239 1710.9 884.643 1712.84 C 884.811 1722.43 885.191 1732.62 884.696 1742.16 L 853.464 1742.08 C 852.607 1730.91 852.148 1722.38 852.109 1711.12 z"/>
<path transform="translate(0,0)" fill="rgb(193,191,192)" d="M 1312.81 1679.23 C 1321.89 1671.2 1330.48 1663.45 1340.11 1656.07 C 1341.37 1660.36 1343.07 1666.88 1344.6 1670.88 C 1328.94 1681.06 1297.82 1708.17 1281.06 1721.12 L 1280.96 1742.26 L 1280.8 1743 C 1273.35 1742.91 1258.88 1743.27 1252.51 1741.39 C 1248.88 1743.98 1242.77 1748.07 1239.63 1750.8 L 1232.24 1756.14 C 1219.93 1764.55 1204.87 1774.35 1193.14 1783.13 C 1188.53 1786.24 1183.77 1789.54 1179.1 1792.52 L 1176.12 1779.9 C 1179.02 1776.44 1187.13 1771.28 1191.14 1768.54 C 1191.06 1759.91 1191.1 1751.27 1191.27 1742.63 L 1191.77 1742.4 L 1229.9 1741.82 L 1234.51 1738.49 L 1239.95 1734.27 C 1254.24 1724.03 1268.42 1713.65 1282.5 1703.13 C 1292.33 1696 1303.78 1687.18 1312.81 1679.23 z"/>
<path transform="translate(0,0)" fill="rgb(204,51,46)" d="M 1191.77 1742.4 L 1229.9 1741.82 C 1217.9 1750.85 1204.05 1760.81 1191.14 1768.54 C 1191.06 1759.91 1191.1 1751.27 1191.27 1742.63 L 1191.77 1742.4 z"/>
<path transform="translate(0,0)" fill="rgb(123,42,37)" d="M 1252.51 1741.39 C 1261.02 1734.85 1272.14 1727.42 1281.06 1721.12 L 1280.96 1742.26 L 1280.8 1743 C 1273.35 1742.91 1258.88 1743.27 1252.51 1741.39 z"/>
<path transform="translate(0,0)" fill="rgb(204,51,46)" d="M 911.266 1628.39 C 916.07 1630.69 922.675 1633.64 927.167 1636.17 C 929.467 1637.07 932.002 1638 934.24 1639 C 934.543 1651.89 934.648 1664.79 934.556 1677.68 C 927.62 1678.91 893.592 1678.29 884.489 1678.24 L 884.252 1648.37 C 883.737 1644.18 883.531 1639.2 883.242 1634.93 L 886.366 1629.16 C 892.462 1630.89 905.206 1630.1 911.266 1628.39 z"/>
<path transform="translate(0,0)" fill="rgb(123,42,37)" d="M 911.266 1628.39 C 916.07 1630.69 922.675 1633.64 927.167 1636.17 C 913.107 1636.6 899.038 1636.73 884.972 1636.56 L 884.252 1648.37 C 883.737 1644.18 883.531 1639.2 883.242 1634.93 L 886.366 1629.16 C 892.462 1630.89 905.206 1630.1 911.266 1628.39 z"/>
<path transform="translate(0,0)" fill="rgb(204,51,46)" d="M 1244.2 1636.9 C 1251.13 1636.89 1275.32 1636.52 1280.99 1637.48 L 1281.13 1678.81 C 1267.84 1678.74 1253.39 1678.41 1240.2 1678.8 C 1239.51 1666.81 1239.64 1652.08 1239.43 1639.9 L 1244.2 1636.9 z"/>
<path transform="translate(0,0)" fill="rgb(204,51,46)" d="M 759.913 1588.43 L 771.657 1595.85 C 771.879 1607.24 771.859 1618.64 771.599 1630.04 L 729.685 1630.02 C 729.181 1616.36 730.064 1602.84 729.401 1589.24 C 739.574 1589.03 749.744 1588.76 759.913 1588.43 z"/>
<path transform="translate(0,0)" fill="rgb(204,51,46)" d="M 1020.36 1588.94 C 1028.8 1589.53 1039.01 1589.93 1047.44 1588.98 L 1047.71 1629.97 C 1034.64 1630.07 1019.02 1630.58 1006.16 1630.12 C 1006.1 1621.61 1005.79 1613.1 1005.23 1604.61 C 1010.03 1599.27 1015.3 1594.07 1020.36 1588.94 z"/>
<path transform="translate(0,0)" fill="rgb(204,51,46)" d="M 729.907 1636.97 C 743.71 1636.93 758.217 1636.68 771.962 1636.99 C 771.974 1649.92 771.527 1665.92 772.065 1678.59 C 767.269 1679.19 761.992 1680.02 757.204 1680.08 C 746.946 1672.61 738.504 1665.97 728.706 1657.91 C 729.997 1651.6 729.816 1643.54 729.907 1636.97 z"/>
<path transform="translate(0,0)" fill="rgb(204,51,46)" d="M 1193.26 1635.57 L 1195.82 1634.92 C 1200.66 1643.05 1205.64 1651.17 1209.97 1659.57 C 1216.94 1655.07 1225.27 1649.99 1231.95 1645.28 C 1233.84 1654.54 1233.15 1669.21 1232.76 1678.79 C 1219.05 1678.94 1205.33 1678.86 1191.62 1678.56 C 1191.16 1666.96 1189.74 1646.01 1193.26 1635.57 z"/>
<path transform="translate(0,0)" fill="rgb(204,51,46)" d="M 1054.29 1586.12 C 1062.74 1593.56 1092.76 1621.09 1097.08 1629.9 C 1085.32 1630.72 1066.42 1630.07 1054.14 1630.02 C 1053.97 1618.62 1053.16 1596.66 1054.29 1586.12 z"/>
<path transform="translate(0,0)" fill="rgb(204,51,46)" d="M 780.146 1601.25 C 792.086 1608.47 810.582 1619.1 821.189 1627.81 L 820.129 1628.87 C 809.163 1630.83 790.765 1630.14 779.191 1630.01 C 778.979 1623.74 777.927 1606.58 780.146 1601.25 z"/>
<path transform="translate(0,0)" fill="rgb(204,51,46)" d="M 884.944 1742.68 C 890.039 1742.27 898.761 1741.7 903.661 1742.99 L 895.675 1778.31 L 884.609 1770.9 L 884.944 1742.68 z"/>
<path transform="translate(0,0)" fill="rgb(31,31,31)" d="M 1281.24 1678.98 C 1289.85 1678.79 1304.96 1677.99 1312.81 1679.23 C 1303.78 1687.18 1292.33 1696 1282.5 1703.13 C 1280.67 1696.28 1281.18 1686.31 1281.24 1678.98 z"/>
<path transform="translate(0,0)" fill="rgb(31,31,31)" d="M 1232.98 1679.47 C 1235.92 1679.13 1237.1 1678.81 1240.05 1679.45 L 1239.95 1734.27 L 1234.51 1738.49 C 1231.8 1730.48 1232.96 1689.96 1232.98 1679.47 z"/>
<path transform="translate(0,0)" fill="rgb(31,31,31)" d="M 1333.68 1629.26 L 1335.46 1635.82 C 1318.68 1637.07 1298.03 1637.31 1281.13 1636.85 L 1281.16 1630.79 C 1291.79 1628.42 1326.73 1633.01 1333.68 1629.26 z"/>
<path transform="translate(0,0)" fill="rgb(31,31,31)" d="M 973.449 1636.15 C 975.987 1633.36 977.283 1632.23 980.192 1629.79 C 988.623 1632.74 1000.6 1626.34 1006.01 1632.98 L 1005.71 1634.92 C 1000.85 1638.33 979.599 1637.25 973.449 1636.15 z"/>
<path transform="translate(0,0)" fill="rgb(24,41,32)" d="M 772.065 1678.59 C 776.999 1678.99 775.802 1678.13 778.363 1680.99 C 779.915 1686.12 778.947 1691.14 778.458 1696.59 C 775.872 1695.19 774.169 1693.47 771.971 1691.53 L 772.065 1678.59 z"/>
<path transform="translate(0,0)" fill="rgb(31,31,31)" d="M 716.455 1629.97 C 720.55 1629.88 724.423 1629.25 727.697 1631.47 L 728.851 1633.52 C 725.875 1639.09 719.761 1637.1 714.4 1636.24 L 716.455 1629.97 z"/>
<path transform="translate(0,0)" fill="rgb(31,31,31)" d="M 821.189 1627.81 C 826.039 1630.65 829.965 1632.67 834.151 1636.46 C 829.889 1636.9 825.263 1637.94 821.514 1636.23 C 819.455 1633.05 820.172 1633.4 820.129 1628.87 L 821.189 1627.81 z"/>
<path transform="translate(0,0)" fill="rgb(204,51,46)" d="M 778.177 1636.68 C 790.647 1636.14 807.007 1636.79 820.078 1636.66 C 819.871 1650.63 819.834 1664.59 819.968 1678.56 C 806.169 1678.86 792.366 1678.88 778.567 1678.61 C 777.92 1664.7 778.137 1650.62 778.177 1636.68 z"/>
<path transform="translate(0,0)" fill="rgb(204,51,46)" d="M 1084.41 1636.53 C 1087.98 1636.35 1093.02 1635.61 1095.62 1637.51 C 1096.69 1646.84 1096.08 1667.85 1096.03 1678.06 L 1063.15 1678.18 C 1059.75 1678.23 1058.82 1678.13 1055.43 1677.67 C 1052.84 1674.8 1054.11 1643.24 1054.2 1636.95 L 1084.41 1636.53 z"/>
<path transform="translate(0,0)" fill="rgb(204,51,46)" d="M 1005.98 1636.87 C 1019.72 1636.88 1033.72 1636.76 1047.43 1636.98 C 1047.7 1650.67 1047.77 1664.37 1047.65 1678.06 L 1006.1 1678.1 C 1005.47 1667.26 1005.33 1647.54 1005.98 1636.87 z"/>
<path transform="translate(0,0)" fill="rgb(255,255,255)" d="M 1142.51 881.813 C 1145.63 880.94 1148.99 879.996 1150.71 877.505 C 1146.19 861.948 1155.92 864.802 1160.21 856.823 C 1165.31 847.34 1156.87 842.479 1171.19 832.654 C 1171.07 836.618 1171.09 842.696 1170.75 846.469 L 1169.55 851.876 C 1168.87 860.13 1167.59 865.024 1164.56 872.911 C 1164.21 874.363 1163.14 878.334 1162.99 879.596 C 1153.56 908.625 1145.04 942.392 1136.58 972.075 L 1073.72 1190.65 C 1062.9 1227.65 1051.57 1269.62 1039.28 1305.62 C 1029.08 1269.58 1016.11 1230.87 1005.25 1194.39 C 984.176 1122.64 963.51 1050.77 943.251 978.794 C 933.765 945.27 921.586 907.357 913.651 873.987 C 912.735 869.036 910.001 861.006 908.431 855.967 C 907.172 853.623 907.261 853.788 907.18 851.113 L 905.473 839.941 L 905.225 836.925 C 921.517 830.633 913.587 856.183 917.952 857.379 C 934.277 861.855 922.727 881.064 935.82 882.274 L 936.476 880.285 C 938.293 885.982 940.961 896.102 944.35 900.481 C 979.822 891.623 987.324 891.725 1020.2 871.251 C 1034.92 874.143 1044.53 873.347 1059.22 871.158 C 1087.6 887.669 1100.9 892.834 1132.96 899.134 C 1133.55 899.093 1135.85 898.54 1135.87 898.36 C 1136.41 893.979 1140.47 885.215 1142.51 881.813 z"/>
<path transform="translate(0,0)" fill="rgb(255,255,255)" d="M 944.35 900.481 C 979.822 891.623 987.324 891.725 1020.2 871.251 C 1034.92 874.143 1044.53 873.347 1059.22 871.158 C 1087.6 887.669 1100.9 892.834 1132.96 899.134 C 1132.16 900.815 1130.71 903.049 1129.48 904.317 C 1123.55 910.421 1125.24 914.175 1123.01 920.989 C 1120.3 922.785 1115.91 924.552 1113.43 926.421 C 1106.58 931.581 1115.3 940.526 1105.44 940.83 C 1096.66 941.1 1094.76 955.036 1091.24 958.151 C 1085.89 962.893 1072.77 964.54 1074.99 975.782 C 1070.89 979.117 1065.95 974.355 1059.75 981.748 C 1055.29 987.071 1056.83 989.089 1054.25 993.798 C 1051.28 994.121 1050.76 993.603 1049.22 995.258 C 1041.83 991.085 1038.68 990.385 1030.84 993.868 C 1029.13 992.763 1025.47 991.881 1021.76 989.483 C 1016.73 973.332 1010.48 979.288 1002.11 975.07 C 999.31 964.262 998.076 960.34 988.811 959.384 C 984.795 958.969 984.349 949.191 976.44 943.186 L 967.547 940.794 C 972.242 925.367 961.639 927.775 954.363 919.53 C 952.607 905.121 946.696 906.961 944.35 900.481 z"/>
<path transform="translate(0,0)" fill="rgb(215,172,79)" d="M 1142.51 881.813 C 1145.63 880.94 1148.99 879.996 1150.71 877.505 C 1146.19 861.948 1155.92 864.802 1160.21 856.823 C 1165.31 847.34 1156.87 842.479 1171.19 832.654 C 1171.07 836.618 1171.09 842.696 1170.75 846.469 L 1169.55 851.876 C 1168.87 860.13 1167.59 865.024 1164.56 872.911 C 1161.84 874.761 1154.79 878.908 1154.46 882.341 C 1153.56 891.529 1154.03 896.695 1144.18 899.592 C 1137.82 908.591 1145.91 914.187 1129.14 921.679 C 1123.07 924.389 1134.46 934.31 1114.48 941.624 C 1110.28 945.875 1112.52 951.595 1108.03 955.824 C 1101.7 961.788 1095.82 954.473 1096.17 966.181 C 1085.31 982.595 1080.94 970.953 1075.29 985.529 C 1073.83 989.302 1072.21 991.904 1068.46 993.476 C 1066.61 994.254 1057.96 996.115 1058.13 995.88 C 1053.57 1002.07 1046.79 1014.83 1043.63 1021.14 C 1036.18 1019.11 1034.69 1019.43 1030.77 1012.9 C 1029.13 1010.58 1027.59 1007.54 1026.19 1005 C 1022.75 1000.14 1024.91 998.149 1017.81 994.326 C 1001.12 995.486 1006 977.924 995.639 977.249 C 983.194 976.439 986.542 968.457 980.362 961.107 C 979.19 959.714 975.397 960.382 971.212 956.484 C 970.258 955.332 969.335 954.154 968.446 952.951 C 965.987 949.563 965.464 948.008 966.097 943.919 C 966.891 943.014 967.072 942.044 967.547 940.794 L 976.44 943.186 C 984.349 949.191 984.795 958.969 988.811 959.384 C 998.076 960.34 999.31 964.262 1002.11 975.07 C 1010.48 979.288 1016.73 973.332 1021.76 989.483 C 1025.47 991.881 1029.13 992.763 1030.84 993.868 C 1038.68 990.385 1041.83 991.085 1049.22 995.258 C 1050.76 993.603 1051.28 994.121 1054.25 993.798 C 1056.83 989.089 1055.29 987.071 1059.75 981.748 C 1065.95 974.355 1070.89 979.117 1074.99 975.782 C 1072.77 964.54 1085.89 962.893 1091.24 958.151 C 1094.76 955.036 1096.66 941.1 1105.44 940.83 C 1115.3 940.526 1106.58 931.581 1113.43 926.421 C 1115.91 924.552 1120.3 922.785 1123.01 920.989 C 1125.24 914.175 1123.55 910.421 1129.48 904.317 C 1130.71 903.049 1132.16 900.815 1132.96 899.134 C 1133.55 899.093 1135.85 898.54 1135.87 898.36 C 1136.41 893.979 1140.47 885.215 1142.51 881.813 z"/>
<path transform="translate(0,0)" fill="rgb(0,0,0)" d="M 1026.19 1005 L 1028.53 1003.22 C 1032.28 1003.75 1041.56 1004.71 1044.31 1005.92 L 1045.09 1007.76 C 1042.94 1010.76 1042.74 1010.64 1039.64 1012.38 C 1035.52 1012.28 1034.7 1011.97 1030.77 1012.9 C 1029.13 1010.58 1027.59 1007.54 1026.19 1005 z"/>
<path transform="translate(0,0)" fill="rgb(0,0,0)" d="M 1030.84 993.868 C 1038.68 990.385 1041.83 991.085 1049.22 995.258 C 1046.3 1000.96 1038.85 1001.04 1033.22 999.719 C 1030.58 997.353 1031.4 998.339 1030.84 993.868 z"/>
<path transform="translate(0,0)" fill="rgb(215,172,79)" d="M 967.547 940.794 L 976.44 943.186 L 974.461 944.766 C 971.132 948.092 971.899 946.203 971.421 950.323 C 972.49 952.413 973.226 953.955 974.502 955.947 L 971.212 956.484 C 970.258 955.332 969.335 954.154 968.446 952.951 C 965.987 949.563 965.464 948.008 966.097 943.919 C 966.891 943.014 967.072 942.044 967.547 940.794 z"/>
<path transform="translate(0,0)" fill="rgb(255,255,255)" d="M 974.502 955.947 C 973.226 953.955 972.49 952.413 971.421 950.323 C 971.899 946.203 971.132 948.092 974.461 944.766 C 977.125 947.382 979.587 949.055 980.22 952.576 C 978.677 954.656 977.435 955.394 974.502 955.947 z"/>
<path transform="translate(0,0)" fill="rgb(255,255,255)" d="M 1169.55 851.876 L 1165.98 850.691 C 1163.66 847.525 1164.32 849.295 1164.29 845.071 C 1166.21 841.617 1164.86 842.723 1168.05 841.217 L 1169.88 842.036 L 1170.75 846.469 L 1169.55 851.876 z"/>
<path transform="translate(0,0)" fill="rgb(255,255,255)" d="M 1120.1 924.512 C 1123.79 927.314 1123.49 926.186 1124.54 929.811 C 1123.69 933.388 1120.87 935.672 1118.26 938.392 C 1114.68 935.122 1115.7 937.001 1114.35 932.973 C 1115.15 929.156 1117.4 927.432 1120.1 924.512 z"/>
<path transform="translate(0,0)" fill="rgb(255,255,255)" d="M 1066.8 980.427 C 1070.33 981.778 1070.67 981.909 1071.91 984.983 C 1070.99 988.416 1068.71 989.921 1066.05 992.417 C 1062.57 991.99 1061.87 991.45 1060.96 988.451 C 1062.1 984.462 1063.71 983.479 1066.8 980.427 z"/>
<path transform="translate(0,0)" fill="rgb(255,255,255)" d="M 1158.74 861.705 C 1164.97 866.695 1161.68 871.572 1157.15 876.043 C 1154.6 874.055 1153.56 873.653 1152.72 870.545 C 1153.28 866.764 1156.06 864.562 1158.74 861.705 z"/>
<path transform="translate(0,0)" fill="rgb(255,255,255)" d="M 1086.94 963.097 C 1089.29 964.42 1089.43 964.214 1090.58 966.581 C 1089.96 970.246 1086.54 973.008 1083.84 975.836 C 1080.59 972.837 1080.82 973.906 1079.71 970.218 C 1080.92 966.914 1083.99 965.259 1086.94 963.097 z"/>
<path transform="translate(0,0)" fill="rgb(255,255,255)" d="M 1134.19 903.382 C 1136.78 904.886 1137.03 904.689 1138.37 907.263 C 1138.53 910.997 1136.29 913.021 1133.95 916.176 C 1131.61 914.592 1130.19 913.886 1128.55 911.553 C 1129.09 907.873 1131.3 906.575 1134.19 903.382 z"/>
<path transform="translate(0,0)" fill="rgb(255,255,255)" d="M 1103.86 944.485 C 1107.41 946.457 1106.95 945.514 1108.52 948.564 C 1107.7 952.182 1105.18 953.801 1102.36 956.421 C 1098.68 954.783 1099.69 955.984 1097.62 953.257 C 1098 949.825 1101.31 947.156 1103.86 944.485 z"/>
<path transform="translate(0,0)" fill="rgb(255,255,255)" d="M 1146.1 882.691 C 1147.46 883.029 1148.64 883.447 1149.97 883.88 C 1151.41 888.302 1149.35 891.556 1147.62 896.415 C 1143.85 895.519 1143.93 895.38 1142.74 892.098 C 1143.05 887.968 1144.18 886.494 1146.1 882.691 z"/>
<path transform="translate(0,0)" fill="rgb(255,255,255)" d="M 991.16 963.305 C 993.77 964.756 996.317 966.732 997.818 969.33 C 998.023 973.066 998.218 971.669 995.156 975.372 C 991.793 974.384 990.282 972.943 988.727 969.897 C 988.607 965.605 988.251 967.271 991.16 963.305 z"/>
<path transform="translate(0,0)" fill="rgb(255,255,255)" d="M 1010.2 980.34 C 1013.39 981.484 1014.26 982.208 1016.41 984.746 C 1017.19 989.033 1017.29 987.303 1015.14 991.661 C 1011.9 989.939 1010.64 989.46 1007.94 986.863 C 1007.49 983.124 1007.58 984.368 1010.2 980.34 z"/>
<path transform="translate(0,0)" fill="rgb(215,172,79)" d="M 905.225 836.925 C 921.517 830.633 913.587 856.183 917.952 857.379 C 934.277 861.855 922.727 881.064 935.82 882.274 L 936.476 880.285 C 938.293 885.982 940.961 896.102 944.35 900.481 C 946.696 906.961 952.607 905.121 954.363 919.53 C 961.639 927.775 972.242 925.367 967.547 940.794 C 967.072 942.044 966.891 943.014 966.097 943.919 L 964.22 941.786 C 946.399 936.394 954.687 931.68 950.006 922.15 C 948.672 921.841 947.348 921.493 946.034 921.107 C 936.727 918.307 938.328 908.826 935.421 902.34 C 934.214 899.648 925.851 897.181 924.738 891.996 C 923.628 886.831 926.428 883.922 924.282 879.784 C 904.608 868.338 920.261 862.367 911.373 855.524 L 908.431 855.967 C 907.172 853.623 907.261 853.788 907.18 851.113 L 905.473 839.941 L 905.225 836.925 z"/>
<path transform="translate(0,0)" fill="rgb(255,255,255)" d="M 905.473 839.941 C 912.185 840.056 914.315 842.015 913.767 848.934 C 911.938 851.913 913.184 850.965 910.046 852.051 L 907.18 851.113 L 905.473 839.941 z"/>
<path transform="translate(0,0)" fill="rgb(255,255,255)" d="M 928.434 882.413 C 936.302 887.372 937.477 888.142 935.425 897.659 C 927.51 896.337 927.487 888.51 928.434 882.413 z"/>
<path transform="translate(0,0)" fill="rgb(255,255,255)" d="M 918.881 861.83 C 922.329 863.277 924.17 864.31 925.614 867.814 C 925.908 871.59 925.137 872.19 923.079 875.362 L 921.54 875.259 C 917.445 871.169 915.738 867.06 918.881 861.83 z"/>
<path transform="translate(0,0)" fill="rgb(255,255,255)" d="M 939.164 904.31 C 945.944 905.223 950.282 908.9 949.531 915.963 C 941.894 918.662 940.186 909.994 939.164 904.31 z"/>
<path transform="translate(0,0)" fill="rgb(255,255,255)" d="M 956.56 925.376 C 962.011 926.547 963.789 929.4 963.573 934.636 L 960.838 937.012 C 955.027 935.661 953.34 930.275 956.56 925.376 z"/>
<path transform="translate(0,0)" fill="rgb(206,145,74)" d="M 1098.6 1008.34 L 1100.1 1008.05 C 1104.37 1013.18 1096.07 1039.14 1105.41 1051.71 C 1104.01 1053.09 1084.17 1055.51 1081.77 1055.57 C 1075.61 1051.94 1073.08 1048.92 1072.18 1041.36 C 1071.53 1035.89 1073.58 1031.31 1077.09 1027.24 C 1081.61 1022.01 1085.94 1024.34 1091.86 1023.4 C 1093.2 1015.27 1091.51 1016.6 1089.15 1010.71 C 1092.31 1009.94 1095.46 1009.15 1098.6 1008.34 z"/>
<path transform="translate(0,0)" fill="rgb(255,255,255)" d="M 1086.17 1026.44 C 1088.26 1026.71 1088.28 1026.91 1090.29 1027.71 C 1095.44 1033.81 1094.62 1045.24 1089.52 1051.31 C 1078.2 1047.01 1080.17 1034.52 1086.17 1026.44 z"/>
<path transform="translate(0,0)" fill="rgb(206,145,74)" d="M 1023.88 1023.17 C 1044.65 1013.6 1057.31 1059.31 1022.91 1054.7 C 1009.53 1046.15 1009.69 1030.57 1023.88 1023.17 z"/>
<path transform="translate(0,0)" fill="rgb(255,255,255)" d="M 1024.75 1025.08 C 1039.47 1023.93 1040.33 1050.22 1028.14 1053.05 C 1020.32 1043.77 1020.48 1035.96 1024.75 1025.08 z"/>
<path transform="translate(0,0)" fill="rgb(206,145,74)" d="M 993.074 1054.19 C 985.926 1054.31 977.563 1054.67 970.561 1053.95 L 970.913 1052.74 L 976.637 1050.57 C 978.783 1047.04 978.512 1018.44 976.369 1014.32 C 973.661 1012.88 974.322 1013.66 972.601 1011.44 C 976.974 1010.28 988.45 1010.21 992.724 1011.53 L 992.488 1012.98 C 988.983 1013.38 990.107 1012.78 987.491 1014.62 C 986.457 1022.15 986.85 1041.51 987.421 1049.26 C 989.865 1051.72 989.799 1050.98 994.066 1051.69 L 993.074 1054.19 z"/>
<path transform="translate(0,0)" fill="rgb(206,145,74)" d="M 1058.08 1026.1 L 1059.67 1027.49 L 1060.89 1026.77 C 1064.17 1024.9 1065.75 1023.34 1068.79 1023.93 C 1070.39 1026.84 1070.12 1027.18 1070.1 1030.45 L 1069.02 1031.91 C 1064.06 1030.69 1063.84 1030.38 1058.97 1031.39 C 1059.26 1040.24 1056.2 1047.36 1063.48 1053.46 L 1063.39 1054.56 C 1056.83 1054.82 1054.33 1054.77 1047.81 1054.09 C 1046.15 1051.49 1051.65 1052.94 1051.38 1048.2 C 1051.09 1043.3 1052.79 1033.75 1049.22 1030.28 C 1047.45 1028.56 1047.16 1027.16 1046.52 1024.95 L 1047.54 1023.63 C 1051.4 1022.86 1055.37 1023.24 1058.08 1026.1 z"/>
<path transform="translate(0,0)" fill="rgb(0,0,0)" d="M 1035.38 1148.47 C 1040.47 1146.54 1046.17 1149.09 1048.13 1154.17 C 1050.09 1159.25 1047.58 1164.97 1042.5 1166.95 C 1037.39 1168.96 1031.62 1166.42 1029.65 1161.3 C 1027.67 1156.17 1030.24 1150.42 1035.38 1148.47 z"/>
<path transform="translate(0,0)" fill="rgb(215,172,79)" d="M 994.066 1051.69 C 1007.07 1049.9 1004.78 1048.1 1012.88 1039.08 C 1011.51 1044.14 1010.14 1049.66 1008.59 1054.61 C 1003.7 1054.47 997.89 1054.17 993.074 1054.19 L 994.066 1051.69 z"/>
<path transform="translate(0,0)" fill="rgb(255,255,255)" d="M 685.422 1457.78 C 688.888 1487.45 682.779 1521.42 685.567 1551.31 C 687.907 1559.03 695.243 1565.69 695.727 1573.99 C 697.362 1602.32 696.383 1630.81 697.674 1659.15 C 698.564 1678.69 700.727 1694.6 695.122 1713.65 C 692.091 1722.55 689.796 1731.23 687.333 1740.28 C 683.875 1754.77 680.498 1769.75 676.322 1784 L 674.473 1789.98 C 671.528 1803.38 667.227 1818.57 663.4 1831.85 C 661.312 1840.86 653.941 1873.73 649.924 1879.37 C 653.877 1843.21 653.743 1797.25 655.815 1759.78 C 661.374 1659.23 666.2 1556.84 685.422 1457.78 z"/>
<path transform="translate(0,0)" fill="rgb(255,255,255)" d="M 1347.95 1674.28 L 1348.19 1673.05 C 1350.87 1659.04 1353.04 1638.05 1353.54 1623.74 C 1354.6 1593.2 1356.81 1581.69 1373.02 1555.55 C 1377.65 1655.37 1382.57 1752.15 1384.94 1852.12 C 1381.71 1847.43 1380.42 1837.72 1379.3 1831.92 C 1376.47 1818.25 1373.55 1804.59 1370.53 1790.96 L 1369.14 1783.82 L 1359.81 1741.14 C 1354.71 1742.54 1349.82 1742.33 1344.51 1742.44 C 1345.1 1728.34 1342.67 1694.87 1346.37 1683.35 C 1347.67 1678.97 1347.7 1678.84 1347.95 1674.28 z"/>
<path transform="translate(0,0)" fill="rgb(120,44,35)" d="M 1344.51 1742.44 C 1345.1 1728.34 1342.67 1694.87 1346.37 1683.35 C 1350.59 1702.29 1354.88 1722.43 1359.81 1741.14 C 1354.71 1742.54 1349.82 1742.33 1344.51 1742.44 z"/>
<path transform="translate(0,0)" fill="rgb(120,44,35)" d="M 1279.71 1614.03 C 1290.27 1606.45 1311.74 1592.22 1323.12 1586.49 C 1327.16 1600.5 1329.74 1616.45 1333.68 1629.26 C 1326.73 1633.01 1291.79 1628.42 1281.16 1630.79 L 1280.89 1630.21 C 1281.19 1624.68 1281.48 1619.25 1279.71 1614.03 z"/>
<path transform="translate(0,0)" fill="rgb(19,54,36)" d="M 1281.06 1721.12 C 1297.82 1708.17 1328.94 1681.06 1344.6 1670.88 C 1342.34 1678.65 1290.79 1713.03 1284.23 1722.95 C 1283.27 1724.41 1283.66 1737.33 1283.97 1739.86 C 1291.44 1743.07 1304.23 1739.39 1310.01 1740.75 C 1311.99 1733.27 1311.51 1716.98 1311.51 1708.51 C 1315.67 1708.53 1339.8 1708.09 1342.24 1706.48 C 1344.16 1696.86 1341.23 1688.24 1344.99 1679.67 C 1345.58 1678.34 1345.93 1676.22 1346.22 1674.77 L 1347.95 1674.28 C 1347.7 1678.84 1347.67 1678.97 1346.37 1683.35 C 1342.67 1694.87 1345.1 1728.34 1344.51 1742.44 C 1323.38 1742.09 1302.19 1742.7 1280.96 1742.26 L 1281.06 1721.12 z"/>
<path transform="translate(0,0)" fill="rgb(31,31,31)" d="M 1152.98 1635.85 C 1157.72 1632.47 1160.6 1631.5 1165.92 1629.56 C 1175.29 1631.46 1187.85 1626.75 1193.26 1635.57 C 1184.8 1637.58 1161.51 1638.01 1152.98 1635.85 z"/>
<path transform="translate(0,0)" fill="rgb(123,42,37)" d="M 1244.2 1636.9 C 1250.13 1632.52 1252.42 1631.08 1258.97 1627.71 C 1265.17 1632.64 1272.3 1630.71 1280.89 1630.21 L 1281.16 1630.79 L 1281.13 1636.85 L 1280.99 1637.48 C 1275.32 1636.52 1251.13 1636.89 1244.2 1636.9 z"/>
<path transform="translate(0,0)" fill="rgb(204,51,46)" d="M 1279.71 1614.03 C 1281.48 1619.25 1281.19 1624.68 1280.89 1630.21 C 1272.3 1630.71 1265.17 1632.64 1258.97 1627.71 L 1279.71 1614.03 z"/>
<path transform="translate(0,0)" fill="rgb(19,54,36)" d="M 687.333 1740.28 C 689.796 1731.23 692.091 1722.55 695.122 1713.65 C 699.631 1724.94 693.831 1727.32 702.397 1741.03 C 698.381 1741.35 690.287 1742.41 687.333 1740.28 z"/>
<path transform="translate(0,0)" fill="rgb(120,44,35)" d="M 1186.9 1619.2 L 1195.82 1634.92 L 1193.26 1635.57 C 1187.85 1626.75 1175.29 1631.46 1165.92 1629.56 L 1186.9 1619.2 z"/>
<path transform="translate(0,0)" fill="rgb(204,51,46)" d="M 891.435 1618.87 C 897.863 1621.86 905.11 1625.04 911.266 1628.39 C 905.206 1630.1 892.462 1630.89 886.366 1629.16 L 891.435 1618.87 z"/>
<path transform="translate(0,0)" fill="rgb(31,31,31)" d="M 728.951 1712 C 722.796 1712.05 712.277 1712.5 706.671 1710.76 C 712.966 1709.62 722.523 1709.74 729.207 1709.61 L 728.951 1712 z"/>
<path transform="translate(0,0)" fill="rgb(193,191,192)" d="M 1260.3 1521.24 L 1284.61 1521.62 L 1284.69 1545.26 L 1260.54 1545.26 L 1260.3 1521.24 z"/>
<path transform="translate(0,0)" fill="rgb(193,191,192)" d="M 534.914 1795.06 L 558.672 1795 L 559.149 1818.86 L 535.286 1818.99 L 534.914 1795.06 z"/>
<path transform="translate(0,0)" fill="rgb(193,191,192)" d="M 765.005 1390.37 L 789.033 1390.13 L 788.891 1413.96 L 765.013 1414.02 L 765.005 1390.37 z"/>
<path transform="translate(0,0)" fill="rgb(193,191,192)" d="M 794.984 1521.11 L 819.11 1521.01 L 819.12 1544.99 L 795.57 1544.99 C 795.293 1537.03 795.098 1529.07 794.984 1521.11 z"/>
<path transform="translate(0,0)" fill="rgb(193,191,192)" d="M 1294.03 1390.11 C 1302.04 1390.07 1310.06 1390.17 1318.06 1390.41 L 1317.77 1413.92 L 1294.11 1414.22 L 1294.03 1390.11 z"/>
<path transform="translate(0,0)" fill="rgb(193,191,192)" d="M 1488.03 1725.11 L 1511.46 1725.66 L 1510.97 1749.56 C 1503.16 1749.62 1495.36 1749.61 1487.56 1749.53 L 1488.03 1725.11 z"/>
<path transform="translate(0,0)" fill="rgb(193,191,192)" d="M 534.512 1658.21 L 557.674 1658.23 L 557.547 1682.16 L 534.442 1682.26 C 534.188 1674.55 534.445 1665.99 534.512 1658.21 z"/>
<path transform="translate(0,0)" fill="rgb(193,191,192)" d="M 1488.58 1658.22 L 1511.74 1658.09 L 1511.33 1681.9 C 1505.12 1682.33 1495.07 1682.07 1488.57 1682.11 L 1488.58 1658.22 z"/>
<path transform="translate(0,0)" fill="rgb(193,191,192)" d="M 1487.86 1794.77 L 1511.24 1795.02 L 1510.65 1818.8 C 1502.69 1818.85 1495 1818.54 1487.07 1818.24 L 1487.86 1794.77 z"/>
<path transform="translate(0,0)" fill="rgb(193,191,192)" d="M 534.448 1725.88 L 557.612 1725.69 C 558.162 1733.14 558.313 1741.41 558.613 1748.94 L 535.132 1749.21 C 534.563 1741.07 534.476 1734.05 534.448 1725.88 z"/>
<path transform="translate(0,0)" fill="rgb(193,191,192)" d="M 1036.74 1369.56 C 1042.57 1367.67 1048.83 1370.88 1050.69 1376.71 C 1052.56 1382.55 1049.32 1388.79 1043.48 1390.63 C 1037.67 1392.46 1031.48 1389.25 1029.62 1383.45 C 1027.77 1377.65 1030.95 1371.44 1036.74 1369.56 z"/>
<path transform="translate(0,0)" fill="rgb(193,191,192)" d="M 1036.55 1440.5 C 1040.26 1439.14 1044.4 1439.9 1047.39 1442.48 C 1050.37 1445.06 1051.72 1449.05 1050.92 1452.92 C 1050.12 1456.78 1047.28 1459.9 1043.52 1461.07 C 1037.89 1462.83 1031.88 1459.77 1029.99 1454.18 C 1028.1 1448.6 1031.01 1442.52 1036.55 1440.5 z"/>
<path transform="translate(0,0)" fill="rgb(193,191,192)" d="M 1037.93 1510.65 C 1043.77 1509.35 1049.55 1513.05 1050.81 1518.9 C 1052.07 1524.75 1048.33 1530.51 1042.48 1531.73 C 1036.68 1532.94 1030.99 1529.24 1029.74 1523.45 C 1028.49 1517.66 1032.15 1511.94 1037.93 1510.65 z"/>
<path transform="translate(0,0)" fill="rgb(241,179,146)" d="M 893.552 546.682 C 895.038 533.267 895.738 519.777 895.649 506.28 C 895.366 479.267 892.308 459.597 896.747 432.305 C 901.392 403.741 905.638 381.414 929.652 362.363 C 949.675 345.147 984.856 341.123 1010.3 343.389 C 1065.76 348.327 1083.4 418.107 1138.87 432.385 C 1154.67 436.454 1158.66 436.769 1175.19 437.845 C 1173.34 462.393 1176.42 469.173 1177.91 492.703 C 1178.96 509.385 1177.17 531.384 1177.74 548.949 C 1183.8 537.633 1198.42 506.067 1209.77 500.506 C 1211.31 499.748 1214.29 501.454 1215.77 502.342 C 1211.24 517.753 1205.68 602.639 1172.05 597.145 C 1171.04 596.981 1166.02 594.748 1164.97 594.291 L 1164.54 594.113 C 1162.04 603.975 1159.72 612.704 1156.64 622.372 C 1155.21 626.867 1149.7 643.029 1149.32 646.722 C 1129.86 673.053 1097.55 702.58 1066.36 713.562 C 1053.02 718.261 1020.61 718.269 1007.05 714.524 C 982.525 707.753 959.497 685.745 941.932 668.014 C 937.103 663.14 927.823 648.791 922.072 647.129 C 920.937 641.111 916.488 629.479 914.462 623.108 C 911.204 612.866 909.307 605.082 907.009 594.681 C 865.931 609.163 863.033 521.641 859.592 497.939 C 882.159 511.49 882.087 524.004 893.552 546.682 z"/>
<path transform="translate(0,0)" fill="rgb(221,153,123)" d="M 1045.72 602.153 C 1067.92 606.895 1071.96 614.335 1098.05 612.256 C 1085.08 618.473 1068.48 630.144 1056 634.32 C 1020.27 642.72 1004.96 631.763 975.086 614.249 C 992.62 613.423 1003.84 609.382 1020.19 602.93 L 1034.93 607.342 C 1038.55 605.745 1042.16 603.901 1045.72 602.153 z"/>
<path transform="translate(0,0)" fill="rgb(189,114,57)" d="M 960.131 439.38 C 976.105 437.357 998.45 440.755 1014.29 443.48 L 1012.28 461.644 C 992.661 458.542 980.676 455.755 960.479 455.298 C 940.446 457.136 931.38 461.855 914.553 472.808 C 923.098 449.082 936.343 441.905 960.131 439.38 z"/>
<path transform="translate(0,0)" fill="rgb(189,114,57)" d="M 1097.55 438.421 C 1128.4 436.728 1144.31 443.667 1157.04 472.942 C 1145.79 464.421 1141.16 461.898 1127.89 457.372 C 1105.25 452.597 1085.12 457.588 1062.7 461.563 C 1060.83 455.261 1059.68 450.141 1058.31 443.705 C 1073.06 440.094 1082.58 439.406 1097.55 438.421 z"/>
<path transform="translate(0,0)" fill="rgb(0,0,0)" d="M 963.818 478.351 C 980.952 477.598 990.617 485.013 1000.82 497.547 C 994.236 493.959 989.465 490.259 981.834 486.379 C 986.091 500.801 982.843 509.832 967.723 514.038 C 950.177 512.907 947.511 501.73 949.871 486.706 C 942.531 490.206 937.85 493.62 931.116 498.247 C 932.345 496.446 933.636 494.688 934.985 492.974 C 943.249 482.571 951.24 479.729 963.818 478.351 z"/>
<path transform="translate(0,0)" fill="rgb(0,0,0)" d="M 1100.62 479.176 C 1122.8 476.862 1131.7 482.053 1145.2 498.876 C 1141.16 495.992 1131.96 489.05 1127.33 488.337 C 1123.56 498.101 1131.03 499.514 1118.68 510.821 L 1117.73 511.673 C 1098.51 518.874 1088.66 504.995 1093.21 486.507 C 1086.41 490.014 1080.15 494.405 1073.79 498.663 C 1083.17 486.96 1086.3 483.995 1100.62 479.176 z"/>
<path transform="translate(0,0)" fill="rgb(221,153,123)" d="M 1013.61 465.669 C 1014.9 466.77 1014.78 466.808 1015.72 468.094 C 1033.11 491.946 1016.53 529.037 1009.9 557.763 C 1015.67 560.64 1026.86 566.845 1033.03 566.979 L 1042.67 567.12 L 1043.38 567.889 L 1039.67 570.367 C 1038.89 570.674 1038.11 570.969 1037.32 571.251 C 1027.59 574.666 1012.62 565.669 1002.81 561.048 C 1007.2 543.421 1013.1 526.381 1017.97 508.873 C 1022.99 490.82 1019.13 482.311 1013.61 465.669 z"/>
<path transform="translate(0,0)" fill="rgb(206,145,74)" d="M 950.103 291.304 C 956.257 268.965 965.309 253.733 985.913 241.651 C 1013.16 225.672 1057.85 224.85 1087.97 233.64 C 1135.58 247.534 1193.85 281.812 1219.88 325.695 C 1226.54 336.924 1225.79 349.718 1228.55 361.657 C 1230.33 369.373 1233.65 377.969 1235.76 385.779 C 1242.51 409.724 1242.27 435.1 1235.07 458.913 C 1230.65 473.737 1223.56 488.979 1215.77 502.342 C 1214.29 501.454 1211.31 499.748 1209.77 500.506 C 1198.42 506.067 1183.8 537.633 1177.74 548.949 C 1177.17 531.384 1178.96 509.385 1177.91 492.703 C 1176.42 469.173 1173.34 462.393 1175.19 437.845 C 1158.66 436.769 1154.67 436.454 1138.87 432.385 C 1083.4 418.107 1065.76 348.327 1010.3 343.389 C 984.856 341.123 949.675 345.147 929.652 362.363 C 905.638 381.414 901.392 403.741 896.747 432.305 C 892.308 459.597 895.366 479.267 895.649 506.28 C 895.738 519.777 895.038 533.267 893.552 546.682 C 882.087 524.004 882.159 511.49 859.592 497.939 C 846.401 469.29 846.713 459.902 841.408 430.177 C 831.588 375.15 846.663 323.724 899.042 296.932 C 915.098 289.064 932.007 289.322 950.103 291.304 z"/>
<path transform="translate(0,0)" fill="rgb(241,179,146)" d="M 922.072 647.129 C 927.823 648.791 937.103 663.14 941.932 668.014 C 959.497 685.745 982.525 707.753 1007.05 714.524 C 1020.61 718.269 1053.02 718.261 1066.36 713.562 C 1097.55 702.58 1129.86 673.053 1149.32 646.722 C 1149.72 652.548 1149.9 657.293 1149.91 663.132 C 1149.94 685.568 1149.64 708.572 1151.19 730.914 C 1143.29 743.302 1129.11 752.151 1118.37 761.705 C 1097.17 780.58 1061.49 804.917 1042.74 824.736 C 1040.11 824.966 1036.9 824.791 1034.21 824.744 C 1027.97 817.416 1013.5 806.333 1005.97 799.741 C 979.648 776.722 945.238 754.057 920.497 730.368 C 921.857 704.122 922.199 680.67 922.216 654.446 L 922.072 647.129 z"/>
<path transform="translate(0,0)" fill="rgb(221,153,123)" d="M 922.072 647.129 C 927.823 648.791 937.103 663.14 941.932 668.014 C 959.497 685.745 982.525 707.753 1007.05 714.524 C 1020.61 718.269 1053.02 718.261 1066.36 713.562 C 1097.55 702.58 1129.86 673.053 1149.32 646.722 C 1149.72 652.548 1149.9 657.293 1149.91 663.132 C 1149.82 663.453 1149.72 663.772 1149.63 664.095 C 1146.47 675.496 1102.1 715.453 1090.83 725.096 C 1069.77 743.123 1048.4 749.042 1020.68 746.681 C 1013.76 746.091 1007.58 744.549 1001.45 741.185 C 976.332 727.396 946.069 687.42 926.409 665.13 C 923.173 661.462 922.705 659.373 922.216 654.446 L 922.072 647.129 z"/>
<path transform="translate(0,0)" fill="rgb(0,0,0)" d="M 940.462 800.506 C 974.581 805.01 989.977 813.748 1019.83 827.103 C 1024.45 826.169 1029.51 825.482 1034.21 824.744 C 1036.9 824.791 1040.11 824.966 1042.74 824.736 C 1049.8 825.53 1052.51 826.082 1059.37 827.96 C 1086.9 813.673 1108.73 805.475 1139.92 800.4 C 1145.27 829.177 1147.11 852.64 1142.51 881.813 C 1140.47 885.215 1136.41 893.979 1135.87 898.36 C 1135.85 898.54 1133.55 899.093 1132.96 899.134 C 1100.9 892.834 1087.6 887.669 1059.22 871.158 C 1044.53 873.347 1034.92 874.143 1020.2 871.251 C 987.324 891.725 979.822 891.623 944.35 900.481 C 940.961 896.102 938.293 885.982 936.476 880.285 C 933.116 853.695 935.038 826.692 940.462 800.506 z"/>
<path transform="translate(0,0)" fill="rgb(241,179,146)" d="M 529.758 1944.14 C 550.085 1939.35 619.152 1926.82 638.68 1930.6 L 636.489 1941.02 L 634.568 1947.7 C 631.459 1959.76 627.838 1978.7 624.599 1989.32 C 631.396 1989.5 638.191 1989.77 644.981 1990.14 C 644.052 2002.35 642.58 2012.86 640.549 2024.94 C 639.501 2032.61 638.588 2040.3 637.808 2048 L 612.05 2048 L 594.251 2048 L 534.101 2048 C 518.251 2026.32 528.029 1972.31 529.758 1944.14 z"/>
<path transform="translate(0,0)" fill="rgb(24,41,32)" d="M 624.599 1989.32 C 631.396 1989.5 638.191 1989.77 644.981 1990.14 C 644.052 2002.35 642.58 2012.86 640.549 2024.94 C 634.41 2022.08 624.245 2021.77 617.407 2021.32 C 619.567 2010.6 621.965 1999.93 624.599 1989.32 z"/>
<path transform="translate(0,0)" fill="rgb(19,54,36)" d="M 617.407 2021.32 C 624.245 2021.77 634.41 2022.08 640.549 2024.94 C 639.501 2032.61 638.588 2040.3 637.808 2048 L 612.05 2048 L 612.019 2043.48 L 617.407 2021.32 z"/>
<path transform="translate(0,0)" fill="rgb(255,255,255)" d="M 600.692 2009.37 C 603.161 2018.65 607.382 2035.79 612.019 2043.48 L 612.05 2048 L 594.251 2048 C 594.524 2030.98 594.833 2025.31 600.692 2009.37 z"/>
<path transform="translate(0,0)" fill="rgb(241,179,146)" d="M 1400.17 1931.15 C 1431.63 1928.88 1471.65 1939.14 1503.17 1944.63 C 1505.93 1969.83 1509.58 2002.07 1508.66 2027.49 C 1508.44 2033.78 1505.2 2042.2 1502.32 2048 L 1441.99 2048 L 1427.13 2048 L 1424.12 2048 C 1419.62 2029.51 1415.6 2008.71 1411.56 1989.95 C 1410.03 1977.73 1405.43 1959.51 1402.43 1947.33 L 1401.22 1941.21 L 1400.17 1931.15 z"/>
<path transform="translate(0,0)" fill="rgb(255,255,255)" d="M 1437.36 2011.47 C 1442.5 2026.88 1442.58 2031.66 1441.99 2048 L 1427.13 2048 C 1430.04 2032.8 1431.24 2025.88 1437.36 2011.47 z"/>
<path transform="translate(0,0)" fill="rgb(31,31,31)" d="M 782.513 801.903 L 803.073 804.608 C 800.78 808.931 799.982 809.872 799.272 814.573 C 797.159 816.601 789.962 823.801 787.647 824.645 C 748.134 839.041 707.986 851.882 668.184 865.493 C 661.237 867.869 654.246 870.153 647.096 871.803 C 644.331 871.165 644.471 871.014 642.237 869.166 C 647.23 865.425 656.701 854.903 660.053 853.4 C 669.936 848.968 684.804 844.537 695.463 841.088 C 719.088 833.444 746.274 820.712 770.284 816.317 C 774.735 811.525 778.404 806.978 782.513 801.903 z"/>
<path transform="translate(0,0)" fill="rgb(31,31,31)" d="M 1263.13 806.459 C 1269.93 805.958 1276.72 805.378 1283.51 804.722 C 1286.87 808.978 1290.89 814.357 1294.39 818.349 C 1302.79 820.638 1308.81 821.217 1317.53 822.249 C 1339.08 838.364 1366.97 842.003 1391.73 851.345 C 1406.39 856.876 1411.98 863.206 1421.91 874.78 C 1415.31 874.078 1407.15 871.594 1400.82 869.587 C 1358.71 856.243 1317.68 839.837 1275.91 825.494 C 1271.81 824.088 1267.89 820.143 1266.15 816.181 C 1265.17 812.963 1264.2 809.634 1263.13 806.459 z"/>
</svg>