<svg version="1.1" xmlns="http://www.w3.org/2000/svg" style="display: block;" viewBox="0 0 2048 2048" width="1024" height="1024" preserveAspectRatio="none">
<path transform="translate(0,0)" fill="rgb(34,30,50)" d="M 990.864 496.277 C 997.969 491.623 1005.47 487.127 1012.72 482.66 C 1013.02 494.404 1013.47 502.76 1014.7 514.546 C 1021.39 522.084 1033.49 544.343 1038.89 554.119 C 1042.05 550.892 1050.95 540.354 1053.32 538.798 C 1056.86 544.955 1062.42 555.384 1066.19 560.957 C 1072.53 559.083 1094.73 557.696 1100.91 560.176 C 1104.11 557.045 1110.91 543.867 1113.2 539.617 C 1118.09 542.53 1122.36 548.89 1126.29 553.62 C 1133.29 543.324 1144.71 517.237 1152.02 511.055 C 1152.1 501.192 1152.18 492.789 1152.98 482.91 C 1161.06 487.616 1169.09 492.407 1177.07 497.282 C 1183.63 499.708 1183.36 500.874 1188.62 495.862 C 1197.9 495.196 1204.12 503.397 1213.89 505.517 C 1222.4 500.95 1230.89 505.883 1239.08 509.318 C 1243.52 511.216 1248.34 513.43 1252.9 514.921 L 1263.39 518.442 L 1278.12 524.333 C 1288.08 528.102 1295.92 531.172 1305.54 536.066 L 1307.25 549.218 C 1314.87 552.681 1321.58 560.712 1323.94 568.829 C 1347.27 649.143 1359.42 732.619 1372.52 815.155 C 1387.26 908.086 1390.96 1002.76 1388.29 1096.75 C 1388.13 1102.44 1387.94 1108.51 1387.17 1114.18 C 1356.79 1113.17 1323.86 1109.54 1292.9 1107.91 C 1292.49 1085.98 1292.2 1064.05 1292.02 1042.12 C 1283.95 1042.53 1275.73 1043.03 1267.66 1043.06 C 1270.04 1055.58 1271.84 1068.19 1273.07 1080.88 C 1276.65 1092.48 1277.47 1111.16 1280.54 1120.26 L 1271.41 1120.08 L 1261.88 1119.99 L 1243.88 1119.87 L 1227.09 1119.94 C 1209.16 1120.14 1191.24 1120.12 1173.31 1119.87 C 1173.27 1118.67 1173.66 1114.71 1173.82 1113.48 C 1175.95 1096.95 1171.17 1083.21 1164.6 1068.3 C 1157.8 1057.9 1151.42 1053.71 1151.86 1041.43 C 1152.14 1035.69 1151.97 1028.2 1152.01 1022.33 L 1152.01 1013.21 C 1140.13 1013.02 1127.9 1013.15 1115.99 1013.13 C 1112.13 1013.18 1095.34 1012.59 1093.45 1014.71 C 1091.91 1011.82 1090.97 1012.14 1087.42 1010.3 L 1080.21 1009.96 L 1073.25 1014.07 L 1054.7 1014.05 C 1054.28 1016.85 1053.5 1021.19 1053.33 1023.86 C 1046.11 1021.69 1022.23 1022.82 1012.94 1022.97 L 1012.93 1041.21 C 1014.98 1055.36 1010.34 1056.13 1002.75 1068.59 C 994.001 1089.4 992.38 1097.99 994.357 1120.19 C 975.567 1120.4 956.775 1120.35 937.986 1120.05 L 921.122 1120.07 C 915.536 1120.25 909.248 1120.1 903.601 1120.1 L 894.189 1120.05 C 889.506 1120 888.913 1120.71 886.349 1118.22 C 888.022 1105.85 890.053 1093.53 892.441 1081.27 C 893.832 1068.68 895.618 1055.78 897.217 1043.19 C 887.431 1042.92 878.053 1041.91 868.359 1040.67 C 871.297 1030.07 873.774 1015.94 876.01 1004.9 C 881.365 978.246 886.355 951.519 890.979 924.728 C 896.965 890.983 907.607 851.11 902.564 817.556 C 893.215 840.586 878.902 860.513 858.182 874.423 C 848.187 881.133 834.86 888.596 822.447 885.74 C 783.974 876.89 693.125 742.415 668.962 705.176 C 695.753 683.198 722.717 661.432 749.851 639.88 C 770.278 667.203 792.037 693.488 812.565 720.78 C 817.376 702.976 820.637 687.052 833.607 673.387 C 830.74 658.35 834.304 648.543 837.5 633.941 C 843.448 606.768 845.77 576.645 862.134 553.274 C 866.49 547.052 878.42 543.61 884.484 539.273 C 888.478 536.5 895.099 527.493 898.43 525.26 C 914.866 514.241 936.656 511.88 954.754 504.57 C 959.971 502.463 969.461 494.909 975.068 495.693 L 975.847 499.488 L 977.491 500.532 C 982.216 500.661 986.392 498.243 990.864 496.277 z"/>
<path transform="translate(0,0)" fill="rgb(54,56,82)" d="M 990.864 496.277 C 997.969 491.623 1005.47 487.127 1012.72 482.66 C 1013.02 494.404 1013.47 502.76 1014.7 514.546 C 1015.52 523.287 1018.15 530.248 1020.86 538.562 C 1017.96 542.681 1018.23 543.563 1018.41 549.256 C 1018.85 562.436 1020.56 575.872 1021.91 588.996 L 1028.25 650.248 C 1035.91 722.524 1044.85 796.789 1051.24 869.054 C 1012.3 778.379 975.905 686.628 942.113 593.908 C 951.112 585.462 965.625 574.798 975.806 566.013 C 967.527 559.821 954.429 547.335 946.347 540.037 C 954.522 532.015 988.492 505.683 991.958 498.516 L 990.864 496.277 z"/>
<path transform="translate(0,0)" fill="rgb(54,56,82)" d="M 1152.98 482.91 C 1161.06 487.616 1169.09 492.407 1177.07 497.282 C 1183.63 499.708 1183.36 500.874 1188.62 495.862 C 1197.9 495.196 1204.12 503.397 1213.89 505.517 C 1212.13 511.234 1210.44 517.355 1208.1 522.825 L 1206.9 523.875 C 1206.22 528.695 1205.84 531.063 1204.49 535.715 C 1203.36 539.023 1200.98 545.404 1200.46 548.588 L 1196.62 561.969 C 1205.98 564.115 1212.52 565.964 1221.65 568.941 C 1220.97 572.335 1219.62 578.136 1219.3 581.376 C 1209.29 587.209 1202.07 594.507 1199.14 606.115 L 1197.57 615.204 C 1198.81 626.247 1200.32 629.24 1205.1 638.794 C 1202.17 647.305 1199.21 656.411 1195.93 664.749 C 1185.88 661.871 1175.82 659.043 1165.74 656.267 C 1163.1 659.259 1160.93 665.35 1160.93 669.143 C 1159.62 672.651 1157.51 677.801 1156.82 681.317 C 1154.47 684.541 1153.09 691.015 1152.11 695.01 C 1148.44 705.266 1144.8 715.012 1141.99 725.555 C 1151.23 733.526 1158.88 739.467 1168.66 746.758 C 1160.2 758.41 1155.09 774.464 1149.05 787.666 C 1136.85 814.348 1125.79 844.977 1112.72 870.998 C 1119.78 817.675 1124.22 763.805 1130.42 710.343 C 1135.95 662.688 1143.57 614.704 1147.29 566.926 C 1147.9 559.124 1150.7 542.133 1146.34 536.015 C 1150.08 526.233 1151.03 521.381 1152.02 511.055 C 1152.1 501.192 1152.18 492.789 1152.98 482.91 z"/>
<path transform="translate(0,0)" fill="rgb(226,57,50)" d="M 1183.4 602.585 C 1188.74 603.683 1193.86 604.709 1199.14 606.115 L 1197.57 615.204 C 1198.81 626.247 1200.32 629.24 1205.1 638.794 C 1202.17 647.305 1199.21 656.411 1195.93 664.749 C 1185.88 661.871 1175.82 659.043 1165.74 656.267 C 1166.03 651.209 1177.61 619.79 1179.84 613.581 C 1180.99 609.905 1182.18 606.239 1183.4 602.585 z"/>
<path transform="translate(0,0)" fill="rgb(238,227,226)" d="M 1183.4 602.585 C 1188.74 603.683 1193.86 604.709 1199.14 606.115 L 1197.57 615.204 C 1191.76 615.132 1185.65 614.25 1179.84 613.581 C 1180.99 609.905 1182.18 606.239 1183.4 602.585 z"/>
<path transform="translate(0,0)" fill="rgb(226,57,50)" d="M 1196.62 561.969 C 1205.98 564.115 1212.52 565.964 1221.65 568.941 C 1220.97 572.335 1219.62 578.136 1219.3 581.376 C 1209.29 587.209 1202.07 594.507 1199.14 606.115 C 1193.86 604.709 1188.74 603.683 1183.4 602.585 C 1187.23 589.081 1192.72 575.834 1196.62 561.969 z"/>
<path transform="translate(0,0)" fill="rgb(34,30,50)" d="M 1177.07 497.282 C 1183.63 499.708 1183.36 500.874 1188.62 495.862 C 1197.9 495.196 1204.12 503.397 1213.89 505.517 C 1212.13 511.234 1210.44 517.355 1208.1 522.825 L 1206.9 523.875 C 1199.68 521.894 1178.08 505.249 1177.07 497.282 z"/>
<path transform="translate(0,0)" fill="rgb(54,56,82)" d="M 1066.19 560.957 C 1072.53 559.083 1094.73 557.696 1100.91 560.176 C 1100.42 566.877 1110.44 625.967 1113.54 631.318 C 1103.94 657.991 1092.84 689.547 1082.08 715.483 C 1074.97 691.086 1062.24 658.756 1053.55 633.856 C 1056.18 628.397 1067.96 567.21 1066.19 560.957 z"/>
<path transform="translate(0,0)" fill="rgb(200,214,227)" d="M 1219.3 581.376 C 1239.27 574.841 1255.68 576.892 1267.87 596.026 C 1272.67 607.148 1272.66 613.028 1272.17 625.127 C 1271.16 628.468 1270.18 631.951 1268.96 635.203 L 1267.34 636.954 C 1260.7 643.545 1257.46 646.91 1248.78 651.097 C 1235.65 654.683 1228.41 653.306 1216.41 648.052 C 1211.14 644.51 1209.59 643.067 1205.1 638.794 C 1200.32 629.24 1198.81 626.247 1197.57 615.204 L 1199.14 606.115 C 1202.07 594.507 1209.29 587.209 1219.3 581.376 z"/>
<path transform="translate(0,0)" fill="rgb(34,30,50)" d="M 1232.47 594.377 C 1240.07 593.177 1247.72 596.159 1252.51 602.182 C 1257.29 608.205 1258.46 616.336 1255.57 623.464 C 1252.68 630.592 1246.18 635.613 1238.55 636.607 C 1226.98 638.115 1216.35 630.045 1214.68 618.493 C 1213.02 606.942 1220.94 596.197 1232.47 594.377 z"/>
<path transform="translate(0,0)" fill="rgb(226,57,50)" d="M 983.132 1055.82 C 990.394 1060.15 995.842 1063.71 1002.75 1068.59 C 994.001 1089.4 992.38 1097.99 994.357 1120.19 C 975.567 1120.4 956.775 1120.35 937.986 1120.05 C 938.233 1098.9 938.206 1077.74 937.904 1056.6 C 949.658 1056.77 971.973 1057.45 983.132 1055.82 z"/>
<path transform="translate(0,0)" fill="rgb(226,57,50)" d="M 1182.15 1056.24 C 1196.4 1057.15 1212.53 1056.91 1226.96 1056.99 L 1227.09 1119.94 C 1209.16 1120.14 1191.24 1120.12 1173.31 1119.87 C 1173.27 1118.67 1173.66 1114.71 1173.82 1113.48 C 1175.95 1096.95 1171.17 1083.21 1164.6 1068.3 C 1171.22 1062.98 1174.82 1060.65 1182.15 1056.24 z"/>
<path transform="translate(0,0)" fill="rgb(131,39,33)" d="M 1080.31 952.062 C 1080.05 962.364 1078.51 1002.47 1080.21 1009.96 L 1073.25 1014.07 L 1054.7 1014.05 C 1054.28 1016.85 1053.5 1021.19 1053.33 1023.86 C 1046.11 1021.69 1022.23 1022.82 1012.94 1022.97 L 1013.06 1013.95 L 1013 1013.05 L 1012.92 986.348 C 1019.61 989.445 1033.21 993.942 1040.6 996.648 C 1044.21 993.037 1048.18 988.58 1051.71 984.792 C 1058.45 976.311 1072.55 960.067 1080.31 952.062 z"/>
<path transform="translate(0,0)" fill="rgb(226,57,50)" d="M 1051.71 984.792 C 1052.91 992.513 1052.73 1005.29 1052.86 1013.46 C 1039.58 1013.06 1026.29 1012.92 1013 1013.05 L 1012.92 986.348 C 1019.61 989.445 1033.21 993.942 1040.6 996.648 C 1044.21 993.037 1048.18 988.58 1051.71 984.792 z"/>
<path transform="translate(0,0)" fill="rgb(68,30,39)" d="M 1013.06 1013.95 C 1026.55 1013.99 1041.32 1014.35 1054.7 1014.05 C 1054.28 1016.85 1053.5 1021.19 1053.33 1023.86 C 1046.11 1021.69 1022.23 1022.82 1012.94 1022.97 L 1013.06 1013.95 z"/>
<path transform="translate(0,0)" fill="rgb(238,227,226)" d="M 1151.92 986.648 C 1155.13 984.949 1160.7 982.663 1164.18 981.094 C 1163.85 991.774 1163.76 1002.46 1163.91 1013.14 L 1163.92 1022.78 C 1173.03 1022.73 1206.24 1022.05 1212.82 1023.79 C 1215.92 1025.32 1219.29 1026.85 1222.25 1028.6 C 1216.88 1032.43 1210.15 1036.97 1205.08 1040.99 C 1197.3 1045.86 1189.65 1050.95 1182.15 1056.24 C 1174.82 1060.65 1171.22 1062.98 1164.6 1068.3 C 1157.8 1057.9 1151.42 1053.71 1151.86 1041.43 C 1152.14 1035.69 1151.97 1028.2 1152.01 1022.33 L 1152.01 1013.21 L 1151.92 986.648 z"/>
<path transform="translate(0,0)" fill="rgb(226,57,50)" d="M 1163.92 1022.78 C 1173.03 1022.73 1206.24 1022.05 1212.82 1023.79 C 1207.76 1028.02 1195.73 1038.01 1189.82 1040.41 C 1182.14 1039.78 1171.97 1040.23 1164.08 1040.35 L 1163.92 1022.78 z"/>
<path transform="translate(0,0)" fill="rgb(34,30,50)" d="M 1164.08 1040.35 C 1171.97 1040.23 1182.14 1039.78 1189.82 1040.41 C 1181.03 1047.32 1174.25 1052 1164.21 1056.83 L 1164.08 1040.35 z"/>
<path transform="translate(0,0)" fill="rgb(238,227,226)" d="M 1001.18 1013.17 L 1000.86 981.039 C 1004.79 982.735 1009.1 984.492 1012.92 986.348 L 1013 1013.05 L 1013.06 1013.95 L 1012.94 1022.97 L 1012.93 1041.21 C 1014.98 1055.36 1010.34 1056.13 1002.75 1068.59 C 995.842 1063.71 990.394 1060.15 983.132 1055.82 C 975.061 1050.32 966.888 1044.98 958.619 1039.79 C 954.75 1036.35 947.826 1031.47 943.511 1028.24 C 946.231 1026.51 949.857 1024.63 952.734 1023.03 C 968.411 1022.34 985.571 1022.7 1001.38 1022.75 L 1001.18 1013.17 z"/>
<path transform="translate(0,0)" fill="rgb(226,57,50)" d="M 1001.38 1022.75 C 1001.56 1029.07 1001.69 1034.41 1001.42 1040.75 C 992.895 1040.66 985.347 1040.45 976.826 1041.35 C 971.363 1039.24 957.209 1027.02 952.734 1023.03 C 968.411 1022.34 985.571 1022.7 1001.38 1022.75 z"/>
<path transform="translate(0,0)" fill="rgb(34,30,50)" d="M 976.826 1041.35 C 985.347 1040.45 992.895 1040.66 1001.42 1040.75 L 1001.2 1057.55 C 992.177 1052.24 985.159 1047.77 976.826 1041.35 z"/>
<path transform="translate(0,0)" fill="rgb(238,227,226)" d="M 1014.7 514.546 C 1021.39 522.084 1033.49 544.343 1038.89 554.119 C 1042.05 550.892 1050.95 540.354 1053.32 538.798 C 1056.86 544.955 1062.42 555.384 1066.19 560.957 C 1067.96 567.21 1056.18 628.397 1053.55 633.856 C 1042.98 601.979 1032.08 570.213 1020.86 538.562 C 1018.15 530.248 1015.52 523.287 1014.7 514.546 z"/>
<path transform="translate(0,0)" fill="rgb(238,227,226)" d="M 1126.29 553.62 C 1133.29 543.324 1144.71 517.237 1152.02 511.055 C 1151.03 521.381 1150.08 526.233 1146.34 536.015 C 1134.39 567.424 1123.45 599.208 1113.54 631.318 C 1110.44 625.967 1100.42 566.877 1100.91 560.176 C 1104.11 557.045 1110.91 543.867 1113.2 539.617 C 1118.09 542.53 1122.36 548.89 1126.29 553.62 z"/>
<path transform="translate(0,0)" fill="rgb(226,57,50)" d="M 1152.11 695.01 C 1162.17 697.956 1173.52 701.009 1183.34 704.365 C 1179.42 716.804 1174.07 735.494 1168.66 746.758 C 1158.88 739.467 1151.23 733.526 1141.99 725.555 C 1144.8 715.012 1148.44 705.266 1152.11 695.01 z"/>
<path transform="translate(0,0)" fill="rgb(131,39,33)" d="M 1086.19 950.913 C 1096.62 962.93 1106.97 975.021 1117.23 987.183 C 1114.96 991.887 1115.89 1007.17 1115.99 1013.13 C 1112.13 1013.18 1095.34 1012.59 1093.45 1014.71 C 1091.91 1011.82 1090.97 1012.14 1087.42 1010.3 C 1089.11 1000.99 1087.18 961.003 1086.19 950.913 z"/>
<path transform="translate(0,0)" fill="rgb(226,57,50)" d="M 1272.17 625.127 C 1278.06 626.616 1285.82 628.799 1291.66 629.771 C 1290.82 633.318 1289.81 637.173 1289.18 640.736 C 1285.96 656.469 1283.06 672.264 1280.46 688.11 C 1274 686.057 1266.44 684.159 1259.83 682.334 C 1262.26 667.829 1265.58 651.385 1267.34 636.954 L 1268.96 635.203 C 1270.18 631.951 1271.16 628.468 1272.17 625.127 z"/>
<path transform="translate(0,0)" fill="rgb(238,227,226)" d="M 1272.17 625.127 C 1278.06 626.616 1285.82 628.799 1291.66 629.771 C 1290.82 633.318 1289.81 637.173 1289.18 640.736 C 1281.41 637.749 1277.2 636.917 1268.96 635.203 C 1270.18 631.951 1271.16 628.468 1272.17 625.127 z"/>
<path transform="translate(0,0)" fill="rgb(226,57,50)" d="M 903.243 1056.01 L 921.035 1056.35 L 921.122 1120.07 C 915.536 1120.25 909.248 1120.1 903.601 1120.1 C 903.917 1098.7 903.133 1077.39 903.243 1056.01 z"/>
<path transform="translate(0,0)" fill="rgb(226,57,50)" d="M 1243.94 1056.37 L 1262 1056.61 C 1261.98 1077.48 1261.61 1099.2 1261.88 1119.99 L 1243.88 1119.87 L 1243.94 1056.37 z"/>
<path transform="translate(0,0)" fill="rgb(226,57,50)" d="M 1270.3 582.099 C 1279.6 584.929 1288.91 587.712 1298.24 590.446 L 1291.66 629.771 C 1285.82 628.799 1278.06 626.616 1272.17 625.127 C 1272.66 613.028 1272.67 607.148 1267.87 596.026 C 1269.52 591.759 1269.77 586.721 1270.3 582.099 z"/>
<path transform="translate(0,0)" fill="rgb(226,57,50)" d="M 1125.45 997.025 L 1151.92 986.648 L 1152.01 1013.21 C 1140.13 1013.02 1127.9 1013.15 1115.99 1013.13 C 1115.89 1007.17 1114.96 991.887 1117.23 987.183 C 1120.2 990.361 1122.73 993.632 1125.45 997.025 z"/>
<path transform="translate(0,0)" fill="rgb(226,57,50)" d="M 1216.41 648.052 C 1228.41 653.306 1235.65 654.683 1248.78 651.097 C 1247.71 661.67 1246.53 667.82 1243.95 678.107 C 1232.68 674.805 1221.43 671.419 1210.21 667.949 C 1212.73 660.836 1214.74 655.384 1216.41 648.052 z"/>
<path transform="translate(0,0)" fill="rgb(226,57,50)" d="M 1213.89 505.517 C 1222.4 500.95 1230.89 505.883 1239.08 509.318 C 1236.69 516.705 1235.18 523.174 1233.4 530.743 C 1227.48 529.087 1213 525.332 1208.1 522.825 C 1210.44 517.355 1212.13 511.234 1213.89 505.517 z"/>
<path transform="translate(0,0)" fill="rgb(226,57,50)" d="M 1164.18 981.094 C 1175.79 991.314 1185.34 1002.82 1197.38 1013.02 L 1163.91 1013.14 C 1163.76 1002.46 1163.85 991.774 1164.18 981.094 z"/>
<path transform="translate(0,0)" fill="rgb(226,57,50)" d="M 967.165 1013.03 C 971.698 1009.13 997.989 981.972 1000.86 981.039 L 1001.18 1013.17 L 967.165 1013.03 z"/>
<path transform="translate(0,0)" fill="rgb(226,57,50)" d="M 1278.12 524.333 C 1288.08 528.102 1295.92 531.172 1305.54 536.066 L 1307.25 549.218 C 1299.08 549.719 1284.37 545.199 1275.94 542.987 L 1278.12 524.333 z"/>
<path transform="translate(0,0)" fill="rgb(226,57,50)" d="M 1156.82 681.317 C 1157.51 677.801 1159.62 672.651 1160.93 669.143 C 1171.06 672.154 1181.23 675.072 1191.42 677.899 L 1187.65 690.118 C 1177.77 687.343 1166.49 684.459 1156.82 681.317 z"/>
<path transform="translate(0,0)" fill="rgb(226,57,50)" d="M 1204.49 535.715 C 1211.94 538.126 1221.71 540.987 1228.73 544.004 L 1224.99 555.928 L 1200.46 548.588 C 1200.98 545.404 1203.36 539.023 1204.49 535.715 z"/>
<path transform="translate(0,0)" fill="rgb(226,57,50)" d="M 1252.9 514.921 L 1263.39 518.442 C 1262.12 523.514 1261.23 532.3 1260.52 537.74 L 1247.85 535.096 L 1252.9 514.921 z"/>
<path transform="translate(0,0)" fill="rgb(226,57,50)" d="M 1273.07 1080.88 C 1276.65 1092.48 1277.47 1111.16 1280.54 1120.26 L 1271.41 1120.08 C 1272.07 1110.1 1271.14 1089.33 1273.07 1080.88 z"/>
<path transform="translate(0,0)" fill="rgb(226,57,50)" d="M 892.441 1081.27 C 895.567 1087.82 893.928 1111.25 894.189 1120.05 C 889.506 1120 888.913 1120.71 886.349 1118.22 C 888.022 1105.85 890.053 1093.53 892.441 1081.27 z"/>
<path transform="translate(0,0)" fill="rgb(226,57,50)" d="M 1222.25 1028.6 C 1226.23 1031.06 1225.48 1029.85 1227.34 1033.54 C 1227.14 1037.93 1227.91 1036.14 1225.47 1039.29 C 1219.54 1042 1211.92 1041.07 1205.08 1040.99 C 1210.15 1036.97 1216.88 1032.43 1222.25 1028.6 z"/>
<path transform="translate(0,0)" fill="rgb(226,57,50)" d="M 958.619 1039.79 C 952.11 1040.46 945.072 1042.17 939.726 1038.89 C 937.716 1035.94 937.914 1036.12 938.004 1032.51 C 940.248 1029.14 939.426 1030.22 943.511 1028.24 C 947.826 1031.47 954.75 1036.35 958.619 1039.79 z"/>
<path transform="translate(0,0)" fill="rgb(255,255,255)" d="M 1262.43 790.742 C 1265.39 793.37 1268.85 812.057 1269.92 816.811 C 1280.51 864.109 1286.77 911.498 1288.18 959.939 C 1288.58 973.639 1290.4 991.162 1289.7 1004.51 L 1288.6 1005.48 C 1282.56 971.157 1276.27 936.88 1269.75 902.649 C 1266.39 885.236 1260.38 859.389 1259.33 842.334 C 1258.55 829.66 1261.29 804.391 1262.43 790.742 z"/>
<path transform="translate(0,0)" fill="rgb(226,57,50)" d="M 1198.45 707.778 C 1210.97 711.823 1224.65 715.358 1237.41 718.867 C 1234.39 734.116 1231.37 751.328 1226.89 766.299 C 1226.17 768.721 1226.35 768.088 1224.11 769.063 C 1204.02 767.371 1199.81 766.78 1182.94 755.599 L 1198.45 707.778 z"/>
<path transform="translate(0,0)" fill="rgb(226,57,50)" d="M 1252.02 722.475 C 1259.14 724.686 1266.27 726.849 1273.41 728.964 C 1271.3 736.879 1267.72 762.764 1263.77 766.597 C 1255.5 768.468 1251.01 768.777 1242.58 769.28 C 1245.58 753.648 1248.72 738.046 1252.02 722.475 z"/>
<path transform="translate(0,0)" fill="rgb(226,57,50)" d="M 1206.16 681.666 C 1217.66 685.719 1230.38 688.851 1242.22 692.038 C 1241.2 696.194 1240.3 700.501 1239.36 704.687 C 1226.93 701.545 1214.85 697.945 1202.55 694.342 L 1206.16 681.666 z"/>
<path transform="translate(0,0)" fill="rgb(226,57,50)" d="M 1274.37 556.228 L 1302.94 563.948 C 1301.84 568.314 1301.25 572.387 1300.53 576.817 L 1272.48 569.232 C 1273 564.972 1273.74 560.495 1274.37 556.228 z"/>
<path transform="translate(0,0)" fill="rgb(238,227,226)" d="M 735.218 686.895 C 737.539 687.881 744.255 697.671 746.152 700.25 L 732.839 710.986 C 729.929 709.049 723.644 700.18 721.124 696.856 C 725.767 693.938 730.732 690.144 735.218 686.895 z"/>
<path transform="translate(0,0)" fill="rgb(238,227,226)" d="M 790.562 758.766 C 794.125 760.452 799.861 768.12 802.575 771.443 L 790.065 783.171 C 785.713 779.124 782.308 774.351 778.646 769.646 C 782.504 765.887 786.545 762.354 790.562 758.766 z"/>
<path transform="translate(0,0)" fill="rgb(238,227,226)" d="M 762.019 722.749 C 765.008 724.366 771.007 733.145 773.307 736.242 L 760.803 747.031 C 758.316 746.15 751.451 736.156 749.509 733.537 L 762.019 722.749 z"/>
<path transform="translate(0,0)" fill="rgb(226,57,50)" d="M 1256.98 696.263 L 1277.85 701.888 L 1275.63 715.848 C 1268.75 713.78 1261.69 711.355 1254.83 709.102 L 1256.98 696.263 z"/>
<path transform="translate(0,0)" fill="rgb(238,227,226)" d="M 1342.41 1050.86 C 1347.99 1050.72 1354.14 1050.86 1359.76 1050.89 L 1359.58 1068.05 L 1342.59 1067.98 C 1342.25 1062.51 1342.41 1056.39 1342.41 1050.86 z"/>
<path transform="translate(0,0)" fill="rgb(238,227,226)" d="M 1342.33 1003.35 C 1347.9 1003.18 1354.3 1003.35 1359.95 1003.38 L 1359.95 1020.27 L 1342.57 1020.13 C 1342.36 1014.69 1342.39 1008.83 1342.33 1003.35 z"/>
<path transform="translate(0,0)" fill="rgb(238,227,226)" d="M 1342.99 955.482 C 1348.1 955.266 1353.72 955.287 1358.88 955.211 C 1359.3 961.58 1359.79 965.816 1358.89 972.154 L 1342.56 972.125 C 1342.19 968.092 1341.1 958.907 1342.99 955.482 z"/>
<path transform="translate(0,0)" fill="rgb(255,255,255)" d="M 1077.3 797.238 L 1091.77 797.195 L 1091.82 811.135 L 1077.26 811.294 L 1077.3 797.238 z"/>
<path transform="translate(0,0)" fill="rgb(182,37,32)" d="M 1244.04 547.501 C 1248.06 548.152 1254.27 550.097 1258.37 551.242 C 1257.68 555.449 1257.14 559.797 1256.55 564.03 L 1240.11 560.091 L 1244.04 547.501 z"/>
<path transform="translate(0,0)" fill="rgb(255,255,255)" d="M 1077.58 909.244 C 1082 909.008 1087.47 909.234 1091.98 909.295 C 1091.95 913.876 1091.66 918.771 1091.46 923.373 L 1077.1 923.607 C 1077.07 918.856 1077.37 914 1077.58 909.244 z"/>
<path transform="translate(0,0)" fill="rgb(255,255,255)" d="M 1078.51 742.43 L 1092.42 742.006 C 1092.62 747.174 1092.33 751.612 1092.06 756.753 L 1078.08 756.879 C 1077.97 751.424 1077.77 747.886 1078.51 742.43 z"/>
<path transform="translate(0,0)" fill="rgb(255,255,255)" d="M 1082.01 854.34 C 1082.97 854.282 1083.94 854.224 1084.91 854.166 C 1093.78 853.508 1095.68 864.313 1087.32 868.876 C 1079.85 868.612 1076.76 868.265 1076.8 859.454 C 1079.23 855.071 1077.79 856.266 1082.01 854.34 z"/>
<path transform="translate(0,0)" fill="rgb(238,227,226)" d="M 1080.21 1009.96 L 1087.42 1010.3 C 1090.97 1012.14 1091.91 1011.82 1093.45 1014.71 C 1095.34 1012.59 1112.13 1013.18 1115.99 1013.13 C 1127.9 1013.15 1140.13 1013.02 1152.01 1013.21 L 1152.01 1022.33 C 1151.97 1028.2 1152.14 1035.69 1151.86 1041.43 C 1151.42 1053.71 1157.8 1057.9 1164.6 1068.3 C 1171.17 1083.21 1175.95 1096.95 1173.82 1113.48 C 1173.66 1114.71 1173.27 1118.67 1173.31 1119.87 C 1173.99 1123.18 1175.19 1130.02 1176.15 1132.95 C 1192.42 1132.98 1211.21 1132.54 1227.26 1133.11 L 1226.88 1134.4 C 1227.92 1171.23 1226.97 1212.05 1227.04 1249.2 C 1226.8 1268.74 1226.84 1288.29 1227.18 1307.83 L 1241.79 1307.73 L 1307.57 1307.73 L 1308.54 1319.5 C 1312.31 1339.81 1315.07 1364.1 1318.23 1384.88 L 1320.66 1401.18 C 1321.53 1406.78 1322.32 1412.38 1323.04 1418 L 1324.65 1427.69 C 1325.92 1436.43 1327.54 1446.06 1328.46 1454.78 C 1310.43 1455.4 1290.45 1458.82 1272.05 1460.36 L 1261.68 1461.47 C 1257.03 1462.32 1248.6 1462.98 1243.79 1462.95 L 1227.81 1464.57 L 1225.17 1464.95 C 1218.87 1464.96 1206.28 1466.89 1199.63 1467.67 C 1187.72 1469.02 1175.8 1470.21 1163.87 1471.24 C 1163.8 1462.54 1163.74 1454.51 1163.16 1445.8 C 1162.77 1454.79 1165.07 1464.86 1161.03 1469.99 C 1157.82 1471.46 1155.78 1471.19 1152.26 1471.24 C 1145.29 1473.64 1115.77 1474.86 1106.8 1474.79 L 1102.18 1474.95 L 1087.94 1475.09 L 1079.08 1475.06 L 1065.27 1475.23 L 1052.69 1474.94 C 1041.67 1473.9 1023.17 1473.7 1012.97 1471.46 C 1009.43 1471.23 1007.64 1471.24 1004.16 1470.26 C 1002.04 1467.17 1002.52 1464.83 1002.17 1460.68 C 1001.99 1464.01 1002.09 1467.72 1000.98 1470.71 C 985.637 1472.85 956.638 1465.1 941.893 1465.55 L 937.236 1464.51 L 921.283 1463.14 C 914.681 1462.82 909.547 1462.22 902.982 1461.39 L 893.281 1460.03 C 886.677 1459.71 870.16 1460.02 866.097 1455.03 C 865.063 1453.76 865.696 1451.17 865.834 1449.15 L 835.455 1448.67 L 838.479 1427.01 L 840.367 1418.39 L 842.877 1401.27 C 843.864 1396.15 844.619 1390.63 845.429 1385.45 C 849.054 1364.46 851.572 1340.68 855.741 1320.3 L 856.736 1319.34 C 857.059 1315.23 857.417 1311.11 857.808 1307 C 858.35 1296.53 864.838 1262.22 866.864 1249.92 L 866.449 1248.08 C 868.321 1241.82 869.545 1229.86 870.459 1222.98 L 871.48 1216.33 C 872.391 1208.55 873.927 1199.79 875.112 1191.95 C 877.862 1172.15 881.121 1151.98 884.142 1132.18 L 893.965 1132.75 L 903.715 1132.92 L 921.202 1132.95 L 937.736 1133.07 L 991.69 1132.99 C 993.132 1128.27 993.573 1125.01 994.357 1120.19 C 992.38 1097.99 994.001 1089.4 1002.75 1068.59 C 1010.34 1056.13 1014.98 1055.36 1012.93 1041.21 L 1012.94 1022.97 C 1022.23 1022.82 1046.11 1021.69 1053.33 1023.86 C 1053.5 1021.19 1054.28 1016.85 1054.7 1014.05 L 1073.25 1014.07 L 1080.21 1009.96 z"/>
<path transform="translate(0,0)" fill="rgb(34,30,50)" d="M 1080.21 1009.96 L 1087.42 1010.3 C 1090.97 1012.14 1091.91 1011.82 1093.45 1014.71 C 1095.34 1012.59 1112.13 1013.18 1115.99 1013.13 C 1127.9 1013.15 1140.13 1013.02 1152.01 1013.21 L 1152.01 1022.33 C 1151.97 1028.2 1152.14 1035.69 1151.86 1041.43 C 1151.42 1053.71 1157.8 1057.9 1164.6 1068.3 C 1171.17 1083.21 1175.95 1096.95 1173.82 1113.48 C 1173.66 1114.71 1173.27 1118.67 1173.31 1119.87 C 1173.99 1123.18 1175.19 1130.02 1176.15 1132.95 C 1192.42 1132.98 1211.21 1132.54 1227.26 1133.11 L 1226.88 1134.4 C 1227.92 1171.23 1226.97 1212.05 1227.04 1249.2 C 1206.28 1248.4 1185.1 1250.06 1163.69 1248.92 L 1162.93 1243.81 L 1151.12 1253.36 C 1140.05 1260.27 1127.93 1265.33 1115.23 1268.34 C 1115.85 1281.62 1115.52 1294.7 1115.33 1307.98 L 1087.78 1307.93 L 1080.16 1307.97 L 1053.07 1307.96 C 1052.6 1294.99 1052.37 1281.58 1053.2 1268.63 C 1036.03 1263.87 1028.04 1260.43 1013.07 1250.88 C 1009.13 1247.51 1005.93 1244.4 1002.26 1240.79 C 998.112 1234.58 995.36 1229.76 991.766 1223.19 L 989.633 1217.33 C 972.604 1217.66 954.786 1218.11 937.77 1217.18 C 937.734 1208.87 937.917 1200.4 938.007 1192.08 C 938.155 1172.41 938.065 1152.74 937.736 1133.07 L 991.69 1132.99 C 993.132 1128.27 993.573 1125.01 994.357 1120.19 C 992.38 1097.99 994.001 1089.4 1002.75 1068.59 C 1010.34 1056.13 1014.98 1055.36 1012.93 1041.21 L 1012.94 1022.97 C 1022.23 1022.82 1046.11 1021.69 1053.33 1023.86 C 1053.5 1021.19 1054.28 1016.85 1054.7 1014.05 L 1073.25 1014.07 L 1080.21 1009.96 z"/>
<path transform="translate(0,0)" fill="rgb(246,231,202)" d="M 1033.67 1107.08 C 1026.07 1100.71 1043 1078.72 1048.55 1073.74 C 1059.54 1064.05 1073.95 1059.16 1088.58 1060.16 C 1102.42 1061.08 1114 1066.77 1123.06 1077.3 C 1128.59 1083.72 1136.13 1096.99 1136.1 1105.53 C 1134.79 1106.96 1135.45 1106.66 1134.5 1106.99 C 1137.03 1109.51 1137.39 1110.39 1138.9 1113.51 C 1143.95 1115.94 1153.86 1113.46 1159.42 1114.34 C 1164.17 1141.44 1172.85 1172.66 1169.08 1199.77 C 1160.23 1263.55 1065.67 1272.56 1022.79 1240.23 C 1009.2 1229.85 1000.28 1214.51 997.974 1197.57 C 994.789 1174.57 1004.09 1138.49 1008.48 1114.92 C 1021.16 1117.25 1026.48 1117.41 1033.67 1107.08 z"/>
<path transform="translate(0,0)" fill="rgb(34,30,50)" d="M 1033.67 1107.08 C 1026.07 1100.71 1043 1078.72 1048.55 1073.74 C 1059.54 1064.05 1073.95 1059.16 1088.58 1060.16 C 1102.42 1061.08 1114 1066.77 1123.06 1077.3 C 1128.59 1083.72 1136.13 1096.99 1136.1 1105.53 C 1134.79 1106.96 1135.45 1106.66 1134.5 1106.99 C 1128.83 1116.81 1131.2 1147.63 1131.53 1160.56 C 1141.3 1167.19 1143.18 1169.67 1143.08 1181.48 C 1136.2 1184.08 1124.07 1183.2 1116.51 1182.99 C 1114.76 1170.81 1117.03 1167.56 1126.98 1160.35 L 1127.11 1111.77 C 1110.93 1118.43 1103.35 1121.37 1085.96 1125.19 C 1086.02 1144.27 1085.75 1164.37 1086.19 1183.36 C 1091.47 1186.96 1092.53 1187.85 1096.85 1192.56 L 1097.55 1206.03 C 1088.35 1206.56 1079.99 1206.24 1070.82 1205.98 C 1069.68 1192.21 1071.12 1191.94 1081.14 1182.53 C 1082.42 1166.79 1081.74 1141.53 1081.8 1125.1 C 1072.94 1123.29 1065.91 1121.76 1057.42 1118.58 C 1051.98 1116.54 1046.32 1113.78 1040.86 1112.26 L 1039.31 1110.66 C 1037.52 1112.07 1037.96 1113.88 1037.54 1116.98 C 1037.1 1111.16 1037.36 1110.89 1033.67 1107.08 z"/>
<path transform="translate(0,0)" fill="rgb(214,200,174)" d="M 1025.05 1182.89 C 1033.93 1182.99 1043.54 1183.31 1052.34 1182.62 C 1051.89 1191.15 1053.91 1219.64 1050.29 1223.86 C 1044.43 1226.07 1032.92 1225.86 1028.71 1220.64 C 1022.36 1212.76 1024.88 1193.19 1025.05 1182.89 z"/>
<path transform="translate(0,0)" fill="rgb(214,200,174)" d="M 1116.51 1182.99 C 1124.07 1183.2 1136.2 1184.08 1143.08 1181.48 C 1143.59 1195.57 1143.48 1209.66 1142.77 1223.73 C 1133.51 1224.11 1126.6 1224.38 1117.28 1223.79 C 1116.55 1210.03 1117.26 1196.2 1116.51 1182.99 z"/>
<path transform="translate(0,0)" fill="rgb(214,200,174)" d="M 1070.82 1205.98 C 1079.99 1206.24 1088.35 1206.56 1097.55 1206.03 C 1098.26 1216.55 1099.23 1241.76 1091.31 1246.61 C 1066.78 1261.62 1069.97 1213.76 1070.82 1205.98 z"/>
<path transform="translate(0,0)" fill="rgb(34,30,50)" d="M 1037.54 1116.98 C 1037.96 1113.88 1037.52 1112.07 1039.31 1110.66 L 1040.86 1112.26 L 1041.05 1160.8 C 1051.97 1167.41 1052.54 1169.97 1052.34 1182.62 C 1043.54 1183.31 1033.93 1182.99 1025.05 1182.89 C 1024.71 1170.59 1025.82 1167.2 1036.89 1160.92 C 1036.85 1151.32 1036.28 1125.37 1037.54 1116.98 z"/>
<path transform="translate(0,0)" fill="rgb(200,214,227)" d="M 1080.21 1009.96 L 1087.42 1010.3 C 1090.97 1012.14 1091.91 1011.82 1093.45 1014.71 L 1094.08 1029.09 C 1116.79 1034.17 1141.24 1044.32 1154.4 1065.47 C 1158.03 1071.31 1174.37 1103.92 1167.28 1112.66 C 1166.73 1113.34 1160.97 1114.11 1159.42 1114.34 C 1153.86 1113.46 1143.95 1115.94 1138.9 1113.51 C 1137.39 1110.39 1137.03 1109.51 1134.5 1106.99 C 1135.45 1106.66 1134.79 1106.96 1136.1 1105.53 C 1136.13 1096.99 1128.59 1083.72 1123.06 1077.3 C 1114 1066.77 1102.42 1061.08 1088.58 1060.16 C 1073.95 1059.16 1059.54 1064.05 1048.55 1073.74 C 1043 1078.72 1026.07 1100.71 1033.67 1107.08 C 1026.48 1117.41 1021.16 1117.25 1008.48 1114.92 C 1003.32 1112.77 1003.31 1115.84 999.265 1110.6 C 997.285 1102.44 1005.39 1077.72 1010.66 1069.48 C 1026.41 1044.86 1045.97 1035.9 1072.71 1028.84 C 1072.74 1024 1073.04 1018.92 1073.25 1014.07 L 1080.21 1009.96 z"/>
<path transform="translate(0,0)" fill="rgb(131,39,33)" d="M 1176.15 1132.95 C 1192.42 1132.98 1211.21 1132.54 1227.26 1133.11 L 1226.88 1134.4 C 1227.92 1171.23 1226.97 1212.05 1227.04 1249.2 C 1206.28 1248.4 1185.1 1250.06 1163.69 1248.92 L 1162.93 1243.81 C 1168.54 1238.01 1172.6 1229.44 1176.29 1222.26 L 1178.04 1217.93 C 1181.48 1208.9 1182.56 1201.87 1184.13 1192.37 C 1184.26 1167.28 1181.83 1157 1176.15 1132.95 z"/>
<path transform="translate(0,0)" fill="rgb(226,57,50)" d="M 1176.15 1132.95 C 1192.42 1132.98 1211.21 1132.54 1227.26 1133.11 L 1226.88 1134.4 C 1225.16 1144.27 1226.03 1180.04 1226.15 1192.1 C 1213.19 1192.26 1196.84 1192.91 1184.13 1192.37 C 1184.26 1167.28 1181.83 1157 1176.15 1132.95 z"/>
<path transform="translate(0,0)" fill="rgb(226,57,50)" d="M 1178.04 1217.93 C 1190.71 1217.9 1210.5 1217.68 1223.97 1217.5 C 1224.6 1218.02 1225.23 1218.53 1225.86 1219.04 C 1226.34 1222.81 1226.93 1221.5 1225.27 1223.73 C 1217.81 1224.54 1185.26 1224.48 1177.62 1223.63 L 1176.29 1222.26 L 1178.04 1217.93 z"/>
<path transform="translate(0,0)" fill="rgb(226,57,50)" d="M 937.736 1133.07 L 991.69 1132.99 C 987.883 1148.94 984.468 1164.32 983.856 1180.84 C 984.061 1194.08 985.017 1204.71 989.633 1217.33 C 972.604 1217.66 954.786 1218.11 937.77 1217.18 C 937.734 1208.87 937.917 1200.4 938.007 1192.08 C 938.155 1172.41 938.065 1152.74 937.736 1133.07 z"/>
<path transform="translate(0,0)" fill="rgb(131,39,33)" d="M 983.856 1180.84 C 984.061 1194.08 985.017 1204.71 989.633 1217.33 C 972.604 1217.66 954.786 1218.11 937.77 1217.18 C 937.734 1208.87 937.917 1200.4 938.007 1192.08 C 953.08 1192.29 968.156 1192.28 983.229 1192.03 C 983.099 1187.31 983.215 1185.52 983.856 1180.84 z"/>
<path transform="translate(0,0)" fill="rgb(131,39,33)" d="M 1053.2 1268.63 C 1062.85 1270.84 1071.25 1270.86 1080.82 1272.24 C 1080.87 1284.15 1080.65 1296.06 1080.16 1307.97 L 1053.07 1307.96 C 1052.6 1294.99 1052.37 1281.58 1053.2 1268.63 z"/>
<path transform="translate(0,0)" fill="rgb(131,39,33)" d="M 1088.11 1272.18 C 1097.23 1271.98 1106.35 1270.27 1115.23 1268.34 C 1115.85 1281.62 1115.52 1294.7 1115.33 1307.98 L 1087.78 1307.93 C 1088.4 1297.69 1088.04 1282.75 1088.11 1272.18 z"/>
<path transform="translate(0,0)" fill="rgb(226,57,50)" d="M 1012.94 1022.97 C 1022.23 1022.82 1046.11 1021.69 1053.33 1023.86 L 1054.1 1024.64 C 1046.59 1030.99 1024.01 1040.84 1012.93 1041.21 L 1012.94 1022.97 z"/>
<path transform="translate(0,0)" fill="rgb(226,57,50)" d="M 1110.45 1022.65 C 1123.32 1021.39 1138.96 1022 1152.01 1022.33 C 1151.97 1028.2 1152.14 1035.69 1151.86 1041.43 C 1138.9 1040.16 1120.96 1030.04 1110.45 1022.65 z"/>
<path transform="translate(0,0)" fill="rgb(34,30,50)" d="M 856.736 1319.34 C 868.782 1319.39 881.864 1319.17 893.812 1319.87 L 903.733 1319.97 L 920.995 1320 L 937.535 1320 C 937.879 1341.81 938.02 1363.61 937.959 1385.41 C 953.409 1385.34 987.95 1384.25 1001.96 1385.53 L 1002.03 1401.96 L 1002.13 1418.85 L 1002.14 1427.83 L 1002.17 1460.68 C 1001.99 1464.01 1002.09 1467.72 1000.98 1470.71 C 985.637 1472.85 956.638 1465.1 941.893 1465.55 L 937.236 1464.51 L 921.283 1463.14 C 914.681 1462.82 909.547 1462.22 902.982 1461.39 L 893.281 1460.03 C 886.677 1459.71 870.16 1460.02 866.097 1455.03 C 865.063 1453.76 865.696 1451.17 865.834 1449.15 L 835.455 1448.67 L 838.479 1427.01 L 840.367 1418.39 L 842.877 1401.27 C 843.864 1396.15 844.619 1390.63 845.429 1385.45 C 849.054 1364.46 851.572 1340.68 855.741 1320.3 L 856.736 1319.34 z"/>
<path transform="translate(0,0)" fill="rgb(226,57,50)" d="M 938.947 1418.21 C 960.035 1419.16 981.258 1418.17 1002.13 1418.85 L 1002.14 1427.83 L 1002.17 1460.68 C 1001.99 1464.01 1002.09 1467.72 1000.98 1470.71 C 985.637 1472.85 956.638 1465.1 941.893 1465.55 L 937.236 1464.51 C 938.522 1461.66 938.283 1432.78 938.327 1427.55 L 941.673 1426.54 L 941.309 1425.82 C 941.565 1423.36 940.009 1420.66 938.947 1418.21 z"/>
<path transform="translate(0,0)" fill="rgb(68,30,39)" d="M 938.947 1418.21 C 960.035 1419.16 981.258 1418.17 1002.13 1418.85 L 1002.14 1427.83 C 982.547 1427.7 957.26 1428.36 938.327 1427.55 L 941.673 1426.54 L 941.309 1425.82 C 941.565 1423.36 940.009 1420.66 938.947 1418.21 z"/>
<path transform="translate(0,0)" fill="rgb(182,37,32)" d="M 856.736 1319.34 C 868.782 1319.39 881.864 1319.17 893.812 1319.87 C 892.664 1340.64 893.359 1364.52 893.202 1385.57 C 885.871 1386.6 854.532 1385.6 845.429 1385.45 C 849.054 1364.46 851.572 1340.68 855.741 1320.3 L 856.736 1319.34 z"/>
<path transform="translate(0,0)" fill="rgb(226,57,50)" d="M 856.736 1319.34 C 868.782 1319.39 881.864 1319.17 893.812 1319.87 C 892.664 1340.64 893.359 1364.52 893.202 1385.57 C 887.801 1384.66 878.702 1384.89 872.938 1384.86 C 873.17 1368.39 877.421 1337.45 879.424 1320.21 L 855.741 1320.3 L 856.736 1319.34 z"/>
<path transform="translate(0,0)" fill="rgb(226,57,50)" d="M 903.733 1319.97 L 920.995 1320 L 921.007 1385.91 L 903.734 1385.93 C 903.254 1364.38 903.925 1341.74 903.733 1319.97 z"/>
<path transform="translate(0,0)" fill="rgb(226,57,50)" d="M 1002.03 1401.96 L 1002.13 1418.85 C 981.258 1418.17 960.035 1419.16 938.947 1418.21 C 937.596 1413.55 937.958 1407.01 937.933 1401.99 L 1002.03 1401.96 z"/>
<path transform="translate(0,0)" fill="rgb(131,39,33)" d="M 842.877 1401.27 C 851.568 1401.5 860.507 1401.62 869.169 1402.04 L 893.233 1401.89 L 893.346 1418.41 C 886.693 1419.83 849.579 1418.6 840.367 1418.39 L 842.877 1401.27 z"/>
<path transform="translate(0,0)" fill="rgb(226,57,50)" d="M 869.169 1402.04 L 893.233 1401.89 L 893.346 1418.41 C 888.038 1417.63 874.163 1417.98 868.209 1417.98 L 869.169 1402.04 z"/>
<path transform="translate(0,0)" fill="rgb(226,57,50)" d="M 878.195 1427.84 L 893.64 1427.84 C 893.376 1438.57 893.256 1449.3 893.281 1460.03 C 886.677 1459.71 870.16 1460.02 866.097 1455.03 C 865.063 1453.76 865.696 1451.17 865.834 1449.15 C 868.188 1441.23 865.269 1435.58 868.659 1429.79 C 872.708 1427.24 872.633 1428.1 878.195 1427.84 z"/>
<path transform="translate(0,0)" fill="rgb(182,37,32)" d="M 838.479 1427.01 C 850.662 1427.07 866.364 1426.8 878.195 1427.84 C 872.633 1428.1 872.708 1427.24 868.659 1429.79 C 865.269 1435.58 868.188 1441.23 865.834 1449.15 L 835.455 1448.67 L 838.479 1427.01 z"/>
<path transform="translate(0,0)" fill="rgb(226,57,50)" d="M 903.787 1427.66 L 920.976 1427.91 L 921.283 1463.14 C 914.681 1462.82 909.547 1462.22 902.982 1461.39 C 904.473 1452.05 903.925 1437.48 903.787 1427.66 z"/>
<path transform="translate(0,0)" fill="rgb(226,57,50)" d="M 903.858 1401.73 L 920.954 1401.83 L 921.014 1418.29 L 903.913 1418.3 L 903.858 1401.73 z"/>
<path transform="translate(0,0)" fill="rgb(34,30,50)" d="M 1271.78 1320.02 C 1283.84 1319.84 1296.53 1319.44 1308.54 1319.5 C 1312.31 1339.81 1315.07 1364.1 1318.23 1384.88 L 1320.66 1401.18 C 1321.53 1406.78 1322.32 1412.38 1323.04 1418 L 1324.65 1427.69 C 1325.92 1436.43 1327.54 1446.06 1328.46 1454.78 C 1310.43 1455.4 1290.45 1458.82 1272.05 1460.36 L 1261.68 1461.47 C 1257.03 1462.32 1248.6 1462.98 1243.79 1462.95 L 1227.81 1464.57 L 1225.17 1464.95 C 1218.87 1464.96 1206.28 1466.89 1199.63 1467.67 C 1187.72 1469.02 1175.8 1470.21 1163.87 1471.24 C 1163.8 1462.54 1163.74 1454.51 1163.16 1445.8 C 1163.11 1428.66 1163.16 1411.52 1163.31 1394.39 L 1163.24 1385.86 C 1176.84 1384.59 1211.71 1385.58 1226.94 1385.52 L 1227.03 1319.95 L 1243.25 1319.92 C 1248.84 1319.89 1256.34 1319.65 1261.79 1319.95 L 1271.78 1320.02 z"/>
<path transform="translate(0,0)" fill="rgb(226,57,50)" d="M 1163.31 1394.39 C 1163.69 1398.12 1163.11 1399.07 1165.06 1401.49 C 1185.21 1402.4 1206.61 1401.25 1226.89 1401.53 L 1226.91 1418.01 C 1218.36 1418.01 1170.27 1417.46 1164.97 1418.81 C 1163.89 1422.49 1164.08 1422.68 1164.27 1426.39 C 1167.26 1429.01 1218.71 1427.72 1227.07 1427.91 C 1226.99 1433.77 1226.32 1460.52 1227.81 1464.57 L 1225.17 1464.95 C 1218.87 1464.96 1206.28 1466.89 1199.63 1467.67 C 1187.72 1469.02 1175.8 1470.21 1163.87 1471.24 C 1163.8 1462.54 1163.74 1454.51 1163.16 1445.8 C 1163.11 1428.66 1163.16 1411.52 1163.31 1394.39 z"/>
<path transform="translate(0,0)" fill="rgb(226,57,50)" d="M 1271.78 1320.02 C 1283.84 1319.84 1296.53 1319.44 1308.54 1319.5 C 1312.31 1339.81 1315.07 1364.1 1318.23 1384.88 C 1302.75 1385.12 1287.26 1385.23 1271.78 1385.2 C 1271.48 1363.72 1271.75 1341.53 1271.78 1320.02 z"/>
<path transform="translate(0,0)" fill="rgb(226,57,50)" d="M 1324.65 1427.69 C 1325.92 1436.43 1327.54 1446.06 1328.46 1454.78 C 1310.43 1455.4 1290.45 1458.82 1272.05 1460.36 L 1271.87 1427.85 C 1289.46 1427.95 1307.06 1427.9 1324.65 1427.69 z"/>
<path transform="translate(0,0)" fill="rgb(226,57,50)" d="M 1243.25 1319.92 C 1248.84 1319.89 1256.34 1319.65 1261.79 1319.95 C 1260.61 1339.53 1261.22 1365.54 1261.4 1385.57 L 1243.82 1385.44 C 1243.42 1363.6 1243.23 1341.76 1243.25 1319.92 z"/>
<path transform="translate(0,0)" fill="rgb(226,57,50)" d="M 1320.66 1401.18 C 1321.53 1406.78 1322.32 1412.38 1323.04 1418 L 1271.43 1418.44 L 1271.49 1401.83 C 1281.4 1401.71 1312.46 1402.75 1320.66 1401.18 z"/>
<path transform="translate(0,0)" fill="rgb(226,57,50)" d="M 1243.91 1427.91 L 1261.74 1427.92 C 1261.27 1438.23 1261.36 1451.26 1261.68 1461.47 C 1257.03 1462.32 1248.6 1462.98 1243.79 1462.95 L 1243.91 1427.91 z"/>
<path transform="translate(0,0)" fill="rgb(226,57,50)" d="M 1243.78 1401.85 L 1261.17 1401.84 L 1261.43 1418.08 L 1243.81 1418.18 C 1243.71 1412.82 1243.78 1407.23 1243.78 1401.85 z"/>
<path transform="translate(0,0)" fill="rgb(34,30,50)" d="M 1088.09 1319.97 L 1116.01 1319.88 C 1116.24 1341.6 1116.31 1363.32 1116.22 1385.04 C 1122.21 1384.97 1147.03 1384.21 1151.35 1385.84 L 1151.96 1386.05 L 1152.05 1401.85 L 1152 1418.21 L 1151.97 1427.18 L 1151.97 1428.13 C 1152.27 1442.5 1152.36 1456.87 1152.26 1471.24 C 1145.29 1473.64 1115.77 1474.86 1106.8 1474.79 L 1102.18 1474.95 L 1087.94 1475.09 L 1079.08 1475.06 L 1065.27 1475.23 L 1052.69 1474.94 C 1041.67 1473.9 1023.17 1473.7 1012.97 1471.46 L 1013.11 1427.79 L 1013.13 1418.29 L 1013.12 1401.86 L 1013.21 1386.28 L 1014.35 1385.95 C 1019.52 1384.37 1045.75 1384.94 1052.52 1384.96 L 1053.02 1319.99 L 1079.77 1320 L 1088.09 1319.97 z"/>
<path transform="translate(0,0)" fill="rgb(131,39,33)" d="M 1088.09 1319.97 L 1116.01 1319.88 C 1116.24 1341.6 1116.31 1363.32 1116.22 1385.04 C 1122.21 1384.97 1147.03 1384.21 1151.35 1385.84 C 1131.46 1386.4 1108.24 1385.85 1088.1 1385.8 L 1088.09 1319.97 z"/>
<path transform="translate(0,0)" fill="rgb(226,57,50)" d="M 1013.11 1427.79 C 1026.37 1427.86 1039.64 1427.86 1052.9 1427.77 L 1052.69 1474.94 C 1041.67 1473.9 1023.17 1473.7 1012.97 1471.46 L 1013.11 1427.79 z"/>
<path transform="translate(0,0)" fill="rgb(131,39,33)" d="M 1053.02 1319.99 L 1079.77 1320 C 1079.27 1341.96 1079.48 1363.78 1079.2 1385.71 C 1057.59 1385.52 1035.88 1386.36 1014.35 1385.95 C 1019.52 1384.37 1045.75 1384.94 1052.52 1384.96 L 1053.02 1319.99 z"/>
<path transform="translate(0,0)" fill="rgb(226,57,50)" d="M 1116.31 1428.07 L 1151.97 1428.13 C 1152.27 1442.5 1152.36 1456.87 1152.26 1471.24 C 1145.29 1473.64 1115.77 1474.86 1106.8 1474.79 C 1111.2 1474.47 1112.16 1474.55 1116.22 1473.09 C 1117.47 1465.71 1116.48 1436.96 1116.31 1428.07 z"/>
<path transform="translate(0,0)" fill="rgb(131,39,33)" d="M 1088.04 1427.47 L 1151.97 1427.18 L 1151.97 1428.13 L 1116.31 1428.07 C 1116.48 1436.96 1117.47 1465.71 1116.22 1473.09 C 1112.16 1474.55 1111.2 1474.47 1106.8 1474.79 L 1102.18 1474.95 L 1087.94 1475.09 C 1088.42 1459.84 1088.05 1442.85 1088.04 1427.47 z"/>
<path transform="translate(0,0)" fill="rgb(131,39,33)" d="M 1052.9 1427.77 C 1061.62 1427.57 1070.35 1427.46 1079.08 1427.43 C 1079.02 1442.92 1078.65 1459.68 1079.08 1475.06 L 1065.27 1475.23 L 1052.69 1474.94 L 1052.9 1427.77 z"/>
<path transform="translate(0,0)" fill="rgb(226,57,50)" d="M 1013.12 1401.86 L 1052.6 1401.88 L 1052.55 1418.21 L 1013.13 1418.29 L 1013.12 1401.86 z"/>
<path transform="translate(0,0)" fill="rgb(226,57,50)" d="M 1152.05 1401.85 L 1152 1418.21 C 1140.6 1417.96 1128.28 1418.21 1116.81 1418.24 L 1116.66 1401.83 C 1128.14 1402.08 1140.51 1401.85 1152.05 1401.85 z"/>
<path transform="translate(0,0)" fill="rgb(131,39,33)" d="M 1088.06 1401.74 C 1097.59 1401.72 1107.13 1401.75 1116.66 1401.83 L 1116.81 1418.24 C 1107.56 1419.03 1097.5 1418.7 1088.15 1418.61 L 1088.06 1401.74 z"/>
<path transform="translate(0,0)" fill="rgb(131,39,33)" d="M 1052.6 1401.88 C 1061.24 1401.8 1070.67 1401.51 1079.23 1401.84 L 1079.24 1418.2 C 1070.42 1418.34 1061.34 1418.64 1052.55 1418.21 L 1052.6 1401.88 z"/>
<path transform="translate(0,0)" fill="rgb(68,30,39)" d="M 884.142 1132.18 L 893.965 1132.75 L 903.715 1132.92 L 921.202 1132.95 L 937.736 1133.07 C 938.065 1152.74 938.155 1172.41 938.007 1192.08 C 937.917 1200.4 937.734 1208.87 937.77 1217.18 L 937.957 1225.05 C 937.789 1233.1 937.615 1240.82 937.841 1248.88 C 938.044 1268.58 938.07 1288.29 937.92 1307.99 L 921.344 1307.96 L 903.315 1307.84 L 894.211 1307.8 C 885.142 1307.94 866.838 1308.48 858.775 1307.14 L 857.808 1307 C 858.35 1296.53 864.838 1262.22 866.864 1249.92 L 866.449 1248.08 C 868.321 1241.82 869.545 1229.86 870.459 1222.98 L 871.48 1216.33 C 872.391 1208.55 873.927 1199.79 875.112 1191.95 C 877.862 1172.15 881.121 1151.98 884.142 1132.18 z"/>
<path transform="translate(0,0)" fill="rgb(131,39,33)" d="M 884.142 1132.18 L 893.965 1132.75 L 893.828 1136.91 C 894.603 1161.14 893.981 1185.64 894.013 1209.89 C 894.019 1214.46 894.159 1219.67 893.705 1224.14 C 894.069 1251.85 894.148 1279.56 893.941 1307.27 L 894.211 1307.8 C 885.142 1307.94 866.838 1308.48 858.775 1307.14 L 857.808 1307 C 858.35 1296.53 864.838 1262.22 866.864 1249.92 L 866.449 1248.08 C 868.321 1241.82 869.545 1229.86 870.459 1222.98 L 871.48 1216.33 C 872.391 1208.55 873.927 1199.79 875.112 1191.95 C 877.862 1172.15 881.121 1151.98 884.142 1132.18 z"/>
<path transform="translate(0,0)" fill="rgb(182,37,32)" d="M 866.449 1248.08 C 875.172 1248.03 884.347 1247.83 893.016 1248.34 C 893.015 1255.36 892.105 1302.76 893.941 1307.27 L 894.211 1307.8 C 885.142 1307.94 866.838 1308.48 858.775 1307.14 L 857.808 1307 C 858.35 1296.53 864.838 1262.22 866.864 1249.92 L 866.449 1248.08 z"/>
<path transform="translate(0,0)" fill="rgb(226,57,50)" d="M 866.449 1248.08 C 875.172 1248.03 884.347 1247.83 893.016 1248.34 C 893.015 1255.36 892.105 1302.76 893.941 1307.27 L 894.211 1307.8 C 885.142 1307.94 866.838 1308.48 858.775 1307.14 C 863.299 1306.69 873.914 1307.03 878.896 1307.06 C 880.64 1288.02 882.809 1269.01 885.4 1250.07 L 866.864 1249.92 L 866.449 1248.08 z"/>
<path transform="translate(0,0)" fill="rgb(226,57,50)" d="M 884.142 1132.18 L 893.965 1132.75 L 893.828 1136.91 C 892.574 1146.79 893.145 1180.69 893.405 1191.98 L 875.112 1191.95 C 877.862 1172.15 881.121 1151.98 884.142 1132.18 z"/>
<path transform="translate(0,0)" fill="rgb(226,57,50)" d="M 871.48 1216.33 C 875.633 1220.41 884.779 1216.28 891.476 1218.09 C 893.824 1220.28 892.905 1218.92 893.245 1223.01 L 870.459 1222.98 L 871.48 1216.33 z"/>
<path transform="translate(0,0)" fill="rgb(34,30,50)" d="M 921.202 1132.95 L 937.736 1133.07 C 938.065 1152.74 938.155 1172.41 938.007 1192.08 C 937.917 1200.4 937.734 1208.87 937.77 1217.18 L 937.957 1225.05 C 937.789 1233.1 937.615 1240.82 937.841 1248.88 C 938.044 1268.58 938.07 1288.29 937.92 1307.99 L 921.344 1307.96 L 921.046 1249.23 C 921.29 1240.74 921.343 1232.24 921.206 1223.74 L 921.266 1217.68 L 921.088 1191.98 C 920.946 1172.3 920.984 1152.62 921.202 1132.95 z"/>
<path transform="translate(0,0)" fill="rgb(226,57,50)" d="M 904.112 1249.04 L 921.046 1249.23 L 921.344 1307.96 L 903.315 1307.84 L 903.822 1305.27 C 904.608 1287.64 904.108 1266.89 904.112 1249.04 z"/>
<path transform="translate(0,0)" fill="rgb(226,57,50)" d="M 903.715 1132.92 L 921.202 1132.95 C 920.984 1152.62 920.946 1172.3 921.088 1191.98 L 904.01 1192.02 C 904.055 1175.06 904.78 1155.18 903.828 1138.6 L 903.715 1132.92 z"/>
<path transform="translate(0,0)" fill="rgb(131,39,33)" d="M 903.226 1223.55 C 903.6 1197.15 901.984 1164.66 903.828 1138.6 C 904.78 1155.18 904.055 1175.06 904.01 1192.02 L 921.088 1191.98 L 921.266 1217.68 L 921.206 1223.74 C 915.212 1223.86 909.216 1223.8 903.226 1223.55 z"/>
<path transform="translate(0,0)" fill="rgb(226,57,50)" d="M 903.226 1223.55 L 904.16 1219.43 C 908.658 1215.78 915.194 1217.26 921.266 1217.68 L 921.206 1223.74 C 915.212 1223.86 909.216 1223.8 903.226 1223.55 z"/>
<path transform="translate(0,0)" fill="rgb(131,39,33)" d="M 903.226 1223.55 C 909.216 1223.8 915.212 1223.86 921.206 1223.74 C 921.343 1232.24 921.29 1240.74 921.046 1249.23 L 904.112 1249.04 C 904.108 1266.89 904.608 1287.64 903.822 1305.27 C 901.093 1287.5 903.979 1243.89 903.226 1223.55 z"/>
<path transform="translate(0,0)" fill="rgb(226,57,50)" d="M 989.633 1217.33 L 991.766 1223.19 C 995.36 1229.76 998.112 1234.58 1002.26 1240.79 L 1001.89 1248.83 C 1002.04 1268.39 1001.58 1288.41 1001.89 1307.83 C 980.64 1307.92 959.146 1308.18 937.92 1307.99 C 938.07 1288.29 938.044 1268.58 937.841 1248.88 C 937.615 1240.82 937.789 1233.1 937.957 1225.05 L 937.77 1217.18 C 954.786 1218.11 972.604 1217.66 989.633 1217.33 z"/>
<path transform="translate(0,0)" fill="rgb(131,39,33)" d="M 989.633 1217.33 L 991.766 1223.19 C 995.36 1229.76 998.112 1234.58 1002.26 1240.79 L 1001.89 1248.83 C 980.542 1249.04 959.191 1249.06 937.841 1248.88 C 937.615 1240.82 937.789 1233.1 937.957 1225.05 L 937.77 1217.18 C 954.786 1218.11 972.604 1217.66 989.633 1217.33 z"/>
<path transform="translate(0,0)" fill="rgb(226,57,50)" d="M 989.633 1217.33 L 991.766 1223.19 C 985.129 1225.62 949.692 1222.97 937.957 1225.05 L 937.77 1217.18 C 954.786 1218.11 972.604 1217.66 989.633 1217.33 z"/>
<path transform="translate(0,0)" fill="rgb(226,57,50)" d="M 937.535 1320 C 959.021 1319.8 980.508 1319.75 1001.99 1319.85 C 1002.13 1341.74 1002.12 1363.64 1001.96 1385.53 C 987.95 1384.25 953.409 1385.34 937.959 1385.41 C 938.02 1363.61 937.879 1341.81 937.535 1320 z"/>
<path transform="translate(0,0)" fill="rgb(226,57,50)" d="M 1163.21 1319.92 L 1227.03 1319.95 L 1226.94 1385.52 C 1211.71 1385.58 1176.84 1384.59 1163.24 1385.86 C 1162.22 1366.42 1163.06 1339.82 1163.21 1319.92 z"/>
<path transform="translate(0,0)" fill="rgb(226,57,50)" d="M 1163.69 1248.92 C 1185.1 1250.06 1206.28 1248.4 1227.04 1249.2 C 1226.8 1268.74 1226.84 1288.29 1227.18 1307.83 C 1206.06 1307.88 1184.94 1307.8 1163.82 1307.61 L 1163.69 1248.92 z"/>
<path transform="translate(0,0)" fill="rgb(226,57,50)" d="M 1013 1319.93 L 1053.02 1319.99 L 1052.52 1384.96 C 1045.75 1384.94 1019.52 1384.37 1014.35 1385.95 L 1013.21 1386.28 C 1012.93 1364.17 1012.86 1342.05 1013 1319.93 z"/>
<path transform="translate(0,0)" fill="rgb(226,57,50)" d="M 1116.01 1319.88 L 1151.98 1319.93 C 1152.08 1341.57 1152.56 1364.52 1151.96 1386.05 L 1151.35 1385.84 C 1147.03 1384.21 1122.21 1384.97 1116.22 1385.04 C 1116.31 1363.32 1116.24 1341.6 1116.01 1319.88 z"/>
<path transform="translate(0,0)" fill="rgb(226,57,50)" d="M 1013.07 1250.88 C 1028.04 1260.43 1036.03 1263.87 1053.2 1268.63 C 1052.37 1281.58 1052.6 1294.99 1053.07 1307.96 L 1013.13 1307.99 L 1013.07 1250.88 z"/>
<path transform="translate(0,0)" fill="rgb(226,57,50)" d="M 1115.23 1268.34 C 1127.93 1265.33 1140.05 1260.27 1151.12 1253.36 C 1152.35 1270.02 1151.92 1290.9 1151.76 1307.88 L 1115.33 1307.98 C 1115.52 1294.7 1115.85 1281.62 1115.23 1268.34 z"/>
<path transform="translate(0,0)" fill="rgb(34,30,50)" d="M 1002.17 1460.68 C 1002.52 1464.83 1002.04 1467.17 1004.16 1470.26 C 1007.64 1471.24 1009.43 1471.23 1012.97 1471.46 C 1023.17 1473.7 1041.67 1473.9 1052.69 1474.94 L 1065.27 1475.23 C 1064.83 1486.89 1062.76 1494.74 1061.86 1505.22 C 1059.7 1530.89 1055.71 1547.01 1057.25 1573.84 C 1061.07 1574.01 1062.36 1573.7 1065.36 1576.05 C 1067.6 1579.7 1067.7 1580.71 1068.88 1584.93 C 1068.31 1596.87 1070.79 1609.46 1070 1623.57 C 1070.04 1631.56 1070.39 1642.07 1069.78 1649.83 C 1066.47 1654.92 1065.34 1656.42 1061.16 1660.8 C 1056.63 1692.99 1053.08 1726.72 1050.05 1759.09 C 1048.4 1776.75 1042.5 1809.3 1044.34 1825.59 C 1048.72 1864.16 1055.34 1895.9 1054.86 1935.46 C 1023.37 1935.74 991.879 1935.77 960.387 1935.57 C 952.43 1935.54 920.81 1937.27 915.972 1933.54 C 909.187 1911.34 968.857 1863.51 970.702 1839.15 C 973.758 1798.8 958.91 1756.62 956.33 1716.22 C 942.496 1714.86 943.741 1710.89 942.368 1698.63 C 939.394 1703.11 937.026 1705.98 933.64 1710.06 L 923.435 1713.04 C 926.316 1694.43 928.928 1675.77 931.272 1657.08 C 927.674 1645.2 928.768 1636.94 929.191 1624.67 C 929.02 1610.24 929.948 1600.27 931.512 1586.07 C 932.404 1578.37 933.964 1577.85 939.365 1572.22 C 939.317 1560.87 938.46 1549.54 936.8 1538.31 C 939.987 1532.13 943.239 1525.99 946.554 1519.88 C 945.931 1506.16 944.833 1492.47 943.261 1478.84 C 942.978 1474.65 942.337 1469.78 941.893 1465.55 C 956.638 1465.1 985.637 1472.85 1000.98 1470.71 C 1002.09 1467.72 1001.99 1464.01 1002.17 1460.68 z"/>
<path transform="translate(0,0)" fill="rgb(250,177,141)" d="M 1002.17 1460.68 C 1002.52 1464.83 1002.04 1467.17 1004.16 1470.26 C 1007.64 1471.24 1009.43 1471.23 1012.97 1471.46 C 1023.17 1473.7 1041.67 1473.9 1052.69 1474.94 L 1065.27 1475.23 C 1064.83 1486.89 1062.76 1494.74 1061.86 1505.22 C 1059.7 1530.89 1055.71 1547.01 1057.25 1573.84 C 1061.07 1574.01 1062.36 1573.7 1065.36 1576.05 C 1067.6 1579.7 1067.7 1580.71 1068.88 1584.93 C 1068.31 1596.87 1070.79 1609.46 1070 1623.57 L 1067.78 1623.68 C 1058.88 1617.21 1044.08 1611.49 1033.74 1604.55 C 986.248 1625.64 1013.94 1626.21 967.261 1605.35 C 958.484 1601.74 939.54 1591.19 931.512 1586.07 C 932.404 1578.37 933.964 1577.85 939.365 1572.22 C 939.317 1560.87 938.46 1549.54 936.8 1538.31 C 939.987 1532.13 943.239 1525.99 946.554 1519.88 C 945.931 1506.16 944.833 1492.47 943.261 1478.84 C 942.978 1474.65 942.337 1469.78 941.893 1465.55 C 956.638 1465.1 985.637 1472.85 1000.98 1470.71 C 1002.09 1467.72 1001.99 1464.01 1002.17 1460.68 z"/>
<path transform="translate(0,0)" fill="rgb(34,30,50)" d="M 946.554 1519.88 C 950.185 1527.85 952.659 1533.23 957.134 1540.68 C 955.342 1550.33 952.921 1565.11 952.794 1574.92 L 1017.61 1574.95 C 1028.63 1574.95 1046.93 1575.34 1057.25 1573.84 C 1061.07 1574.01 1062.36 1573.7 1065.36 1576.05 C 1067.6 1579.7 1067.7 1580.71 1068.88 1584.93 C 1068.31 1596.87 1070.79 1609.46 1070 1623.57 L 1067.78 1623.68 C 1058.88 1617.21 1044.08 1611.49 1033.74 1604.55 C 986.248 1625.64 1013.94 1626.21 967.261 1605.35 C 958.484 1601.74 939.54 1591.19 931.512 1586.07 C 932.404 1578.37 933.964 1577.85 939.365 1572.22 C 939.317 1560.87 938.46 1549.54 936.8 1538.31 C 939.987 1532.13 943.239 1525.99 946.554 1519.88 z"/>
<path transform="translate(0,0)" fill="rgb(226,57,50)" d="M 1068.88 1584.93 C 1068.31 1596.87 1070.79 1609.46 1070 1623.57 L 1067.78 1623.68 C 1058.88 1617.21 1044.08 1611.49 1033.74 1604.55 C 1048.4 1597.85 1055.57 1594.22 1068.88 1584.93 z"/>
<path transform="translate(0,0)" fill="rgb(240,129,100)" d="M 1002.17 1460.68 C 1002.52 1464.83 1002.04 1467.17 1004.16 1470.26 C 1007.64 1471.24 1009.43 1471.23 1012.97 1471.46 C 1023.17 1473.7 1041.67 1473.9 1052.69 1474.94 L 1065.27 1475.23 C 1064.83 1486.89 1062.76 1494.74 1061.86 1505.22 L 1060.79 1500.63 C 1059.24 1499.39 950.413 1480.39 944.821 1480.54 L 943.261 1478.84 C 942.978 1474.65 942.337 1469.78 941.893 1465.55 C 956.638 1465.1 985.637 1472.85 1000.98 1470.71 C 1002.09 1467.72 1001.99 1464.01 1002.17 1460.68 z"/>
<path transform="translate(0,0)" fill="rgb(68,30,39)" d="M 931.512 1586.07 C 939.54 1591.19 958.484 1601.74 967.261 1605.35 C 1013.94 1626.21 986.248 1625.64 1033.74 1604.55 C 1044.08 1611.49 1058.88 1617.21 1067.78 1623.68 C 1064.23 1625.99 1038.26 1638.99 1033.39 1641.01 C 1023.88 1634.28 1010.56 1627.42 999.933 1622.74 C 988.515 1628.2 977.406 1634.28 966.655 1640.96 C 960.587 1637.21 936.513 1623.94 930.481 1623.96 L 929.191 1624.67 C 929.02 1610.24 929.948 1600.27 931.512 1586.07 z"/>
<path transform="translate(0,0)" fill="rgb(226,57,50)" d="M 931.512 1586.07 C 939.54 1591.19 958.484 1601.74 967.261 1605.35 L 930.481 1623.96 L 929.191 1624.67 C 929.02 1610.24 929.948 1600.27 931.512 1586.07 z"/>
<path transform="translate(0,0)" fill="rgb(226,57,50)" d="M 931.272 1657.08 C 938.514 1659.1 944.763 1659.76 952.202 1660.74 C 953.738 1677.87 956.159 1699.39 956.33 1716.22 C 942.496 1714.86 943.741 1710.89 942.368 1698.63 C 939.394 1703.11 937.026 1705.98 933.64 1710.06 L 923.435 1713.04 C 926.316 1694.43 928.928 1675.77 931.272 1657.08 z"/>
<path transform="translate(0,0)" fill="rgb(226,57,50)" d="M 966.655 1640.96 C 977.406 1634.28 988.515 1628.2 999.933 1622.74 C 1010.56 1627.42 1023.88 1634.28 1033.39 1641.01 C 1022.15 1647.03 1010.98 1653.2 999.904 1659.51 C 989.751 1653.28 977.212 1646.72 966.655 1640.96 z"/>
<path transform="translate(0,0)" fill="rgb(180,184,189)" d="M 994.318 332.452 C 991.355 315.12 987.276 272.07 991.504 257.02 C 1001.26 222.286 1056.72 188.394 1092.72 200.206 C 1114.88 207.476 1126.56 211.406 1138.85 231.108 C 1169.52 239.438 1170.43 255.847 1170.01 283.974 C 1169.69 287.105 1169.1 291.445 1168.96 294.477 C 1168.75 301.825 1165.4 328.618 1167.68 332.728 C 1195.47 333.95 1180.18 383.679 1162.46 393.281 L 1160.91 394.138 L 1159.48 394.654 C 1153.43 429.353 1163.76 422.902 1143.07 458.886 C 1143.06 463.137 1143.85 466.245 1140.51 469.07 C 1121.8 484.892 1101.35 497.267 1082.82 513.564 L 1081.6 513.127 C 1071.94 505.048 1024.45 473.401 1022.04 465.908 C 1021.58 461.987 1007.81 446.902 1005.38 438.787 C 1000.97 424.079 1004.26 407.54 1000.53 394.063 C 982.852 382.315 979.788 362.114 979.98 342.48 C 984.456 334.842 985.588 333.948 994.318 332.452 z"/>
<path transform="translate(0,0)" fill="rgb(250,177,141)" d="M 1031.97 405.6 C 1016.41 387.553 996.091 354.977 1003.82 329.191 C 1008.01 315.223 1011.01 262.302 1026.33 257.294 C 1038.36 253.362 1069.54 270.639 1085.03 267.904 C 1105.03 266.232 1112.41 259.882 1130.38 253.532 C 1140.89 260.802 1143.1 266.128 1146.18 278.019 L 1147.09 286.307 C 1148.39 296.127 1149.32 303.155 1153.13 312.428 C 1160.51 347.069 1159.04 359.579 1139.6 389.452 C 1135.52 395.674 1131.11 401.67 1126.39 407.415 C 1116.38 393.906 1107.6 388.097 1090.68 385.679 C 1080.63 389.499 1075.71 387.56 1065.94 384.54 C 1050.64 386.879 1041.92 395.133 1031.97 405.6 z"/>
<path transform="translate(0,0)" fill="rgb(240,129,100)" d="M 1075.18 327.848 L 1084.84 321.906 C 1090.08 334.878 1096.88 370.372 1093.29 382.812 L 1090.68 385.679 C 1080.63 389.499 1075.71 387.56 1065.94 384.54 C 1064.42 382.256 1064 382.658 1064.5 380.829 C 1069.31 363.512 1072.02 345.562 1075.18 327.848 z"/>
<path transform="translate(0,0)" fill="rgb(180,184,189)" d="M 1030.07 315.183 C 1038.92 314.449 1059.99 312.046 1064.04 321.125 C 1062.28 328.482 1056.36 328.515 1050.13 328.616 C 1042.23 327.9 1016.91 330.591 1014.93 324.04 C 1017.22 317.779 1024.34 316.432 1030.07 315.183 z"/>
<path transform="translate(0,0)" fill="rgb(180,184,189)" d="M 1102.19 315.154 C 1111.72 314.828 1140.11 312.729 1144.51 323.434 C 1144.32 326.338 1144.57 326.36 1142.94 328.692 L 1139.76 328.816 C 1127.21 327.307 1107.93 330.261 1099.12 326.089 C 1095.23 320.685 1097.7 318.159 1102.19 315.154 z"/>
<path transform="translate(0,0)" fill="rgb(240,129,100)" d="M 1054.5 296.525 C 1061.79 296.996 1069.08 297.584 1076.38 298.008 C 1089.73 298.783 1106.33 294.123 1118.29 300.755 C 1114.5 301.318 1110.37 299.941 1106.55 299.035 C 1094.47 298.052 1087.56 301.41 1079.41 301.208 C 1062.16 300.782 1059.2 296.198 1040.4 299.838 L 1040.43 299.308 C 1046.56 296.601 1048.06 296.725 1054.5 296.525 z"/>
<path transform="translate(0,0)" fill="rgb(34,30,50)" d="M 1040.4 331.548 C 1051.69 333.285 1049.77 342.288 1044.93 349.367 C 1032.84 347.914 1033.46 339.068 1040.4 331.548 z"/>
<path transform="translate(0,0)" fill="rgb(34,30,50)" d="M 1115.31 331.562 C 1126.6 332.729 1125.29 342.603 1119.91 349.498 C 1108.99 347.682 1109.29 338.668 1115.31 331.562 z"/>
<path transform="translate(0,0)" fill="rgb(240,129,100)" d="M 1055.69 283.393 C 1061.42 282.182 1108.18 283.259 1112.49 285.142 C 1110.28 286.615 1107.83 286.062 1105.02 285.923 C 1084.39 284.11 1065.12 286.158 1045.49 285.588 C 1048.91 283.767 1051.82 283.808 1055.69 283.393 z"/>
<path transform="translate(0,0)" fill="rgb(240,129,100)" d="M 1022.04 465.908 C 1026.29 465.929 1038.13 479.152 1043.82 480.569 C 1088.02 491.578 1110.7 486.347 1143.07 458.886 C 1143.06 463.137 1143.85 466.245 1140.51 469.07 C 1121.8 484.892 1101.35 497.267 1082.82 513.564 L 1081.6 513.127 C 1071.94 505.048 1024.45 473.401 1022.04 465.908 z"/>
<path transform="translate(0,0)" fill="rgb(250,177,141)" d="M 1167.68 332.728 C 1195.47 333.95 1180.18 383.679 1162.46 393.281 L 1160.91 394.138 C 1158.28 387.911 1163.08 339.26 1166.77 333.531 L 1167.68 332.728 z"/>
<path transform="translate(0,0)" fill="rgb(250,177,141)" d="M 979.98 342.48 C 984.456 334.842 985.588 333.948 994.318 332.452 C 996.967 347.055 1001.13 379.638 1000.53 394.063 C 982.852 382.315 979.788 362.114 979.98 342.48 z"/>
<path transform="translate(0,0)" fill="rgb(200,214,227)" d="M 1146.18 278.019 C 1154.95 281.789 1160.51 282.643 1170.01 283.974 C 1169.69 287.105 1169.1 291.445 1168.96 294.477 C 1161.24 292.143 1154.52 289.326 1147.09 286.307 L 1146.18 278.019 z"/>
<path transform="translate(0,0)" fill="rgb(250,177,141)" d="M 1055.93 403.664 C 1069.32 398.761 1086.38 398.062 1099.65 403.546 L 1102.65 404.341 C 1115.55 407.796 1105.98 432.668 1094.14 426.103 C 1090.94 424.332 1089.56 419.34 1088.27 416.009 C 1082.83 415.731 1076.38 415.257 1070.93 416.018 C 1066.98 416.568 1067.39 420.662 1063.79 425.868 C 1053.42 430.654 1040.47 409.511 1055.93 403.664 z"/>
<path transform="translate(0,0)" fill="rgb(250,177,141)" d="M 1055.93 403.664 C 1069.32 398.761 1086.38 398.062 1099.65 403.546 C 1087.67 406.399 1082.77 407.537 1070.17 406.406 C 1066.36 406.064 1060.54 405.037 1056.97 405.356 L 1055.93 403.664 z"/>
<path transform="translate(0,0)" fill="rgb(240,129,100)" d="M 1099.65 403.546 L 1102.65 404.341 C 1095.55 413.395 1066.04 411.002 1056.97 405.356 C 1060.54 405.037 1066.36 406.064 1070.17 406.406 C 1082.77 407.537 1087.67 406.399 1099.65 403.546 z"/>
<path transform="translate(0,0)" fill="rgb(34,30,50)" d="M 1108.88 1573.57 C 1118.67 1574.68 1139.27 1574.27 1149.98 1574.29 C 1173.36 1574.4 1196.74 1574.32 1220.11 1574.03 C 1224.04 1574.33 1228.74 1574.55 1232.56 1575.16 C 1233.7 1579.12 1234.94 1583.22 1235.91 1587.22 C 1236.53 1594.46 1238.91 1618.29 1237.4 1623.82 C 1237.67 1636.47 1238.6 1644.06 1235.36 1656.51 C 1236.43 1665.41 1245.01 1710.01 1236.34 1712.06 C 1230.85 1709.57 1227.65 1703.94 1224.71 1698.93 C 1223.77 1702.12 1222.86 1705.33 1221.98 1708.54 C 1221.13 1711.64 1220.84 1711.82 1218.69 1714.02 C 1215.28 1715.38 1213.82 1715.01 1210.19 1714.82 C 1206.7 1752.34 1193.36 1797.6 1195.21 1834.03 C 1196.36 1856.78 1235.44 1899.33 1249 1920.46 L 1249.91 1935.47 C 1233.88 1936.28 1214.27 1935.84 1198.06 1935.82 L 1110.49 1935.71 C 1110.43 1916.69 1111.75 1897.68 1114.44 1878.85 C 1119.09 1845.4 1124.42 1821.7 1119.55 1787.37 C 1113.61 1745.48 1110.73 1702.26 1105.69 1660.21 C 1092.24 1652.29 1094.7 1643.68 1095.33 1629.49 C 1094.97 1617.21 1096.19 1598.11 1097.42 1585.83 C 1098.39 1581.54 1098.51 1580.23 1100.49 1576.41 C 1103.38 1573.78 1104.97 1574.01 1108.88 1573.57 z"/>
<path transform="translate(0,0)" fill="rgb(34,30,50)" d="M 1108.88 1573.57 C 1118.67 1574.68 1139.27 1574.27 1149.98 1574.29 C 1173.36 1574.4 1196.74 1574.32 1220.11 1574.03 C 1224.04 1574.33 1228.74 1574.55 1232.56 1575.16 C 1233.7 1579.12 1234.94 1583.22 1235.91 1587.22 C 1236.53 1594.46 1238.91 1618.29 1237.4 1623.82 L 1234.19 1622.89 C 1227.26 1627.51 1208.27 1636.96 1200.01 1640.68 C 1192.11 1635.39 1177.75 1628.45 1168.95 1624.03 L 1164.55 1623.32 C 1155.62 1628.87 1141.32 1635.73 1131.69 1640.74 C 1127.56 1639.44 1107.36 1626.42 1097.79 1622.72 L 1096.04 1624.03 C 1095.78 1625.85 1095.55 1627.67 1095.33 1629.49 C 1094.97 1617.21 1096.19 1598.11 1097.42 1585.83 C 1098.39 1581.54 1098.51 1580.23 1100.49 1576.41 C 1103.38 1573.78 1104.97 1574.01 1108.88 1573.57 z"/>
<path transform="translate(0,0)" fill="rgb(68,30,39)" d="M 1168.95 1624.03 C 1172.55 1619.62 1196.19 1606.31 1201.82 1604.69 C 1210.38 1610.76 1224.64 1617.96 1234.19 1622.89 C 1227.26 1627.51 1208.27 1636.96 1200.01 1640.68 C 1192.11 1635.39 1177.75 1628.45 1168.95 1624.03 z"/>
<path transform="translate(0,0)" fill="rgb(68,30,39)" d="M 1133.81 1605.87 C 1140.6 1609.7 1158.74 1620.95 1164.55 1623.32 C 1155.62 1628.87 1141.32 1635.73 1131.69 1640.74 C 1127.56 1639.44 1107.36 1626.42 1097.79 1622.72 C 1108.6 1618.34 1122.25 1610.92 1133.81 1605.87 z"/>
<path transform="translate(0,0)" fill="rgb(226,57,50)" d="M 1097.42 1585.83 C 1107.46 1592.27 1122.94 1600.05 1133.81 1605.87 C 1122.25 1610.92 1108.6 1618.34 1097.79 1622.72 L 1096.04 1624.03 C 1095.78 1625.85 1095.55 1627.67 1095.33 1629.49 C 1094.97 1617.21 1096.19 1598.11 1097.42 1585.83 z"/>
<path transform="translate(0,0)" fill="rgb(226,57,50)" d="M 1235.91 1587.22 C 1236.53 1594.46 1238.91 1618.29 1237.4 1623.82 L 1234.19 1622.89 C 1224.64 1617.96 1210.38 1610.76 1201.82 1604.69 C 1212.48 1599.95 1225.81 1592.88 1235.91 1587.22 z"/>
<path transform="translate(0,0)" fill="rgb(226,57,50)" d="M 1214.17 1659.12 C 1220.96 1658.86 1228.8 1658.14 1235.36 1656.51 C 1236.43 1665.41 1245.01 1710.01 1236.34 1712.06 C 1230.85 1709.57 1227.65 1703.94 1224.71 1698.93 C 1223.77 1702.12 1222.86 1705.33 1221.98 1708.54 C 1221.13 1711.64 1220.84 1711.82 1218.69 1714.02 C 1215.28 1715.38 1213.82 1715.01 1210.19 1714.82 C 1210.2 1698.34 1212.71 1675.92 1214.17 1659.12 z"/>
<path transform="translate(0,0)" fill="rgb(226,57,50)" d="M 1164.55 1623.32 L 1168.95 1624.03 C 1177.75 1628.45 1192.11 1635.39 1200.01 1640.68 C 1189.9 1646.86 1176.66 1653.5 1166.01 1659.48 L 1131.69 1640.74 C 1141.32 1635.73 1155.62 1628.87 1164.55 1623.32 z"/>
<path transform="translate(0,0)" fill="rgb(89,122,156)" d="M 503.958 460.958 L 599.153 460.873 C 599.229 476.188 597.256 498.991 596.385 514.879 C 595.494 531.142 595.001 563.654 591.871 578.339 C 608.049 577.986 626.205 577.804 642.289 578.513 C 638.712 569.668 640.04 548.587 640.112 537.809 L 640.043 509.928 L 732.732 509.729 L 732.927 535.921 L 732.96 548.193 C 737.758 547.965 745.733 547.369 750.272 547.526 L 757.547 548.019 C 776.503 546.401 792.027 547.196 810.847 550.101 C 825.163 556.143 826.636 570.406 812.57 577.457 C 819.171 578.739 825.614 577.27 831.448 579.148 C 833.395 582.031 832.82 580.975 832.446 585.292 C 827.446 592.1 815.006 589.883 807.1 589.682 C 800.549 597.719 792.613 604.518 783.666 609.759 L 711.735 609.882 C 724.316 618.521 727.389 623.845 734.932 636.666 C 719.709 647.239 704.889 657.401 690.337 668.902 C 660.756 647.952 559.863 633.166 539.642 609.697 C 517.915 609.572 496.436 609.937 474.682 609.374 C 464.547 602.871 460.165 599.361 452.959 589.921 C 445.81 588.112 428.874 593.37 424.949 584.117 C 425.904 581.027 425.707 581.119 427.92 578.822 C 434.781 577.163 498.679 578.085 510.534 578.154 C 509.821 572.09 508.957 565.261 508.803 559.202 C 507.973 526.405 504.189 493.765 503.958 460.958 z"/>
<path transform="translate(0,0)" fill="rgb(200,214,227)" d="M 503.958 460.958 L 599.153 460.873 C 599.229 476.188 597.256 498.991 596.385 514.879 C 595.494 531.142 595.001 563.654 591.871 578.339 C 608.049 577.986 626.205 577.804 642.289 578.513 C 636.039 579.582 606.682 579.34 599.012 579.152 C 576.806 578.607 552.542 579.603 530.58 578.766 L 528.265 578.958 C 496.401 579.275 459.639 579.753 427.92 578.822 C 434.781 577.163 498.679 578.085 510.534 578.154 C 509.821 572.09 508.957 565.261 508.803 559.202 C 507.973 526.405 504.189 493.765 503.958 460.958 z"/>
<path transform="translate(0,0)" fill="rgb(225,105,27)" d="M 543.333 509.8 C 558.647 509.807 575.932 509.422 591.084 509.966 C 589.956 564.392 581.046 558.011 531.73 556.932 C 530.721 552.674 531.001 544.171 531.713 539.822 L 531.917 538.769 C 530.304 533.652 530.853 515.451 531.688 509.963 L 543.333 509.8 z"/>
<path transform="translate(0,0)" fill="rgb(200,214,227)" d="M 542.417 512.066 C 552.087 515.636 562.858 519.346 572.183 523.536 C 569.449 531.878 564.905 545.434 560.49 552.901 C 552.32 549.956 538.431 545.197 531.713 539.822 L 531.917 538.769 C 535.642 531.718 539.972 515.279 542.417 512.066 z"/>
<path transform="translate(0,0)" fill="rgb(250,177,141)" d="M 531.192 509.731 L 531.688 509.963 C 530.853 515.451 530.304 533.652 531.917 538.769 L 531.713 539.822 C 531.001 544.171 530.721 552.674 531.73 556.932 L 531.245 557.011 C 527.861 556.159 524.179 554.316 520.933 552.848 L 519.594 550.931 C 522.424 544.493 520.542 518.159 520.183 510.044 L 520.886 509.937 C 524.108 509.881 528.045 509.929 531.192 509.731 z"/>
<path transform="translate(0,0)" fill="rgb(255,255,255)" d="M 520.886 509.937 C 520.831 501.601 519.822 471.688 520.824 465.457 C 523.869 463.907 525.464 464.49 529.231 464.562 C 532.564 467.925 530.815 502.114 531.192 509.731 C 528.045 509.929 524.108 509.881 520.886 509.937 z"/>
<path transform="translate(0,0)" fill="rgb(225,105,27)" d="M 519.594 550.931 C 514.413 542.604 510.789 520.712 512.618 511.331 C 515.564 509.442 516.001 510.13 520.183 510.044 C 520.542 518.159 522.424 544.493 519.594 550.931 z"/>
<path transform="translate(0,0)" fill="rgb(255,255,255)" d="M 520.933 552.848 C 524.179 554.316 527.861 556.159 531.245 557.011 C 531.288 562.653 531.498 573.239 530.58 578.766 L 528.265 578.958 C 526.664 578.658 523.016 578.346 522.359 577.355 C 519.129 572.484 520.709 558.692 520.933 552.848 z"/>
<path transform="translate(0,0)" fill="rgb(131,39,33)" d="M 640.043 509.928 L 732.732 509.729 L 732.927 535.921 L 732.96 548.193 C 737.758 547.965 745.733 547.369 750.272 547.526 L 749.947 548.435 C 742.731 568.093 739.87 559.825 751.044 579.034 C 726.4 578.21 698.512 578.989 673.439 578.799 C 664.401 579.204 651.13 579.288 642.289 578.513 C 638.712 569.668 640.04 548.587 640.112 537.809 L 640.043 509.928 z"/>
<path transform="translate(0,0)" fill="rgb(34,30,50)" d="M 640.043 509.928 L 732.732 509.729 L 732.927 535.921 L 731.796 537.362 C 708.835 538.438 683.226 538.152 660.078 538.02 L 648.848 538.001 L 640.112 537.809 L 640.043 509.928 z"/>
<path transform="translate(0,0)" fill="rgb(129,66,37)" d="M 732.927 535.921 L 732.96 548.193 C 737.758 547.965 745.733 547.369 750.272 547.526 L 749.947 548.435 C 742.731 568.093 739.87 559.825 751.044 579.034 C 726.4 578.21 698.512 578.989 673.439 578.799 C 680.646 576.905 705.701 578.314 716.701 577.183 C 707.292 576.016 675.89 574.459 688.688 557.732 C 695.048 549.42 721.693 548.573 731.581 547.644 L 731.796 537.362 L 732.927 535.921 z"/>
<path transform="translate(0,0)" fill="rgb(129,66,37)" d="M 648.848 538.001 L 660.078 538.02 C 659.882 550.737 659.882 563.456 660.078 576.172 L 649.583 574.57 C 648.719 562.338 648.786 550.248 648.848 538.001 z"/>
<path transform="translate(0,0)" fill="rgb(135,176,210)" d="M 757.547 548.019 C 776.503 546.401 792.027 547.196 810.847 550.101 C 825.163 556.143 826.636 570.406 812.57 577.457 C 819.171 578.739 825.614 577.27 831.448 579.148 C 833.395 582.031 832.82 580.975 832.446 585.292 C 827.446 592.1 815.006 589.883 807.1 589.682 C 763.599 589.112 720.091 589.168 676.592 589.848 L 576.378 589.766 L 491.423 589.654 C 478.837 589.663 465.398 589.114 452.959 589.921 C 445.81 588.112 428.874 593.37 424.949 584.117 C 425.904 581.027 425.707 581.119 427.92 578.822 C 459.639 579.753 496.401 579.275 528.265 578.958 L 530.58 578.766 C 552.542 579.603 576.806 578.607 599.012 579.152 C 606.682 579.34 636.039 579.582 642.289 578.513 C 651.13 579.288 664.401 579.204 673.439 578.799 C 698.512 578.989 726.4 578.21 751.044 579.034 C 739.87 559.825 742.731 568.093 749.947 548.435 L 750.272 547.526 L 757.547 548.019 z"/>
<path transform="translate(0,0)" fill="rgb(129,66,37)" d="M 757.547 548.019 C 776.503 546.401 792.027 547.196 810.847 550.101 C 825.163 556.143 826.636 570.406 812.57 577.457 L 810.35 576.452 C 791.186 579.026 776.28 577.3 758.809 578.897 C 756.334 579.216 753.579 579.059 751.044 579.034 C 739.87 559.825 742.731 568.093 749.947 548.435 L 750.272 547.526 L 757.547 548.019 z"/>
<path transform="translate(0,0)" fill="rgb(225,105,27)" d="M 750.272 547.526 L 757.547 548.019 C 761.278 553.182 766.814 559.063 765.674 565.41 C 764.61 571.334 760.5 574.323 758.809 578.897 C 756.334 579.216 753.579 579.059 751.044 579.034 C 739.87 559.825 742.731 568.093 749.947 548.435 L 750.272 547.526 z"/>
<path transform="translate(0,0)" fill="rgb(182,37,32)" d="M 810.847 550.101 C 825.163 556.143 826.636 570.406 812.57 577.457 L 810.35 576.452 C 810.116 569.234 808.436 556.403 810.847 550.101 z"/>
<path transform="translate(0,0)" fill="rgb(240,129,100)" d="M 654.991 609.694 C 668.273 609.263 699.285 608.146 711.735 609.882 C 724.316 618.521 727.389 623.845 734.932 636.666 C 719.709 647.239 704.889 657.401 690.337 668.902 C 660.756 647.952 559.863 633.166 539.642 609.697 C 560.529 608.695 603.937 608.574 625.09 609.767 C 631.991 609.424 648.01 608.979 654.991 609.694 z"/>
<path transform="translate(0,0)" fill="rgb(255,255,255)" d="M 625.09 609.767 C 631.991 609.424 648.01 608.979 654.991 609.694 C 649.672 612.742 647.42 613.316 641.716 615.08 C 634.778 613.371 631.61 612.718 625.09 609.767 z"/>
<path transform="translate(0,0)" fill="rgb(226,57,50)" d="M 1284.48 1154.05 C 1291.54 1143.31 1296.92 1126.48 1303.96 1117.18 C 1320.95 1120.36 1353.35 1123.42 1371.89 1125.49 C 1372.17 1191.72 1368.46 1229.92 1298.49 1250.84 C 1300.33 1263.36 1304.25 1297.28 1307.57 1307.73 L 1241.79 1307.73 L 1227.18 1307.83 C 1226.84 1288.29 1226.8 1268.74 1227.04 1249.2 C 1226.97 1212.05 1227.92 1171.23 1226.88 1134.4 L 1227.26 1133.11 L 1243.76 1132.97 L 1261.68 1132.9 L 1270.72 1132.84 L 1272.01 1132.88 L 1281.16 1132.68 L 1284.48 1154.05 z"/>
<path transform="translate(0,0)" fill="rgb(250,177,141)" d="M 1284.48 1154.05 C 1291.54 1143.31 1296.92 1126.48 1303.96 1117.18 C 1320.95 1120.36 1353.35 1123.42 1371.89 1125.49 C 1372.17 1191.72 1368.46 1229.92 1298.49 1250.84 C 1297.95 1249.05 1297.8 1249.55 1295.85 1247.91 C 1288.4 1239.88 1293.73 1238.25 1295.41 1229.21 L 1293.64 1222.22 L 1293.5 1220.29 L 1292.21 1213.18 C 1276.81 1210.81 1277.91 1208.84 1279.46 1194.69 C 1282.16 1185.24 1283.76 1164.27 1284.48 1154.05 z"/>
<path transform="translate(0,0)" fill="rgb(255,255,255)" d="M 1292.21 1213.18 C 1298.47 1198.37 1304.22 1179.05 1310.74 1165.92 C 1317.02 1179.92 1317.38 1191.05 1311.98 1205.62 C 1309.82 1211.47 1301.46 1227.48 1295.41 1229.21 L 1293.64 1222.22 L 1293.5 1220.29 L 1292.21 1213.18 z"/>
<path transform="translate(0,0)" fill="rgb(68,30,39)" d="M 1272.01 1132.88 L 1281.16 1132.68 L 1284.48 1154.05 C 1283.76 1164.27 1282.16 1185.24 1279.46 1194.69 C 1277.91 1208.84 1276.81 1210.81 1292.21 1213.18 L 1293.5 1220.29 L 1293.64 1222.22 L 1295.41 1229.21 C 1293.73 1238.25 1288.4 1239.88 1295.85 1247.91 C 1291.21 1249.92 1277.73 1249.13 1272 1249.04 C 1272.03 1256.61 1272.71 1301.83 1271.3 1306.34 C 1268.34 1307.94 1264.7 1307.92 1261.86 1306.13 C 1262.22 1300.28 1262.2 1294.44 1262.15 1288.59 C 1261.85 1256.47 1262.2 1224.32 1261.14 1192.22 C 1255.31 1192.55 1249.66 1192.36 1243.83 1192.25 L 1243.76 1132.97 L 1261.68 1132.9 L 1270.72 1132.84 L 1272.01 1132.88 z"/>
<path transform="translate(0,0)" fill="rgb(226,57,50)" d="M 1243.76 1132.97 L 1261.68 1132.9 C 1260.3 1150.32 1261.02 1174.5 1261.14 1192.22 C 1255.31 1192.55 1249.66 1192.36 1243.83 1192.25 L 1243.76 1132.97 z"/>
<path transform="translate(0,0)" fill="rgb(226,57,50)" d="M 1272.01 1132.88 L 1281.16 1132.68 L 1284.48 1154.05 C 1283.76 1164.27 1282.16 1185.24 1279.46 1194.69 C 1277.46 1191.3 1277.28 1192.32 1273.07 1191.72 C 1270.76 1185.65 1272.11 1143.41 1272.01 1132.88 z"/>
<path transform="translate(0,0)" fill="rgb(131,39,33)" d="M 1271.93 1224.05 C 1278.41 1223.97 1287.53 1223.97 1293.64 1222.22 L 1295.41 1229.21 C 1293.73 1238.25 1288.4 1239.88 1295.85 1247.91 C 1291.21 1249.92 1277.73 1249.13 1272 1249.04 L 1271.93 1224.05 z"/>
<path transform="translate(0,0)" fill="rgb(131,39,33)" d="M 1270.72 1132.84 L 1272.01 1132.88 C 1272.11 1143.41 1270.76 1185.65 1273.07 1191.72 C 1277.28 1192.32 1277.46 1191.3 1279.46 1194.69 C 1277.91 1208.84 1276.81 1210.81 1292.21 1213.18 L 1293.5 1220.29 L 1293.64 1222.22 C 1287.53 1223.97 1278.41 1223.97 1271.93 1224.05 L 1271.55 1218.77 C 1272.48 1190.13 1272.2 1161.46 1270.72 1132.84 z"/>
<path transform="translate(0,0)" fill="rgb(226,57,50)" d="M 1271.55 1218.77 C 1277.91 1218.52 1287.81 1217.59 1293.5 1220.29 L 1293.64 1222.22 C 1287.53 1223.97 1278.41 1223.97 1271.93 1224.05 L 1271.55 1218.77 z"/>
<path transform="translate(0,0)" fill="rgb(34,30,50)" d="M 1227.26 1133.11 L 1243.76 1132.97 L 1243.83 1192.25 C 1241.86 1226.98 1242.87 1271.97 1242.93 1307.39 L 1241.79 1307.73 L 1227.18 1307.83 C 1226.84 1288.29 1226.8 1268.74 1227.04 1249.2 C 1226.97 1212.05 1227.92 1171.23 1226.88 1134.4 L 1227.26 1133.11 z"/>
<path transform="translate(0,0)" fill="rgb(131,39,33)" d="M 1243.83 1192.25 C 1249.66 1192.36 1255.31 1192.55 1261.14 1192.22 C 1262.2 1224.32 1261.85 1256.47 1262.15 1288.59 C 1262.2 1294.44 1262.22 1300.28 1261.86 1306.13 C 1260.31 1291.21 1261.02 1264.43 1261.06 1249.02 L 1243.74 1248.87 C 1243.49 1259.15 1244.89 1301.41 1242.93 1307.39 C 1242.87 1271.97 1241.86 1226.98 1243.83 1192.25 z"/>
<path transform="translate(0,0)" fill="rgb(226,57,50)" d="M 1242.88 1218.14 C 1247.79 1217.93 1256 1216.42 1259.96 1218.8 C 1261.35 1219.63 1261.3 1221.7 1261.74 1223.74 C 1256.84 1223.94 1249.43 1225.28 1245.22 1223.16 C 1243.5 1222.3 1243.57 1220.52 1242.88 1218.14 z"/>
<path transform="translate(0,0)" fill="rgb(246,231,202)" d="M 676.367 298.17 L 701.539 297.883 C 699.24 312.913 706.178 320.829 708.734 335.043 L 708.843 336.584 C 709.841 352.209 702.022 366.2 713.639 375.917 C 724.304 384.837 731.298 387.982 732.171 403.964 C 732.273 406.057 732.34 408.152 732.372 410.247 C 733.7 412.688 732.308 499.156 732.732 509.729 L 640.043 509.928 C 640.405 481.278 639.696 452.091 639.718 423.335 C 639.411 401.967 638.344 388.862 658.364 376.377 C 661.99 374.116 665.138 366.784 664.611 362.418 C 663.42 352.53 661.843 345.41 662.591 335.266 C 665.409 323.5 672.613 309.942 670.508 298.357 L 676.367 298.17 z"/>
<path transform="translate(0,0)" fill="rgb(131,39,33)" d="M 676.367 298.17 L 701.539 297.883 C 699.24 312.913 706.178 320.829 708.734 335.043 L 708.843 336.584 C 709.841 352.209 702.022 366.2 713.639 375.917 C 724.304 384.837 731.298 387.982 732.171 403.964 C 732.273 406.057 732.34 408.152 732.372 410.247 L 732.389 423.217 L 658.257 423.39 L 648.5 423.387 L 639.718 423.335 C 639.411 401.967 638.344 388.862 658.364 376.377 C 661.99 374.116 665.138 366.784 664.611 362.418 C 663.42 352.53 661.843 345.41 662.591 335.266 C 665.409 323.5 672.613 309.942 670.508 298.357 L 676.367 298.17 z"/>
<path transform="translate(0,0)" fill="rgb(83,143,69)" d="M 676.367 298.17 L 701.539 297.883 C 699.24 312.913 706.178 320.829 708.734 335.043 C 696.275 335.238 684.697 335.351 672.237 334.991 L 667.988 335.065 L 666.637 334.825 L 662.591 335.266 C 665.409 323.5 672.613 309.942 670.508 298.357 L 676.367 298.17 z"/>
<path transform="translate(0,0)" fill="rgb(119,178,104)" d="M 670.508 298.357 L 676.367 298.17 L 676.163 298.921 L 678.423 299.784 C 680.241 308.281 674.62 326.395 672.237 334.991 L 667.988 335.065 L 666.637 334.825 L 662.591 335.266 C 665.409 323.5 672.613 309.942 670.508 298.357 z"/>
<path transform="translate(0,0)" fill="rgb(83,143,69)" d="M 670.508 298.357 L 676.367 298.17 L 676.163 298.921 C 674.253 300.785 674.448 299.873 674.184 302.033 C 672.873 312.773 668.404 324.401 666.637 334.825 L 662.591 335.266 C 665.409 323.5 672.613 309.942 670.508 298.357 z"/>
<path transform="translate(0,0)" fill="rgb(131,39,33)" d="M 666.637 334.825 L 667.988 335.065 C 664.27 349.667 671.192 356.087 667.252 373.618 C 649.454 397.025 649.035 393.035 648.5 423.387 L 639.718 423.335 C 639.411 401.967 638.344 388.862 658.364 376.377 C 661.99 374.116 665.138 366.784 664.611 362.418 C 663.42 352.53 661.843 345.41 662.591 335.266 L 666.637 334.825 z"/>
<path transform="translate(0,0)" fill="rgb(129,66,37)" d="M 648.5 423.387 C 649.035 393.035 649.454 397.025 667.252 373.618 C 669.783 374.671 672.321 375.706 674.867 376.723 C 669.43 385.082 658.498 391.652 657.999 402.276 C 657.674 409.174 658.039 416.458 658.257 423.39 L 648.5 423.387 z"/>
<path transform="translate(0,0)" fill="rgb(129,66,37)" d="M 667.988 335.065 L 672.237 334.991 C 671.706 345.428 673.945 355.23 674.979 365.581 C 675.327 369.071 674.447 373.841 674.867 376.723 C 672.321 375.706 669.783 374.671 667.252 373.618 C 671.192 356.087 664.27 349.667 667.988 335.065 z"/>
<path transform="translate(0,0)" fill="rgb(34,30,50)" d="M 680.382 441.393 C 693.37 438.521 706.219 446.755 709.035 459.756 C 711.851 472.757 703.561 485.569 690.548 488.328 C 677.614 491.071 664.897 482.843 662.099 469.922 C 659.3 457 667.473 444.248 680.382 441.393 z"/>
<path transform="translate(0,0)" fill="rgb(250,177,141)" d="M 1163.16 1445.8 C 1163.74 1454.51 1163.8 1462.54 1163.87 1471.24 C 1175.8 1470.21 1187.72 1469.02 1199.63 1467.67 C 1206.28 1466.89 1218.87 1464.96 1225.17 1464.95 C 1224.16 1473.39 1222.25 1484.93 1221.63 1493.07 C 1220.31 1504.79 1217.82 1521.69 1217.6 1533.02 C 1217.36 1545.17 1220 1561.5 1220.11 1574.03 C 1196.74 1574.32 1173.36 1574.4 1149.98 1574.29 C 1139.27 1574.27 1118.67 1574.68 1108.88 1573.57 C 1109.74 1545.44 1107.46 1527.04 1103.61 1499.51 L 1102.18 1474.95 L 1106.8 1474.79 C 1115.77 1474.86 1145.29 1473.64 1152.26 1471.24 C 1155.78 1471.19 1157.82 1471.46 1161.03 1469.99 C 1165.07 1464.86 1162.77 1454.79 1163.16 1445.8 z"/>
<path transform="translate(0,0)" fill="rgb(240,129,100)" d="M 1163.16 1445.8 C 1163.74 1454.51 1163.8 1462.54 1163.87 1471.24 C 1175.8 1470.21 1187.72 1469.02 1199.63 1467.67 C 1206.28 1466.89 1218.87 1464.96 1225.17 1464.95 C 1224.16 1473.39 1222.25 1484.93 1221.63 1493.07 C 1221.24 1488.48 1221.13 1485.09 1221.13 1480.48 C 1192.63 1485.02 1163.92 1488.88 1135.5 1493.66 C 1129.45 1494.68 1108.1 1497.89 1103.61 1499.51 L 1102.18 1474.95 L 1106.8 1474.79 C 1115.77 1474.86 1145.29 1473.64 1152.26 1471.24 C 1155.78 1471.19 1157.82 1471.46 1161.03 1469.99 C 1165.07 1464.86 1162.77 1454.79 1163.16 1445.8 z"/>
<path transform="translate(0,0)" fill="rgb(34,30,50)" d="M 1081.6 513.127 L 1082.82 513.564 C 1092.71 519.033 1103.9 532.223 1113.2 539.617 C 1110.91 543.867 1104.11 557.045 1100.91 560.176 C 1094.73 557.696 1072.53 559.083 1066.19 560.957 C 1062.42 555.384 1056.86 544.955 1053.32 538.798 C 1063.06 530.481 1071.55 521.529 1081.6 513.127 z"/>
<path transform="translate(0,0)" fill="rgb(238,227,226)" d="M 884.142 1132.18 C 885.161 1128.28 885.158 1122.7 886.349 1118.22 C 888.913 1120.71 889.506 1120 894.189 1120.05 L 903.601 1120.1 C 909.248 1120.1 915.536 1120.25 921.122 1120.07 L 937.986 1120.05 C 956.775 1120.35 975.567 1120.4 994.357 1120.19 C 993.573 1125.01 993.132 1128.27 991.69 1132.99 L 937.736 1133.07 L 921.202 1132.95 L 903.715 1132.92 L 893.965 1132.75 L 884.142 1132.18 z"/>
<path transform="translate(0,0)" fill="rgb(238,227,226)" d="M 1271.41 1120.08 L 1280.54 1120.26 C 1281.1 1125.06 1281.18 1127.84 1281.16 1132.68 L 1272.01 1132.88 L 1270.72 1132.84 L 1261.68 1132.9 L 1243.76 1132.97 L 1227.26 1133.11 C 1211.21 1132.54 1192.42 1132.98 1176.15 1132.95 C 1175.19 1130.02 1173.99 1123.18 1173.31 1119.87 C 1191.24 1120.12 1209.16 1120.14 1227.09 1119.94 L 1243.88 1119.87 L 1261.88 1119.99 L 1271.41 1120.08 z"/>
<path transform="translate(0,0)" fill="rgb(34,30,50)" d="M 669.084 265.699 C 679.835 265.589 691.315 265.266 702.007 265.597 C 702.089 272.459 702.646 291.993 701.539 297.883 L 676.367 298.17 L 670.508 298.357 C 667.829 293.902 668.959 272.428 669.084 265.699 z"/>
</svg>
